<?xml version="1.0" standalone="no"?>
<!DOCTYPE svg PUBLIC "-//W3C//DTD SVG 1.1//EN" "http://www.w3.org/Graphics/SVG/1.1/DTD/svg11.dtd" >
<svg xmlns="http://www.w3.org/2000/svg">
<metadata></metadata>
<defs>
<font id="AmericanTypewriterStdMedRg" horiz-adv-x="1351" >
<font-face units-per-em="2048" ascent="1419" descent="-629" />
<missing-glyph horiz-adv-x="778" />
<glyph unicode="&#xfb01;" horiz-adv-x="1310" d="M10 53q0 29 19.5 48.5t50.5 19.5q14 0 45 -6t49 -6q59 0 59 116v580q0 50 -12.5 59.5t-73.5 9.5q-69 0 -98 13t-29 59q0 38 19 56t49 18h55q68 0 82 13t23 83q20 149 80 219q47 52 125.5 75.5t162.5 23.5q153 0 281 -48q66 -25 113 -81t47 -123q0 -40 -31.5 -71.5 t-69.5 -31.5q-43 0 -75.5 32t-32.5 75q0 27 26 57q-89 72 -241 72q-238 0 -238 -240q0 -37 14.5 -46t57.5 -9q38 0 112 -5t111 -5q41 0 161.5 5t172.5 5q46 0 58 -12t12 -54v-761q0 -84 53 -84q7 0 39.5 6.5t60.5 5.5q31 0 50.5 -19.5t19.5 -48.5q0 -34 -27 -55t-61 -21 q-44 0 -115 11.5t-115 11.5q-45 0 -114 -11.5t-103 -11.5q-26 0 -47.5 23.5t-21.5 52.5t19.5 48.5t49.5 19.5q14 0 45.5 -6t49.5 -6q35 0 47 37.5t12 134.5v354q0 100 -7 146t-23.5 65t-53.5 24q-106 13 -254 13q-72 0 -127 -9q-50 -7 -65 -37t-15 -106v-508q0 -114 60 -114 q18 0 49 6t45 6q31 0 50 -19.5t19 -48.5q0 -34 -27 -55t-61 -21q-26 0 -88 11.5t-123 11.5q-47 0 -115 -11.5t-102 -11.5t-61 23.5t-27 52.5z" />
<glyph unicode="&#xfb02;" horiz-adv-x="1310" d="M12 53q0 29 19.5 48.5t50.5 19.5q14 0 45 -6t49 -6q60 0 60 116v580q0 37 -8.5 50t-34.5 13h-93q-86 0 -86 78q0 34 20 54t52 20h80q50 0 60 5.5t10 37.5q0 183 84.5 277t265.5 94q52 0 180 -21q112 -22 170 -22q22 0 68 4q12 0 33.5 1t31.5 1q22 0 35.5 -11t13.5 -24 q0 -15 -9 -62t-9 -88v-931q0 -104 14.5 -138t44.5 -34q18 0 49 6t45 6q31 0 50.5 -19.5t19.5 -48.5q0 -34 -27 -55t-61 -21q-31 0 -94 11.5t-117 11.5q-50 0 -117 -11.5t-100 -11.5q-34 0 -61 21t-27 55q0 29 19.5 48.5t49.5 19.5q14 0 45.5 -6t49.5 -6q35 0 47 39.5 t12 132.5v835q0 45 -2 64t-19 38.5t-43 29.5t-85 28q-83 27 -193 27q-207 0 -207 -232q0 -34 5.5 -42.5t25.5 -8.5h137q94 0 94 -74q0 -78 -96 -78h-129q-20 0 -28.5 -7.5t-8.5 -26.5v-611q0 -114 60 -114q18 0 49 6t45 6q31 0 50 -19.5t19 -48.5q0 -34 -27 -55t-61 -21 q-26 0 -88 11.5t-123 11.5q-47 0 -115 -11.5t-102 -11.5t-61 23.5t-27 52.5z" />
<glyph horiz-adv-x="0" />
<glyph horiz-adv-x="2048" />
<glyph unicode=" "  horiz-adv-x="778" />
<glyph unicode="&#x09;" horiz-adv-x="778" />
<glyph unicode="&#xa0;" horiz-adv-x="778" />
<glyph unicode="!" horiz-adv-x="696" d="M205 109q0 54 39 92.5t94 38.5q54 0 92.5 -38.5t38.5 -92.5q0 -55 -38.5 -94.5t-92.5 -39.5q-55 0 -94 39t-39 95zM254 1321q0 113 88 113t88 -113l-8 -901q0 -24 -2 -39.5t-9.5 -32t-23.5 -25t-41 -8.5q-37 0 -56.5 16.5t-23.5 36.5t-4 52z" />
<glyph unicode="&#x22;" d="M440 1370q0 64 62 64q61 0 61 -64l-4 -498q0 -18 -3 -28.5t-16 -19.5t-38 -9q-36 0 -47 15t-11 42zM788 1370q0 64 62 64q61 0 61 -64l-4 -498q0 -18 -3 -28.5t-16 -19.5t-38 -9q-36 0 -46.5 15t-10.5 42z" />
<glyph unicode="#" d="M2 442q0 40 27.5 66.5t64.5 26.5h244l121 333h-291q-14 0 -22.5 1.5t-15.5 9t-7 22.5q0 41 27 66.5t63 25.5h293l129 338q21 74 84 74q39 0 39 -35q0 -15 -10 -35l-125 -342h323l123 338q31 74 88 74q41 0 41 -35q0 -16 -22 -67l-115 -310h239q50 0 50 -35 q0 -39 -30 -64.5t-67 -25.5h-237l-125 -333h293q15 0 24 -1.5t17 -10t8 -23.5q0 -38 -29 -64t-63 -26h-297l-127 -347q-28 -73 -82 -73q-45 0 -45 35q0 20 20 67l119 316h-323l-130 -345q-28 -73 -81 -73q-45 0 -45 35q0 16 22 67l119 316h-244q-45 0 -45 34zM449 532h323 l125 336h-322z" />
<glyph unicode="$" d="M102 338q0 81 42 139t122 58q52 0 85.5 -31.5t33.5 -81.5q0 -45 -35 -72.5t-82 -25.5q2 -58 38.5 -104t92.5 -72t115 -39t115 -13v553l-13 4q-178 39 -252 72q-160 72 -186 222q-6 33 -6 69q0 92 40 173t114 140q56 42 130 64.5t173 40.5v149q0 28 3 45t17.5 32t42.5 15 q64 0 64 -92v-149q69 -4 143 -26.5t140.5 -61.5t109.5 -101t43 -135q0 -57 -33.5 -97t-89.5 -40q-45 0 -76.5 28.5t-31.5 71.5q0 45 49 72q-15 50 -58 83.5t-92.5 46.5t-103.5 13v-493l53 -13q4 -1 30 -7t32 -7.5t29.5 -7t32 -8t29.5 -9t31.5 -10.5t28 -11t29.5 -13.5 t26.5 -15t26.5 -17.5q143 -106 143 -287q0 -100 -47.5 -187t-130.5 -143q-96 -67 -313 -110v-160q0 -84 -64 -84q-39 0 -51 21t-12 63v160q-91 2 -181 26t-169 69.5t-128 122t-49 171.5zM344 1049q0 -45 18.5 -80.5t39.5 -56t67 -40.5t69.5 -27t79.5 -21q7 -2 11 -3v467 q-71 1 -135.5 -27.5t-107 -84.5t-42.5 -127zM756 96q120 -5 218.5 72.5t98.5 193.5q0 69 -25.5 118t-74 77t-98.5 41.5t-119 22.5v-525z" />
<glyph unicode="%" horiz-adv-x="1761" d="M53 967q0 96 21 177.5t64 147.5t116.5 104t169.5 38q88 0 156.5 -37.5t108.5 -101.5t60.5 -140.5t20.5 -161.5q0 -82 -18 -168.5t-54 -148.5q-47 -75 -124.5 -116.5t-167.5 -41.5q-92 0 -162 37t-110.5 101t-60.5 142t-20 169zM180 956q0 -60 11 -114t35 -104t69.5 -79.5 t107.5 -29.5q69 0 118.5 32.5t74.5 88t36 114t11 125.5q0 66 -10.5 121t-35 105t-71.5 79t-114 29q-69 0 -117.5 -33.5t-72 -91.5t-33 -116t-9.5 -126zM387 -35q0 10 16 37l852 1405q21 35 28 40t44 5q5 0 18 0.5t16.5 0t11.5 -1.5t8.5 -4t1.5 -8t-2.5 -13t-10.5 -19 l-856 -1417q-21 -34 -26.5 -37.5t-41.5 -3.5q-3 0 -11.5 -1t-15.5 -1t-15 1t-12.5 5t-4.5 12zM999 399q0 96 21 177.5t64.5 147.5t117 103t170.5 37q87 0 155 -37t108 -99.5t60.5 -139t20.5 -162.5q0 -202 -71 -315q-47 -77 -125 -119.5t-168 -42.5q-74 0 -134 25t-100 67.5 t-67.5 100.5t-39.5 122t-12 135zM1126 387q0 -46 6.5 -90t22.5 -88t40.5 -76.5t64.5 -53t90 -20.5q56 0 99 22.5t69 57.5t42.5 84t22.5 96.5t6 100.5q0 66 -10.5 121.5t-34.5 105.5t-71 78.5t-113 28.5q-57 0 -100 -23.5t-68 -59t-40.5 -86.5t-20.5 -98t-5 -100z" />
<glyph unicode="&#x26;" horiz-adv-x="1761" d="M104 365q0 89 24.5 159t75 125t108 95t143.5 85q-3 7 -17 37.5t-17.5 39t-15.5 35.5t-15.5 38t-12 34.5t-11 38.5t-7 36.5t-6 41t-1.5 39.5q0 55 27 106.5t70 88.5q84 70 219 70q90 0 161 -27t117.5 -90t46.5 -154q0 -67 -26 -127t-72.5 -109t-95 -85t-109.5 -72 l234 -350l14 -19l23 60l63 168q24 66 48.5 118.5t62.5 109.5t80.5 95t103 63t129.5 25q125 0 207 -69.5t82 -192.5q0 -109 -73.5 -186.5t-180.5 -77.5q-74 0 -130.5 36t-56.5 105q0 45 24.5 74t68.5 29q27 0 49 -19t22 -45q0 -21 -8 -37q20 -4 33 -4q42 0 70 34.5t28 78.5 q0 65 -40.5 101t-106.5 36q-67 0 -113 -41t-84 -112l-119 -287q-5 -13 -18 -46t-20 -51.5t-19.5 -44.5t-24.5 -47q42 -47 67.5 -72t63 -51.5t79.5 -37.5t95 -11q20 0 57.5 4.5t55.5 4.5q34 0 59 -20t25 -54q0 -35 -23 -55.5t-59 -20.5h-147q-60 1 -85.5 3t-64.5 13.5 t-80 34.5q-67 42 -145 123q-72 -92 -176.5 -139t-224.5 -47q-187 0 -309 115.5t-122 300.5zM285 371q0 -124 74.5 -197.5t197.5 -73.5q85 0 158.5 42t120.5 114l-101 137q-43 57 -114 169.5t-86 135.5q-116 -39 -183 -123.5t-67 -203.5zM528 1157q0 -14 1.5 -28.5t6 -31 t7.5 -28t11.5 -31t11.5 -28t14.5 -30t14 -26t15 -28t13.5 -25.5q88 40 144 103.5t56 150.5q0 61 -41.5 100t-103.5 39q-67 0 -108.5 -35t-41.5 -102z" />
<glyph unicode="'" horiz-adv-x="901" d="M389 1370q0 64 62 64q61 0 61 -64l-4 -498q0 -18 -3 -28.5t-16 -19.5t-38 -9q-36 0 -47 15t-11 42z" />
<glyph unicode="(" horiz-adv-x="942" d="M141 561q0 157 62.5 306.5t173.5 265.5q112 115 256 190q48 24 122.5 53t108.5 29q11 0 21 -8.5t10 -20.5q0 -11 -11 -22t-18.5 -14.5t-23.5 -10.5q-105 -47 -209 -124.5t-172 -162.5q-81 -100 -123.5 -225.5t-42.5 -255.5q0 -251 145 -452q65 -87 175.5 -175.5 t209.5 -132.5q1 -1 17.5 -7t25 -10.5t18 -13.5t9.5 -18q0 -11 -14.5 -18.5t-28.5 -7.5q-47 0 -147.5 44t-157.5 80q-187 119 -296.5 307t-109.5 404z" />
<glyph unicode=")" horiz-adv-x="942" d="M53 -248q0 6 3.5 12.5t7.5 10.5t12.5 9t12.5 7t13.5 6t10.5 4q97 42 209 132t176 176q145 201 145 452q0 130 -42.5 255.5t-123.5 225.5q-69 85 -173.5 162.5t-207.5 124.5q-43 19 -43 47q0 29 21 29q33 0 105 -28t126 -54q146 -76 254 -190q112 -117 175 -266t63 -306 q0 -216 -109.5 -404t-296.5 -307q-57 -36 -157.5 -80t-147.5 -44q-13 0 -23 7.5t-10 18.5z" />
<glyph unicode="*" horiz-adv-x="983" d="M139 883q0 59 113 96l158 51v23l-168 57q-29 10 -48 19.5t-36 29.5t-17 47t19.5 44.5t46.5 17.5q48 0 100 -49l133 -119l17 12l-35 170q-8 46 -8 57q0 39 17 67t54 28t54.5 -25.5t17.5 -65.5q0 -21 -10 -59l-35 -172l18 -12l132 123q20 19 31.5 28t31.5 18t41 9 q28 0 48 -15.5t20 -43.5q0 -22 -9 -39.5t-27.5 -29.5t-32 -18.5t-38.5 -15.5l-168 -63v-23l178 -57q101 -28 101 -90q0 -29 -20 -48.5t-48 -19.5q-15 0 -28 4t-30.5 15.5t-22.5 15t-25 20.5l-132 111l-16 -10l35 -168q1 -5 4.5 -23.5t3.5 -27.5q0 -40 -18 -71.5t-54 -31.5 q-35 0 -53 25.5t-18 62.5q0 20 8 66l33 166l-15 12l-137 -119q-55 -47 -96 -47q-29 0 -49.5 19.5t-20.5 48.5z" />
<glyph unicode="+" horiz-adv-x="1269" d="M104 477v156h439v436h155v-436h439v-156h-439v-442h-155v442h-439z" />
<glyph unicode="," horiz-adv-x="696" d="M180 80q0 63 43 102t107 39q78 0 122 -64t44 -145q0 -67 -25 -143.5t-65 -138.5q-1 -2 -11.5 -17t-16.5 -23t-17.5 -23.5t-20.5 -24.5t-20.5 -19t-22.5 -15t-21 -5q-15 0 -27.5 13t-12.5 28q0 13 33 61t66.5 109.5t33.5 105.5q0 10 -3.5 17t-6 10t-12.5 4.5t-13 1.5h-17 q-137 0 -137 127z" />
<glyph unicode="-" horiz-adv-x="655" d="M70 553q0 44 30 59t78 15h299q109 0 109 -74q0 -76 -109 -76h-299q-31 0 -52 4.5t-38.5 22t-17.5 49.5z" />
<glyph unicode="." horiz-adv-x="696" d="M205 109q0 54 39 92.5t94 38.5q54 0 92.5 -38.5t38.5 -92.5q0 -55 -38.5 -94.5t-92.5 -39.5q-55 0 -94 39t-39 95z" />
<glyph unicode="/" horiz-adv-x="1064" d="M141 -131q0 11 15 41l327 823l197 512l86 236q14 45 25.5 53t53.5 8h13q3 0 14 1t17.5 0.5t15 -2t13 -7.5t4.5 -16q0 -6 -10.5 -32.5t-23.5 -56.5t-14 -34l-577 -1495q-11 -37 -26.5 -45.5t-57.5 -8.5q-2 0 -14 -0.5t-19.5 0t-18 2t-15.5 7t-5 14.5z" />
<glyph unicode="0" d="M98 676q0 134 29.5 269.5t93.5 236.5q77 123 198.5 187.5t268.5 64.5q119 0 215.5 -41.5t160 -110.5t107 -163t62 -195.5t18.5 -210.5q0 -128 -30.5 -269.5t-90.5 -238.5q-77 -124 -200.5 -190t-270.5 -66q-132 0 -244 57.5t-186 165.5q-68 100 -99.5 234t-31.5 270z M287 668q0 -239 71 -371q48 -90 126.5 -140.5t177.5 -50.5q95 0 168 39.5t116 100.5t70.5 145.5t37 163t9.5 164.5q0 82 -9.5 155.5t-36 149t-68.5 129.5t-112 88.5t-161 34.5q-68 0 -124.5 -21t-96 -55.5t-70 -84t-49 -102t-30 -115t-15.5 -117.5t-4 -113z" />
<glyph unicode="1" d="M313 51q0 30 18.5 50t47.5 20q17 0 49 -5t49 -5q68 0 89.5 42t21.5 162v627q0 10 0.5 44.5t0 57.5t-1 54.5t-3 56t-6.5 41.5q-17 76 -101 76q-17 0 -49 -5t-49 -5q-29 0 -47.5 19.5t-18.5 49.5q0 74 62 74q27 0 83 -11.5t85 -11.5q28 0 82 11.5t80 11.5q34 0 49.5 -14.5 t15.5 -49.5q0 -14 -3 -39.5t-3 -37.5v-936q0 -129 22.5 -173t87.5 -44q16 0 49 5t50 5q29 0 47 -20t18 -50q0 -35 -26 -54.5t-62 -19.5q-48 0 -136.5 11.5t-141.5 11.5q-54 0 -143.5 -11.5t-131.5 -11.5q-33 0 -58.5 19.5t-25.5 54.5z" />
<glyph unicode="2" d="M102 174q0 91 31 168t80 132t121.5 102t141.5 77t155 58l104 32q60 20 104 41t86 52t64.5 74.5t22.5 97.5q0 97 -49.5 162.5t-124 92.5t-168.5 27q-146 0 -238 -61q-36 -23 -67 -60t-31 -73q0 -14 17 -22t38 -12t38 -25.5t17 -59.5q0 -53 -41 -91t-96 -38 q-75 0 -117.5 50.5t-42.5 127.5q0 92 48.5 170.5t130.5 136.5q71 48 167 74.5t187 26.5q205 0 342 -95q170 -122 170 -327q0 -78 -34 -151t-101 -128q-21 -17 -48 -33.5t-47.5 -27t-57.5 -24.5t-53 -19.5t-59 -19.5t-53 -17q-175 -59 -244 -92q-218 -103 -231 -250l4 -4 q83 102 230 102q60 0 117 -24t101 -58t86 -67.5t89.5 -57.5t95.5 -24q61 0 96 43t35 104q0 16 -10 39q-24 -35 -70 -35q-41 0 -67.5 24t-26.5 66q0 52 37 82.5t90 30.5q87 0 130.5 -59t43.5 -152q0 -78 -34.5 -148.5t-99.5 -116.5t-144 -46q-64 0 -122.5 24.5t-104.5 59.5 t-92 70.5t-102.5 60t-117.5 24.5q-55 0 -97 -20t-52 -66q4 0 11 1t11 1q26 0 45 -16t19 -43q0 -42 -29.5 -69t-71.5 -27q-44 0 -77 20t-50.5 53.5t-26 71.5t-8.5 80z" />
<glyph unicode="3" d="M109 356q0 92 54.5 162t145.5 70q54 0 87.5 -33.5t33.5 -87.5q0 -50 -31 -75t-80 -25q-20 0 -28 -5t-8 -24q0 -38 33 -85.5t69 -74.5q114 -84 283 -84q170 0 283.5 97.5t113.5 265.5q0 122 -80 196q-74 72 -229 72l-119 -10q-7 -1 -40 -7t-50 -6q-23 0 -36 17t-13 41 q0 10 6 21.5t13 19t18 18.5t14 15l385 395h-428q-7 0 -29 0.5t-32 0.5t-30 -2t-30.5 -5.5t-25 -10.5t-22 -17t-13 -26t-5.5 -36q0 -19 3.5 -59t3.5 -62q0 -90 -76 -90q-34 0 -51 26.5t-17 63.5v284q0 53 20.5 75t73.5 22h809q127 0 127 -76q0 -31 -69 -100l-355 -355h35 q188 0 304 -111.5t116 -297.5q0 -110 -45.5 -207t-128.5 -166q-80 -67 -188.5 -99t-223.5 -32q-74 0 -149 15t-147.5 47.5t-128 78.5t-89.5 115t-34 151z" />
<glyph unicode="4" d="M59 492q0 28 43 88l494 659q30 41 51 66t55 59.5t70 52t72 17.5q32 0 54 -10.5t34 -25.5t19 -40t8.5 -46t1.5 -52v-703h206q95 0 95 -72q0 -45 -25.5 -60t-73.5 -15h-202v-109q0 -107 20 -144.5t74 -37.5q14 0 57 4t78 4q28 0 46.5 -23t18.5 -53q0 -35 -25.5 -54.5 t-58.5 -19.5q-55 0 -139 11.5t-135 11.5q-53 0 -139 -11.5t-135 -11.5q-140 0 -140 74q0 30 19 53t47 23q37 0 80.5 -4t58.5 -4q50 0 73 42.5t23 131.5v117h-598q-60 0 -80 8q-20 9 -33.5 30t-13.5 44zM268 557h516v686h-4z" />
<glyph unicode="5" d="M131 311q0 75 46 130t118 55q54 0 89.5 -30.5t35.5 -82.5q0 -36 -23 -64.5t-57 -29.5q-25 0 -25 -8q0 -24 17 -50.5t37 -44.5q48 -43 135 -67.5t162 -24.5q148 0 266 92q133 103 133 277q0 160 -94.5 249t-257.5 89q-196 0 -312 -113q-8 -7 -23 -21.5t-23 -21.5 t-21.5 -16t-27.5 -13t-30 -4q-80 0 -75 125l30 418q7 165 13 188q12 50 90 50h680q62 0 79 -30t17 -122q0 -44 12.5 -92t12.5 -70q0 -30 -21 -49.5t-51 -19.5q-70 0 -70 100q0 65 -30 92t-99 27h-389q-49 0 -63 -9.5t-17 -43.5l-28 -345q87 62 172 88.5t192 26.5 q96 0 188.5 -26t159.5 -80q76 -61 117 -157.5t41 -199.5q0 -127 -47 -229.5t-128.5 -168.5t-189 -101t-231.5 -35q-187 0 -328 84q-81 50 -131.5 121.5t-50.5 156.5z" />
<glyph unicode="6" d="M113 608q0 122 19.5 236t66.5 222.5t116 189t177 129.5t241 49q157 0 271 -70q69 -40 111 -99t42 -132q0 -61 -39.5 -103.5t-97.5 -42.5q-44 0 -75.5 33t-31.5 78q0 30 15 53.5t43 30.5q-26 57 -100.5 84.5t-149.5 27.5q-89 0 -162 -37t-120 -95.5t-81 -138t-50 -157.5 t-21 -161l4 -5q58 118 173.5 174t258.5 56q142 0 258 -57t185 -166t69 -250q0 -153 -75.5 -270t-200.5 -177.5t-277 -60.5q-265 0 -424 188q-145 172 -145 471zM328 440q0 -156 99.5 -252t258.5 -96q168 0 266 103q47 49 74 114.5t27 130.5q0 158 -100.5 247t-266.5 89 q-162 0 -260 -90t-98 -246z" />
<glyph unicode="7" d="M168 870q4 35 7 74t6 86.5t5 73.5q0 42 -8.5 122t-9.5 117q4 91 76 91q30 0 45.5 -22t15.5 -54q0 -9 -12 -78l4 -4q39 70 83 106.5t114 36.5q52 0 97.5 -16t72.5 -34t79 -58q44 -34 73.5 -54.5t78.5 -43.5t86 -23q34 0 70 16.5t41 46.5q-36 -9 -65.5 16t-29.5 64 q0 38 32 67.5t69 29.5q40 0 69 -16t44.5 -44.5t22.5 -61t7 -71.5q0 -130 -80 -254q-12 -18 -23 -33t-24.5 -30.5t-21.5 -24.5t-25.5 -25t-24 -21.5t-29.5 -25.5t-30 -26q-155 -136 -207 -254q-29 -67 -46 -165t-17 -179q0 -20 2 -57.5t2 -57.5q0 -57 -25 -96t-80 -39 q-108 0 -108 172q0 106 26.5 236t73.5 225q36 74 101 149.5t111 116t138 117.5q4 3 20.5 16.5t23 19.5t21 18.5t21.5 21.5t16 21.5t14 24.5t7 25l-4 4q-27 -30 -74.5 -45.5t-95.5 -15.5q-69 0 -129 20.5t-101.5 49.5t-77.5 58t-73.5 49.5t-72.5 20.5q-140 0 -140 -178 q0 -35 12.5 -103.5t12.5 -103.5t-25.5 -59.5t-60.5 -24.5t-59 25.5t-21 60.5z" />
<glyph unicode="8" d="M117 403q0 139 77 237.5t214 145.5q-197 98 -197 271q0 93 43.5 167.5t114 119t153 67.5t168.5 23q84 0 162.5 -21.5t144 -63t105 -112.5t39.5 -162q0 -105 -55.5 -174.5t-161.5 -114.5q137 -43 223 -145t86 -238q0 -101 -47.5 -190t-128.5 -150q-78 -57 -182 -85.5 t-209 -28.5q-82 0 -160 17t-149 54t-124 89.5t-84.5 128t-31.5 165.5zM301 416q0 -81 32 -144t87 -100t122.5 -55.5t143.5 -18.5q97 0 176.5 34t130.5 107.5t51 174.5q0 60 -21.5 109.5t-58 83t-86 56.5t-102.5 33.5t-110 10.5q-160 0 -258 -80q-48 -42 -77.5 -98.5 t-29.5 -112.5zM389 1063q0 -50 26 -89t68.5 -61t90 -33.5t96.5 -11.5q72 0 135 19.5t109.5 68.5t46.5 121q0 53 -26.5 94t-69.5 65t-90.5 36t-96.5 12q-70 0 -133.5 -21.5t-109.5 -73.5t-46 -126z" />
<glyph unicode="9" d="M133 924q0 222 152.5 366t378.5 144q116 0 210.5 -37.5t157.5 -102t106 -152.5t62 -185.5t19 -204.5q0 -124 -20.5 -237t-67.5 -217.5t-117.5 -181t-178 -122t-241.5 -45.5q-70 0 -143.5 18.5t-140.5 54.5t-109.5 97.5t-42.5 138.5q0 60 38.5 100.5t98.5 40.5 q41 0 74.5 -31t33.5 -73q0 -31 -16 -55.5t-45 -34.5q28 -59 108 -89t156 -30q92 0 166.5 35.5t122.5 92.5t81 135t47.5 157t16.5 164l-4 4q-52 -108 -168 -161.5t-250 -53.5q-210 0 -347.5 129t-137.5 336zM322 934q0 -148 89 -236t240 -88q158 0 254 85.5t96 238.5 q0 155 -92 252.5t-250 97.5q-155 0 -246 -99t-91 -251z" />
<glyph unicode=":" horiz-adv-x="696" d="M205 109q0 54 39 92.5t94 38.5q54 0 92.5 -38.5t38.5 -92.5q0 -55 -38.5 -94.5t-92.5 -39.5q-55 0 -94 39t-39 95zM205 799q0 55 38.5 94t94.5 39q54 0 92.5 -39t38.5 -94t-38.5 -93t-92.5 -38q-56 0 -94.5 38t-38.5 93z" />
<glyph unicode=";" horiz-adv-x="696" d="M180 80q0 63 43 102t107 39q78 0 122 -64t44 -145q0 -67 -25 -143.5t-65 -138.5q-1 -2 -11.5 -17t-16.5 -23t-17.5 -23.5t-20.5 -24.5t-20.5 -19t-22.5 -15t-21 -5q-15 0 -27.5 13t-12.5 28q0 13 33 61t66.5 109.5t33.5 105.5q0 10 -3.5 17t-6 10t-12.5 4.5t-13 1.5h-17 q-137 0 -137 127zM190 799q0 54 39.5 92.5t94.5 38.5q54 0 92.5 -38t38.5 -93t-38.5 -94t-92.5 -39q-56 0 -95 39t-39 94z" />
<glyph unicode="&#x3c;" horiz-adv-x="1269" d="M100 487v131l1043 476v-150l-848 -391l848 -391v-150z" />
<glyph unicode="=" horiz-adv-x="1269" d="M104 276v154h1033v-154h-1033zM104 676v153h1033v-153h-1033z" />
<glyph unicode="&#x3e;" horiz-adv-x="1269" d="M98 12v150l848 391l-848 391v150l1043 -476v-131z" />
<glyph unicode="?" horiz-adv-x="1228" d="M78 1030q0 94 45.5 172.5t126.5 134.5q71 48 168.5 72.5t193.5 24.5q91 0 185.5 -21t160.5 -63q82 -51 128.5 -134t46.5 -178q0 -75 -24.5 -135.5t-71.5 -105.5t-99 -76t-125 -62q-44 -19 -66 -29t-55.5 -31t-49.5 -41.5t-29 -53t-13 -72.5q0 -25 -2 -40t-9 -33 t-23 -26.5t-42 -8.5q-92 0 -92 102q0 67 21.5 121.5t64.5 96.5t87 71.5t110 64.5q108 57 139 80q99 76 100 189q0 66 -31 116.5t-82.5 78.5t-109.5 42t-121 14q-139 0 -231 -53q-62 -34 -102.5 -85.5t-40.5 -114.5q0 -62 53 -89l-2 19q0 32 25 51t59 19q40 0 64 -28t24 -67 q0 -65 -52.5 -102t-119.5 -37q-92 0 -150.5 63.5t-58.5 153.5zM406 109q0 54 39 92.5t94 38.5q54 0 92.5 -38.5t38.5 -92.5q0 -55 -38.5 -94.5t-92.5 -39.5q-55 0 -94 39t-39 95z" />
<glyph unicode="@" horiz-adv-x="1515" d="M45 590q0 170 68.5 326t183 269.5t272.5 181t330 67.5q123 0 230 -38.5t186 -108.5t124.5 -173.5t45.5 -226.5q0 -208 -131 -389q-62 -91 -149.5 -152t-184.5 -61q-53 0 -95 28t-42 78q0 13 6 25l-4 4q-33 -60 -113 -96.5t-156 -36.5q-120 0 -185.5 76.5t-65.5 197.5 q0 96 41 191.5t109 168.5t162 118.5t193 45.5q54 0 127 -18q24 -12 52 -12q15 0 45 13t45 13q37 0 37 -28q0 -6 -4 -22.5t-5 -20.5l-14 -52l-121 -438q-12 -36 -12 -67q0 -45 45 -45q41 0 90 39t78 81q45 71 70.5 162t25.5 176q0 196 -124.5 324.5t-321.5 128.5 q-111 0 -216 -39.5t-187 -109t-144 -159.5t-95.5 -196t-33.5 -213q0 -148 64.5 -268.5t183.5 -191t268 -70.5q213 0 426 151q59 37 76 37q20 0 32.5 -11.5t12.5 -31.5q0 -55 -144 -145q-202 -123 -424 -123q-183 0 -333.5 82.5t-237 230t-86.5 328.5zM524 569 q0 -69 35.5 -110t104.5 -41q60 0 108.5 28t80.5 78t51.5 97.5t35.5 107.5l57 203q-69 37 -137 37q-98 0 -177 -62t-119 -152.5t-40 -185.5z" />
<glyph unicode="A" horiz-adv-x="1597" d="M-18 51q0 30 18 50t47 20q23 0 52 -4t40 -4q42 0 64 43q15 23 55 129l375 1009q24 62 51.5 86.5t89.5 24.5q59 0 86 -25t49 -86l363 -997q30 -92 57 -133q21 -31 43 -42t60 -11q15 0 49.5 4t54.5 6q29 0 47.5 -20t18.5 -50q0 -35 -26.5 -54.5t-62.5 -19.5 q-21 0 -118.5 11.5t-155.5 11.5t-155.5 -11.5t-118.5 -11.5q-117 0 -117 74q0 30 18 50t47 20q35 -1 79 -5.5t61 -4.5q27 0 46 14.5t19 40.5q0 16 -24 80l-56 155q-24 59 -36 68.5t-62 9.5h-20h-318q-41 0 -56 -2.5t-30.5 -17.5t-28.5 -51l-61 -162q-16 -50 -16 -70 q0 -65 77 -65q18 0 59.5 5t71.5 5q29 0 47.5 -20t18.5 -50q0 -35 -26 -54.5t-62 -19.5q-21 0 -118.5 11.5t-155.5 11.5t-156 -11.5t-119 -11.5t-43 20.5t-22 53.5zM576 624q6 -6 51 -6h276h9h8h6q5 0 12 1t10.5 5t3.5 11q0 13 -8 37l-178 553h-4l-180 -553q-8 -27 -8 -39 q0 -7 2 -9z" />
<glyph unicode="B" horiz-adv-x="1474" d="M35 51q0 30 18 50t47 20q16 0 49 -5t50 -5q83 0 100 75q4 17 6.5 41.5t3 56t1 54.5t0 57.5t-0.5 44.5v502q0 10 0.5 44.5t0 57.5t-1 54.5t-3 56t-6.5 41.5q-17 76 -100 76q-17 0 -50 -5t-49 -5q-29 0 -47 19.5t-18 49.5q0 34 23 54t65 20q35 0 124.5 -11.5t170.5 -11.5 q91 0 224.5 11.5t195.5 11.5q205 0 315 -66q74 -45 113 -117t39 -161q0 -112 -67 -189.5t-177 -107.5v-4q145 -39 230 -130t85 -235q0 -96 -46.5 -178t-127.5 -143q-136 -97 -379 -97q-76 0 -207.5 11.5t-212.5 11.5q-69 0 -168.5 -11.5t-125.5 -11.5q-67 0 -74 74zM484 274 q0 -12 2 -36t5.5 -38.5t11 -29.5t17.5 -23q26 -21 85 -31t92.5 -11t93.5 -1q190 0 282 64q115 80 115 240q0 270 -408 270h-125q-108 0 -135 -18t-32 -79q-2 -19 -3 -75v-166q-1 -4 -1 -29v-21.5v-15.5zM485 1040q0 -139 5 -164q8 -44 44 -55q30 -10 154 -10q46 0 79.5 1 t82 6.5t83 15t72.5 28t62 43.5t39.5 64t15.5 88q0 66 -27.5 111.5t-77 67t-100 30t-114.5 8.5q-139 0 -244 -21q-31 -7 -47 -18.5t-23 -38.5q-4 -21 -4 -156z" />
<glyph unicode="C" d="M76 672q0 139 35 275.5t108 238.5q84 119 211.5 183.5t274.5 64.5q251 0 380 -172l5 4q-1 11 -5 44t-4 50q0 30 18 50t48 20q35 0 53.5 -25.5t18.5 -63.5q0 -41 -7.5 -124.5t-7.5 -124.5q0 -46 7.5 -116t7.5 -99q0 -40 -21.5 -60t-56.5 -20q-52 0 -66 25t-14 102 q0 68 -9.5 118.5t-41.5 100.5q-45 72 -125.5 109.5t-171.5 37.5q-99 0 -177.5 -35t-128.5 -92.5t-83 -136t-46.5 -160.5t-13.5 -172q0 -89 13.5 -171t47 -162t84 -138.5t130 -94.5t178.5 -36q91 0 173 34.5t134 102.5q68 89 68 228q0 46 17.5 71t61.5 25q86 0 86 -94 q0 -153 -75 -270t-200.5 -178.5t-279.5 -61.5q-124 0 -228 39t-176.5 106.5t-123 159.5t-74.5 197.5t-24 220.5z" />
<glyph unicode="D" horiz-adv-x="1515" d="M35 51q0 30 18 50t47 20q16 0 49 -5t50 -5q83 0 100 75q4 17 6.5 41.5t3 56t1 54.5t0 57.5t-0.5 44.5v502q0 215 -10 254q-17 76 -100 76q-17 0 -50 -5t-49 -5q-29 0 -47 19.5t-18 49.5t24.5 52t63.5 22q40 0 120 -11.5t146 -11.5q72 0 189.5 11.5t189.5 11.5 q327 0 502 -193q88 -97 133 -236t45 -282q0 -145 -40 -279.5t-124 -236.5q-86 -105 -220.5 -153t-287.5 -48q-72 0 -187.5 11.5t-191.5 11.5q-61 0 -143 -11.5t-123 -11.5q-42 0 -69 19.5t-27 54.5zM485 279q0 -79 6.5 -103t28.5 -35q51 -26 236 -26q140 0 232 34t163 134 q109 151 109 397q0 280 -134 434q-70 82 -168.5 110.5t-228.5 28.5q-114 0 -158.5 -7t-64.5 -23q-12 -12 -16.5 -36t-4.5 -91v-817z" />
<glyph unicode="E" horiz-adv-x="1392" d="M35 51q0 30 18 50t47 20q16 0 49 -5t50 -5q83 0 100 75q10 43 10 254v502q0 10 0.5 44.5t0 57.5t-1 54.5t-3 56t-6.5 41.5q-17 76 -100 76q-17 0 -50 -5t-49 -5q-29 0 -47 19.5t-18 49.5q0 35 26 54.5t62 19.5q43 0 155 -11.5t197 -11.5q129 0 357 11t335 12 q55 0 82 -22.5t27 -75.5q0 -38 -8 -113t-8 -113q0 -35 8 -101.5t8 -100.5t-22 -56t-56 -22q-45 0 -60.5 31.5t-15.5 119.5q0 132 -7 179.5t-38 80.5q-24 26 -83.5 34.5t-241.5 8.5q-116 0 -160.5 -5t-69.5 -23q-22 -15 -29.5 -44t-7.5 -102v-166q0 -36 0.5 -47.5t4.5 -23.5 t14 -19q4 -3 8 -5t9.5 -3.5t10 -2.5t12 -1.5t12 -1t15 -0.5h15.5h18h19q98 0 137 20t39 72q0 22 -6.5 66t-6.5 65q0 38 19 62t55 24q39 0 58.5 -26.5t19.5 -67.5q0 -11 -11 -115q-9 -88 -9 -162v-26v-25q0 -70 9 -150q11 -95 11 -118q0 -33 -21.5 -52.5t-54.5 -19.5 q-76 0 -76 88q0 23 6.5 68.5t6.5 67.5q0 53 -33 71.5t-131 18.5q-47 0 -62.5 -0.5t-35 -4t-31.5 -12.5q-12 -10 -16.5 -33.5t-4.5 -86.5v-152l7 -143q3 -79 33 -100t139 -21h241q71 0 113.5 6t76 24.5t47 54t13.5 93.5q0 31 -6 92t-6 92q0 41 19 69t59 28q79 0 79 -95 q0 -35 -4 -103.5t-4 -103.5q0 -34 4 -102t4 -102q0 -95 -133 -95q-107 0 -335 11.5t-357 11.5q-85 0 -197 -11.5t-155 -11.5q-41 0 -64.5 19t-23.5 55z" />
<glyph unicode="F" horiz-adv-x="1310" d="M35 49q0 74 90 74q19 0 50.5 -4t47.5 -4q25 0 46.5 17t29.5 54q10 39 10 254v502q0 131 -1.5 171.5t-8.5 82.5q-11 76 -100 76q-17 0 -50 -5t-49 -5q-29 0 -47 19.5t-18 49.5q0 29 25 51.5t63 22.5q43 0 155 -11.5t197 -11.5q129 0 357 11.5t335 11.5q99 0 99 -98 q0 -38 -8.5 -113t-8.5 -113q0 -35 8.5 -101.5t8.5 -100.5t-22 -56t-56 -22q-46 0 -61 31t-15 120v138q0 65 -16 96.5t-58 44.5q-78 24 -293 24h-106q-41 -3 -62.5 -5.5t-41.5 -10.5t-28 -16.5t-14 -30t-7 -44t-1 -65.5v-186q0 -72 13 -92.5t59 -20.5h119q58 0 91.5 22 t33.5 81q0 21 -4 63t-4 64q0 32 20 55t51 23q38 0 56 -23t18 -72q0 -47 -8 -141t-8 -141q0 -49 8 -150t8 -151q0 -35 -22 -57.5t-56 -22.5q-30 0 -49.5 24t-19.5 62q0 23 4 67.5t4 65.5q0 96 -103 96h-116q-60 0 -77.5 -17.5t-17.5 -72.5v-272q0 -90 23 -131t82 -41 q17 0 52 4t54 4q90 0 90 -74q0 -34 -27 -53t-79 -19q-34 0 -112 11.5t-134 11.5q-76 0 -167.5 -11.5t-135.5 -11.5q-42 0 -69 20t-27 52z" />
<glyph unicode="G" horiz-adv-x="1474" d="M76 670q0 135 36 276.5t105 241.5q82 118 210 182t273 64q232 0 379 -160l4 4q-8 46 -8 80q0 32 19.5 49.5t54.5 17.5q31 0 50.5 -22t19.5 -60q0 -39 -7.5 -115t-7.5 -114q0 -54 7.5 -121t7.5 -90q0 -88 -82 -88q-44 0 -63 25.5t-19 77.5v63q0 145 -102 227t-255 82 q-93 0 -168.5 -35.5t-124 -94t-81 -136t-46.5 -158t-14 -164.5q0 -86 13 -168t46 -163.5t82 -142.5t127.5 -98.5t176.5 -37.5q171 0 256.5 98.5t85.5 268.5q0 127 -93 127q-20 0 -60 -4t-60 -4q-29 0 -47.5 20.5t-18.5 50.5q0 32 25.5 53t62.5 21q40 0 124.5 -11.5 t129.5 -11.5q44 0 129 11.5t125 11.5q36 0 62 -19.5t26 -54.5q0 -30 -18 -50.5t-47 -20.5q-11 0 -34 5t-36 5q-54 0 -75 -53t-21 -197q0 -49 7 -147t7 -154q0 -35 -22 -56.5t-56 -21.5q-33 0 -53.5 20.5t-20.5 53.5q0 19 4.5 58.5t4.5 60.5h-4q-57 -103 -168.5 -153 t-241.5 -50q-120 0 -221 40.5t-171 109t-119 161t-72 196.5t-23 214z" />
<glyph unicode="H" horiz-adv-x="1638" d="M35 51q0 30 18 50t47 20q16 0 49 -5t50 -5q83 0 100 75q4 17 6.5 41.5t3 56t1 54.5t0 57.5t-0.5 44.5v502q0 10 0.5 44.5t0 57.5t-1 54.5t-3 56t-6.5 41.5q-17 76 -100 76q-17 0 -50 -5t-49 -5q-29 0 -47 19.5t-18 49.5q0 35 26 54.5t62 19.5q43 0 131.5 -11.5 t142.5 -11.5q55 0 146.5 11.5t128.5 11.5q36 0 62 -19.5t26 -54.5q0 -30 -18.5 -49.5t-47.5 -19.5q-16 0 -49 5t-49 5q-83 0 -100 -76q-11 -54 -11 -254v-135h662v135q0 10 0.5 44.5t0 57.5t-1 54.5t-3 56t-6.5 41.5q-17 76 -101 76q-16 0 -48.5 -5t-49.5 -5 q-29 0 -47.5 19.5t-18.5 49.5q0 35 26.5 54.5t62.5 19.5q38 0 128.5 -11.5t145.5 -11.5t147 11.5t127 11.5q36 0 62 -19.5t26 -54.5q0 -30 -18 -49.5t-47 -19.5q-16 0 -49 5t-49 5q-84 0 -101 -76q-10 -49 -10 -254v-502q0 -10 -0.5 -44.5t0 -57.5t1 -54.5t3 -56t6.5 -41.5 q20 -75 101 -75q16 0 49 5t49 5q29 0 47 -20t18 -50q0 -35 -26 -54.5t-62 -19.5q-48 0 -134.5 11.5t-139.5 11.5q-51 0 -133.5 -11.5t-140.5 -11.5q-36 0 -62.5 19.5t-26.5 54.5q0 30 18.5 50t47.5 20q17 0 49.5 -5t48.5 -5q84 0 101 75q4 17 6.5 41.5t3 56t1 54.5t0 57.5 t-0.5 44.5v222h-662v-222q0 -200 11 -254q17 -75 100 -75q16 0 49 5t49 5q29 0 47.5 -20t18.5 -50q0 -35 -26 -54.5t-62 -19.5q-48 0 -135 11.5t-140 11.5t-139.5 -11.5t-134.5 -11.5q-40 0 -64 19t-24 55z" />
<glyph unicode="I" horiz-adv-x="778" d="M35 51q0 30 18 50t47 20q16 0 49 -5t50 -5q83 0 100 75q4 17 6.5 41.5t3 56t1 54.5t0 57.5t-0.5 44.5v502q0 10 0.5 44.5t0 57.5t-1 54.5t-3 56t-6.5 41.5q-17 76 -100 76q-17 0 -50 -5t-49 -5q-29 0 -47 19.5t-18 49.5q0 35 26 54.5t62 19.5q45 0 133 -11.5t141 -11.5 q55 0 145 11.5t130 11.5q36 0 62 -19.5t26 -54.5q0 -30 -18.5 -49.5t-47.5 -19.5q-16 0 -49 5t-49 5q-83 0 -100 -76q-11 -54 -11 -254v-502q0 -208 11 -254q20 -75 100 -75q16 0 49 5t49 5q29 0 47.5 -20t18.5 -50q0 -35 -26 -54.5t-62 -19.5q-48 0 -135 11.5t-140 11.5 t-139 -11.5t-135 -11.5q-36 0 -62 19.5t-26 54.5z" />
<glyph unicode="J" horiz-adv-x="1269" d="M-41 365q0 132 85.5 223.5t215.5 91.5q85 0 143 -46t58 -128q0 -46 -33.5 -85.5t-79.5 -39.5q-39 0 -70.5 25t-31.5 63q0 36 28 55q-17 11 -34 11q-48 0 -80.5 -53.5t-32.5 -104.5q0 -128 95 -206.5t224 -78.5q217 0 308 148q24 39 38.5 82t19.5 101t6 86t1 99v334 q0 10 0.5 44.5t0 57.5t-1 54.5t-3 56t-6.5 41.5q-17 76 -100 76q-17 0 -50 -5t-49 -5q-29 0 -47 19.5t-18 49.5q0 34 24.5 54t55.5 20q42 0 131 -11.5t143 -11.5q53 0 139 11.5t136 11.5q42 0 69 -19.5t27 -54.5q0 -30 -18.5 -49.5t-47.5 -19.5q-16 0 -49 5t-49 5 q-83 0 -100 -76q-11 -46 -11 -254v-127q0 -24 1 -105q2 -60 2 -104v-28q-1 -52 -4.5 -124t-14.5 -128t-29 -95q-64 -136 -197.5 -209t-291.5 -73q-98 0 -186 26t-159.5 75.5t-114 131t-42.5 183.5z" />
<glyph unicode="K" horiz-adv-x="1638" d="M35 51q0 30 18 50t47 20q16 0 49 -5t50 -5q83 0 100 75q4 17 6.5 41.5t3 56t1 54.5t0 57.5t-0.5 44.5v502q0 10 0.5 44.5t0 57.5t-1 54.5t-3 56t-6.5 41.5q-17 76 -100 76q-17 0 -50 -5t-49 -5q-29 0 -47 19.5t-18 49.5q0 35 26 54.5t62 19.5q38 0 128.5 -11.5 t145.5 -11.5q53 0 142 11.5t133 11.5q36 0 62 -19.5t26 -54.5q0 -30 -18.5 -49.5t-47.5 -19.5q-16 0 -49 5t-49 5q-80 0 -100 -76q-11 -46 -11 -254v-235l578 489q24 19 32.5 28.5t8.5 22.5q0 25 -39 25q-19 0 -67 -5t-80 -5q-29 0 -47.5 19.5t-18.5 49.5q0 74 119 74 q58 0 153 -11.5t146 -11.5q54 0 142 11.5t132 11.5q36 0 62 -19.5t26 -54.5q0 -30 -18 -49.5t-47 -19.5q-31 0 -73 5t-60 5q-21 0 -41.5 -8t-31 -15.5t-34.5 -27t-31 -25.5l-362 -301q-3 -3 -11 -9.5t-12 -10.5l-9.5 -9.5t-8 -11t-2.5 -10.5q0 -3 0.5 -6.5t2 -7t3 -6.5t5 -8 t5.5 -8.5t7 -10.5t8 -11l34 -49l336 -456l103 -127q20 -25 39 -34t51 -9q12 0 46 5t60 5q29 0 47.5 -20t18.5 -50q0 -35 -26 -54.5t-62 -19.5t-128 11.5t-147 11.5q-54 0 -143 -11.5t-131 -11.5q-80 0 -116 18t-36 56q0 30 18.5 50t47.5 20q42 0 101.5 -5t82.5 -5q27 0 39 4 t12 20q0 12 -32 58l-365 493q-23 34 -33 36q-2 1 -4 1q-4 0 -13 -7t-18.5 -15.5t-13.5 -10.5l-205 -178v-72q0 -208 11 -254q20 -75 100 -75q16 0 49 5t49 5q29 0 47.5 -20t18.5 -50q0 -35 -25 -54.5t-63 -19.5q-51 0 -137 11.5t-138 11.5t-137.5 -11.5t-136.5 -11.5 q-36 0 -62 19.5t-26 54.5z" />
<glyph unicode="L" horiz-adv-x="1310" d="M35 47q0 30 19 52t48 22q16 0 49 -7.5t50 -7.5q70 0 90 67t20 267v502q0 10 0.5 44.5t0 57.5t-1 54.5t-3 56t-6.5 41.5q-17 76 -100 76q-17 0 -49.5 -5t-49.5 -5q-29 0 -47 19.5t-18 49.5q0 36 21.5 55t58.5 19q48 0 134.5 -11.5t139.5 -11.5t139 11.5t136 11.5 q42 0 69 -19.5t27 -54.5q0 -30 -18.5 -49.5t-47.5 -19.5q-16 0 -49 5t-49 5q-80 0 -100 -76q-11 -46 -11 -254v-674q0 -100 26 -127.5t118 -27.5h233q148 0 199 26q25 13 40.5 30.5t21 43.5t7 44t1.5 52q0 28 -4.5 86t-4.5 88q0 39 18.5 64.5t55.5 25.5q45 0 66.5 -19 t21.5 -62q0 -35 -8 -103.5t-8 -103.5q0 -33 8 -96.5t8 -94.5q0 -62 -32 -89.5t-83 -27.5q-127 0 -360.5 10.5t-302.5 12.5h-9q-54 0 -170 -11q-126 -12 -202 -12q-45 0 -68.5 18.5t-23.5 51.5z" />
<glyph unicode="M" horiz-adv-x="1966" d="M35 51q0 30 18 50t47 20q16 0 49 -5t50 -5q83 0 100 75q4 17 6.5 41.5t3 56t1 54.5t0 57.5t-0.5 44.5v502q0 10 0.5 44.5t0 57.5t-1 54.5t-3 56t-6.5 41.5q-17 76 -100 76q-17 0 -50 -5t-49 -5q-29 0 -47 19.5t-18 49.5q0 36 28.5 55t75.5 19q36 0 103 -11.5t108 -11.5 q42 0 111 11.5t100 11.5q30 0 52 -14t37.5 -47t21 -49.5t16.5 -57.5q3 -9 4 -14l287 -1043h4l309 1102q11 37 19.5 58.5t31 43t54.5 21.5q39 0 105 -11.5t106 -11.5q41 0 109 11.5t102 11.5q42 0 69 -19.5t27 -54.5q0 -30 -18.5 -49.5t-47.5 -19.5q-16 0 -48.5 5t-49.5 5 q-83 0 -100 -76q-11 -46 -11 -254v-502q0 -208 11 -254q17 -75 100 -75q17 0 49.5 5t48.5 5q29 0 47.5 -20t18.5 -50q0 -35 -27 -54.5t-69 -19.5q-41 0 -131 11.5t-144 11.5q-52 0 -136.5 -11.5t-137.5 -11.5q-31 0 -55.5 20t-24.5 54q0 30 18 50t47 20q17 0 50 -5t49 -5 q83 0 100 75q4 17 6.5 41.5t3 56t1 54.5t0 57.5t-0.5 44.5v822q-6 0 -18 -37l-346 -1151q-19 -60 -41.5 -81.5t-77.5 -21.5q-68 0 -91 20.5t-42 82.5l-342 1151q-12 37 -21 37v-822q0 -208 11 -254q17 -75 100 -75q16 0 49 5t49 5q29 0 47.5 -20t18.5 -50q0 -74 -88 -74 q-43 0 -132 11.5t-143 11.5q-52 0 -137.5 -11.5t-136.5 -11.5q-36 0 -62 19.5t-26 54.5z" />
<glyph unicode="N" horiz-adv-x="1556" d="M35 51q0 30 18 50t47 20q16 0 49 -5t50 -5q83 0 100 75q4 17 6.5 41.5t3 56t1 54.5t0 57.5t-0.5 44.5v502q0 10 0.5 44.5t0 57.5t-1 54.5t-3 56t-6.5 41.5q-17 76 -100 76q-17 0 -50 -5t-49 -5q-29 0 -47 19.5t-18 49.5q0 36 28.5 55t77.5 19q26 0 86 -11.5t99 -11.5 t101 11.5t91 11.5q13 0 24 -3.5t19 -6.5t17 -13t13.5 -14.5t12.5 -19.5t10 -20t10.5 -24.5t10.5 -23.5l502 -1145h4v807q0 208 -11 254q-17 76 -100 76q-16 0 -49 -5t-49 -5q-29 0 -47.5 19.5t-18.5 49.5q0 36 29 55t78 19q43 0 131.5 -11.5t142.5 -11.5q55 0 148 11.5 t127 11.5q33 0 51 -21t18 -53q0 -30 -18 -49.5t-47 -19.5q-16 0 -49 5t-50 5q-80 0 -100 -76q-6 -21 -8.5 -57.5t-2.5 -64.5t0.5 -75t0.5 -57v-704q0 -31 -0.5 -51t-3.5 -53.5t-9 -55.5t-17.5 -49t-27.5 -42.5t-41 -26.5t-57 -11q-30 0 -55.5 11t-42.5 25.5t-34.5 42 t-27 46.5t-24.5 53l-488 1114h-4v-801q0 -208 11 -254q20 -75 100 -75q16 0 49 5t49 5q29 0 47.5 -20t18.5 -50q0 -36 -29 -55t-78 -19q-45 0 -127 11.5t-135 11.5q-49 0 -131.5 -11.5t-118.5 -11.5q-49 0 -77.5 19t-28.5 55z" />
<glyph unicode="O" horiz-adv-x="1392" d="M76 690q0 120 21.5 227.5t69 203t118 164.5t175 109t232.5 40q292 0 455 -209q71 -93 110 -233t39 -267q0 -131 -31.5 -271.5t-95.5 -240.5q-81 -128 -209 -196t-282 -68q-126 0 -228.5 42t-170.5 112.5t-115 166.5t-67.5 201t-20.5 219zM264 682q0 -244 88 -393 q56 -91 140.5 -144t185.5 -53q114 0 207 62.5t147 167.5q39 76 57.5 185.5t18.5 207.5q0 246 -88 387q-54 89 -138.5 137t-189.5 51q-100 -1 -177 -39t-123.5 -97t-76 -141t-40.5 -162t-11 -169z" />
<glyph unicode="P" d="M35 51q0 30 18 50t47 20q16 0 49 -5t50 -5q83 0 100 75q4 17 6.5 41.5t3 56t1 54.5t0 57.5t-0.5 44.5v502q0 10 0.5 44.5t0 57.5t-1 54.5t-3 56t-6.5 41.5q-17 76 -100 76q-17 0 -50 -5t-49 -5q-29 0 -47 19.5t-18 49.5q0 35 27.5 54.5t70.5 19.5q33 0 117 -11.5 t149 -11.5q101 0 232 11.5t147 11.5q235 0 348 -66q181 -107 181 -333q0 -114 -54.5 -207t-154.5 -142q-57 -28 -137.5 -41.5t-133.5 -15.5t-148 -2h-8h-7.5h-8.5h-116q-30 0 -42 -8.5t-12 -36.5v-113q0 -200 11 -254q17 -75 100 -75q16 0 49 5t49 5q29 0 47.5 -20t18.5 -50 q0 -35 -26 -54.5t-64 -19.5q-34 0 -126.5 11.5t-148.5 11.5q-54 0 -143 -11.5t-131 -11.5q-35 0 -60.5 19.5t-25.5 54.5zM485 784q0 -45 50 -45h196q68 0 117.5 4.5t103.5 21t88 45t56 80t22 122.5q0 80 -37 144.5t-108 88.5q-72 23 -279 23q-161 0 -194 -43 q-15 -21 -15 -140v-301z" />
<glyph unicode="Q" d="M76 676q0 131 30.5 270t92.5 238q73 120 199.5 185t271.5 65q123 0 223.5 -41t167 -110.5t111.5 -164.5t65 -198.5t20 -217.5q0 -101 -16.5 -195t-52 -186t-100 -170.5t-152.5 -130.5v-145q-1 -15 -1 -28q0 -20 2 -36q3 -27 14 -54t36 -41.5t64 -14.5q61 0 81 30.5 t25 96.5q2 22 3 30.5t5.5 26t11 24.5t20 14t32.5 7q50 0 67 -26t17 -78q0 -93 -53 -162q-75 -96 -222 -96q-125 0 -192 67q-64 65 -64 184v7v137q-39 -8 -61 -10q-40 -4 -62 -4q-122 0 -221.5 41.5t-165.5 111.5t-111 164.5t-65 197t-20 212.5zM264 680q0 -245 55 -367 q66 -140 123 -174l4 4q-53 77 -53 183q0 104 85 170.5t192 66.5q68 0 128.5 -32.5t90.5 -90.5q8 -16 14 -35t9.5 -33.5t5.5 -38t2.5 -34.5t1 -38.5t0.5 -35.5v-49q86 100 116.5 234t30.5 295q0 81 -9.5 156.5t-36.5 156t-69 139t-112.5 96t-161.5 37.5q-97 0 -172.5 -38.5 t-120.5 -98.5t-73.5 -143t-39 -163t-10.5 -167zM500 279q0 -79 45.5 -133t122.5 -54q50 0 114 23v137q0 188 -129 188q-70 0 -111.5 -45.5t-41.5 -115.5z" />
<glyph unicode="R" horiz-adv-x="1515" d="M35 51q0 30 18 50t47 20q16 0 49 -5t50 -5q83 0 100 75q4 17 6.5 41.5t3 56t1 54.5t0 57.5t-0.5 44.5v502q0 10 0.5 44.5t0 57.5t-1 54.5t-3 56t-6.5 41.5q-17 76 -100 76q-17 0 -50 -5t-49 -5q-29 0 -47 19.5t-18 49.5q0 35 26 54.5t62 19.5q63 0 170.5 -11.5 t157.5 -11.5q97 0 220 11.5t158 11.5q216 0 314 -64q72 -46 110.5 -123t38.5 -165q0 -154 -81 -233t-238 -105v-4q77 -9 127.5 -35t76 -71.5t35 -99t9.5 -132.5v-99q0 -30 0.5 -44.5t4 -35.5t10.5 -30.5t19.5 -20t33 -14.5t48.5 -4q15 0 47 3t48 3q35 0 58 -19.5t23 -54.5 q0 -33 -22 -56.5t-55 -23.5q-29 0 -85 3.5t-98 3.5q-61 0 -104 21.5t-65.5 61t-32 86t-9.5 105.5v129q0 29 -0.5 42.5t-2 39.5t-6.5 41.5t-13 35t-21.5 34.5t-31.5 26q-39 24 -88 30.5t-197 6.5q-112 0 -154.5 -19t-42.5 -79v-105q0 -201 11 -254q17 -75 100 -75q16 0 49 5 t49 5q29 0 47.5 -20t18.5 -50q0 -35 -26 -54.5t-62 -19.5q-40 0 -130 11.5t-145 11.5q-52 0 -137.5 -11.5t-136.5 -11.5q-36 0 -62 19.5t-26 54.5zM485 838q0 -37 10.5 -45.5t53.5 -8.5h168q198 0 282 43q54 28 79.5 85t25.5 126q0 71 -24.5 120.5t-70 77t-101.5 39 t-128 11.5q-164 0 -229.5 -27.5t-65.5 -87.5v-333z" />
<glyph unicode="S" horiz-adv-x="1228" d="M76 92q0 52 8 123t8 100q0 37 -8 105t-8 98q0 42 21 68t61 26t61 -24.5t21 -65.5q0 -16 -2 -46t-2 -46q0 -159 106 -248.5t266 -89.5q147 0 236 58q53 35 83.5 95t30.5 126q0 40 -9 73t-22.5 57t-38 43t-47 30.5t-57.5 22t-62.5 16t-68.5 12.5q-254 42 -354 92 q-87 43 -137.5 125.5t-50.5 173.5q0 191 147 313q129 105 342 105q217 0 334 -131v28q0 84 63 84q38 0 56 -26t18 -66q0 -35 -8 -103.5t-8 -103.5q0 -36 8 -96.5t8 -83.5q0 -102 -80 -102q-38 0 -60 23.5t-22 60.5q0 16 3 50t3 52q0 70 -26 123t-72 84.5t-103 47t-124 15.5 q-80 0 -146.5 -25.5t-111.5 -84t-45 -140.5q0 -111 79.5 -161t282.5 -84q79 -13 117.5 -20t101 -27.5t107.5 -47.5q160 -99 160 -307q0 -139 -72.5 -242t-186 -152.5t-249.5 -49.5q-260 0 -396 151l-4 -4l6 -71q0 -76 -75 -76q-44 0 -63 31.5t-19 111.5z" />
<glyph unicode="T" horiz-adv-x="1310" d="M35 901q0 36 8 90.5t8 89.5q0 38 -8 113t-8 113q0 98 86 98q65 0 236 -11.5t290 -11.5t291 11.5t236 11.5q86 0 86 -98q0 -38 -8.5 -113t-8.5 -113q0 -35 8.5 -89.5t8.5 -90.5q0 -100 -78 -100q-45 0 -62.5 18.5t-17.5 81.5q0 41 6 109t6 118q0 47 -13 77.5t-41 45 t-57.5 19t-74.5 4.5q-94 0 -137 -25q-56 -33 -56 -141v-668q0 -195 10 -254q14 -75 101 -75q16 0 49 5t49 5q29 0 47.5 -20t18.5 -50q0 -36 -23.5 -55t-62.5 -19q-43 0 -124 11.5t-153 11.5t-152.5 -11.5t-123.5 -11.5q-39 0 -62.5 19t-23.5 55q0 30 18 50t47 20q16 0 49 -5 t50 -5q86 0 100 75q10 59 10 254v668q0 108 -55 141q-43 25 -137 25q-45 0 -74.5 -4.5t-57.5 -19t-41.5 -45t-13.5 -77.5q0 -50 6.5 -118t6.5 -109q0 -63 -17.5 -81.5t-62.5 -18.5q-78 0 -78 100z" />
<glyph unicode="U" horiz-adv-x="1474" d="M-35 1331q0 32 22.5 53t55.5 21q48 0 134.5 -11.5t139.5 -11.5q55 0 145.5 11.5t129.5 11.5q43 0 70.5 -19.5t27.5 -54.5q0 -30 -18 -49.5t-47 -19.5q-17 0 -50 5t-49 5q-86 0 -100 -76q-10 -61 -10 -256v-469q0 -47 1 -73.5t6 -69t17.5 -76t32.5 -59.5q41 -53 115 -77 t153 -24q176 0 265 94q23 25 38 59.5t20.5 78t7 72.5t1.5 75v469q0 195 -10 256q-11 76 -100 76q-17 0 -50 -5t-49 -5q-29 0 -47 19.5t-18 49.5q0 32 22.5 53t55.5 21q48 0 134.5 -11.5t139.5 -11.5q55 0 145 11.5t129 11.5q43 0 71 -19.5t28 -54.5q0 -30 -18.5 -49.5 t-47.5 -19.5q-16 0 -49 5t-49 5q-86 0 -100 -76q-11 -67 -11 -256v-420q0 -74 -2 -114t-10.5 -102t-30 -111t-57.5 -91q-129 -153 -406 -153q-101 0 -199 24.5t-167 75.5q-58 42 -90 106t-39.5 121t-7.5 140v524q0 189 -11 256q-11 76 -100 76q-17 0 -49 -5t-49 -5 q-29 0 -47.5 19.5t-18.5 49.5z" />
<glyph unicode="V" horiz-adv-x="1515" d="M-27 1331q0 36 30 55t83 19q44 0 132 -11.5t142 -11.5q52 0 137.5 11.5t137.5 11.5q36 0 62 -19.5t26 -54.5q0 -30 -18.5 -49.5t-47.5 -19.5q-28 0 -64 4t-50 4q-34 0 -56 -15.5t-22 -48.5q0 -38 22 -102l308 -938h4l272 858q39 114 39 164q0 38 -23 60t-61 22 q-13 0 -49.5 -4t-65.5 -4t-47 19.5t-18 49.5q0 35 26 54.5t62 19.5q40 0 114.5 -11.5t120.5 -11.5q45 0 119 11.5t117 11.5q36 0 62 -19.5t26 -54.5q0 -28 -17.5 -48.5t-35.5 -20.5q-9 0 -31 4t-35 4q-36 0 -53 -51l-389 -1131q-12 -33 -21.5 -52.5t-25.5 -38t-40 -26.5 t-57 -8q-35 0 -58 7t-39 26.5t-24.5 37t-21.5 54.5l-360 1016q-2 6 -10.5 31t-12 34t-12.5 29.5t-17.5 29.5t-21.5 21t-29.5 16.5t-36.5 4.5q-14 0 -48 -4t-58 -4q-29 0 -47.5 19.5t-18.5 49.5z" />
<glyph unicode="W" horiz-adv-x="1966" d="M-25 1331q0 74 121 74q43 0 132 -11.5t143 -11.5q53 0 139.5 11.5t134.5 11.5q36 0 62 -19.5t26 -54.5q0 -30 -18 -49.5t-47 -19.5q-30 0 -83 4t-79 4q-34 0 -54 -17.5t-20 -50.5q0 -17 25 -153l170 -846h4l211 1050q20 98 50.5 133t96.5 35q121 0 146 -151l202 -1084h4 l172 832q3 15 8.5 41.5t8 38t5.5 29.5t4 32t1 29q0 86 -86 86q-17 0 -61 -6t-76 -6q-29 0 -47.5 19.5t-18.5 49.5q0 34 23 54t61 20q48 0 135 -11.5t140 -11.5t140 11.5t134 11.5q36 0 62 -19.5t26 -54.5q0 -30 -18 -49.5t-47 -19.5q-15 0 -46.5 5t-48.5 5q-45 0 -71 -47 q-13 -26 -45 -162l-226 -959q-14 -67 -43 -104t-90 -37q-67 0 -99 45.5t-46 122.5l-205 1071h-4l-229 -1128q-12 -57 -36 -84t-79 -27q-70 0 -97 32.5t-44 108.5l-234 977q-17 89 -41 140q-22 49 -78 49q-12 0 -45 -4t-59 -4q-29 0 -47.5 19.5t-18.5 49.5z" />
<glyph unicode="X" horiz-adv-x="1638" d="M-14 47q0 35 26 54.5t62 19.5q16 0 45 -3t45 -3q32 0 54 10.5t46 34.5l103 121l360 444l-375 438q-41 47 -57.5 64.5t-38 31t-43.5 13.5q-17 0 -55.5 -5t-63.5 -5q-29 0 -47 19.5t-18 49.5q0 36 29.5 55t80.5 19q46 0 134 -11.5t141 -11.5t138.5 11.5t135.5 11.5 q36 0 62 -19.5t26 -54.5q0 -30 -18 -49.5t-47 -19.5q-37 0 -87.5 7t-70.5 7q-29 0 -29 -14q0 -5 4 -11.5t13 -17t12 -14.5l281 -369l276 352q31 36 31 55q0 17 -49 17q-21 0 -64 -6t-72 -6t-47 19.5t-18 49.5q0 33 21.5 53.5t56.5 20.5q48 0 134.5 -11.5t139.5 -11.5 q54 0 144 11.5t131 11.5q43 0 65.5 -21t22.5 -53q0 -30 -18.5 -49.5t-47.5 -19.5q-26 0 -59 5t-47 5q-30 0 -58 -23t-82 -86l-358 -438l475 -567q20 -25 40 -34t52 -9q10 0 30.5 3t29.5 3q36 0 62 -19.5t26 -54.5q0 -30 -18.5 -50t-47.5 -20q-46 0 -133.5 11.5t-140.5 11.5 q-45 0 -131 -11.5t-144 -11.5q-127 0 -127 76q0 32 24 50t62 18q24 0 71 -4t69 -4q47 0 47 22q0 16 -12 34.5t-42 55.5l-303 379l-293 -379q-53 -68 -53 -90q0 -20 53 -20q25 0 73 3t71 3q36 0 62 -19.5t26 -54.5q0 -30 -18.5 -50t-47.5 -20q-39 0 -126 11.5t-148 11.5 q-59 0 -158.5 -11.5t-167.5 -11.5q-112 0 -112 70z" />
<glyph unicode="Y" horiz-adv-x="1556" d="M-20 1331q0 32 23.5 53t62.5 21q42 0 131 -11.5t143 -11.5t142.5 11.5t131.5 11.5q41 0 64.5 -20t23.5 -54q0 -30 -18 -49.5t-47 -19.5q-33 0 -77.5 6t-57.5 6q-43 0 -43 -21q0 -6 2.5 -11t11 -19.5t12.5 -22.5l312 -528l315 528q25 41 25 55q0 9 -6.5 13t-16 5t-27.5 1 q-25 0 -77 -6t-78 -6q-29 0 -47.5 19.5t-18.5 49.5q0 31 25.5 52.5t66.5 21.5q48 0 135 -11.5t140 -11.5q55 0 146 11.5t128 11.5q41 0 64.5 -19t23.5 -55q0 -30 -18 -49.5t-47 -19.5q-19 0 -59.5 7t-55.5 7q-27 0 -46.5 -10t-28 -21t-27.5 -39l-436 -686v-90 q0 -183 10 -244q14 -75 100 -75q17 0 49 5t49 5q36 0 62.5 -19.5t26.5 -54.5q0 -30 -18.5 -50t-47.5 -20q-42 0 -140 11.5t-180 11.5q-68 0 -152 -11.5t-132 -11.5q-101 0 -101 70q0 35 26.5 54.5t62.5 19.5q18 0 52 -5t52 -5q35 0 60.5 18t31.5 49q12 57 12 232v98 l-424 672q-31 50 -56 70t-58 20q-16 0 -54 -4t-63 -4q-29 0 -47 19.5t-18 49.5z" />
<glyph unicode="Z" horiz-adv-x="1269" d="M55 106q0 36 12.5 64t53.5 78l866 1024h-485q-48 0 -80 -2.5t-62.5 -10.5t-49 -23t-32.5 -39t-20 -59t-6 -83q0 -23 2 -71t2 -71q0 -40 -21 -62t-61 -22q-76 0 -76 95q0 34 8.5 100t8.5 100q0 31 -8.5 90.5t-8.5 88.5q0 102 119 102h827q96 0 128 -23t32 -82 q0 -30 -9 -48.5t-50 -67.5l-907 -1059h495q167 0 228 18q54 16 73 55t19 103q0 29 -7.5 89t-7.5 91q0 40 21 62t61 22q76 0 76 -94q0 -34 -8 -100.5t-8 -100.5q0 -31 8 -90t8 -88q0 -102 -119 -102h-854q-94 0 -131 28t-37 88z" />
<glyph unicode="[" horiz-adv-x="696" d="M217 -180v1491q0 52 14 73t41 21q16 0 48.5 -11.5t58.5 -11.5q27 0 80 11.5t80 11.5q30 0 48.5 -19t18.5 -55q0 -30 -18 -49.5t-47 -19.5q-10 0 -45 10q-23 10 -45 10q-34 0 -46 -27t-12 -106v-1167q0 -79 12 -106.5t46 -27.5q15 0 45 10.5t45 10.5q29 0 47 -20t18 -50 q0 -73 -76 -73q-27 0 -76 11t-75 11t-58.5 -11t-48.5 -11q-32 0 -43.5 18t-11.5 76z" />
<glyph unicode="\" horiz-adv-x="1146" d="M160 1405h135l588 -1415h-133z" />
<glyph unicode="]" horiz-adv-x="696" d="M76 -201q0 30 18 50t47 20q15 0 45 -10.5t45 -10.5q34 0 46 27.5t12 106.5v1167q0 79 -12 106t-46 27q-22 0 -45 -10q-35 -10 -45 -10q-29 0 -47 19.5t-18 49.5q0 36 18.5 55t48.5 19q27 0 80 -11.5t80 -11.5q26 0 58.5 11.5t48.5 11.5q27 0 41 -21t14 -73v-1491 q0 -58 -11.5 -76t-43.5 -18q-16 0 -48.5 11t-58.5 11q-27 0 -76 -11t-75 -11q-76 0 -76 73z" />
<glyph unicode="^" horiz-adv-x="1269" d="M106 604l435 830h159l435 -830h-168l-346 635l-347 -635h-168z" />
<glyph unicode="_" horiz-adv-x="1024" d="M0 -154h1024v-102h-1024v102z" />
<glyph unicode="`" horiz-adv-x="696" d="M100 1366q0 39 27 68.5t66 29.5q40 0 86 -43l217 -186q2 -2 10 -8t11 -9.5t8.5 -9.5t7.5 -12.5t2 -13.5q0 -10 -9 -16.5t-20 -6.5q-7 0 -14.5 2t-17 5.5t-13.5 4.5l-283 105q-78 29 -78 90z" />
<glyph unicode="a" horiz-adv-x="1228" d="M70 252q0 179 139 260q42 25 92.5 40.5t82 20.5t99.5 13q11 1 37.5 3.5t40 3.5t38 4.5t38.5 7t34.5 10t32 14.5t25.5 19.5t21.5 25.5t12.5 33t5 41q0 96 -65 140t-166 44q-83 0 -158 -45q-47 -29 -47 -53q0 -2 12 -8.5t24.5 -25t12.5 -50.5q0 -44 -33 -70.5t-78 -26.5 q-54 0 -90.5 37.5t-36.5 93.5q0 62 35 116.5t92 94.5q53 37 126.5 56.5t144.5 19.5q172 0 280 -82q69 -54 92 -129q21 -69 21 -165v-17l-8 -371q0 -6 -1 -24t-1 -29.5v-32t1.5 -34t5 -31t9.5 -29t14.5 -22t21 -16t28.5 -5.5q18 0 31.5 7t21.5 21t13 27.5t6.5 35.5t1.5 35 t-0.5 35.5t-0.5 28.5v19v20t0.5 18t2.5 18t5 15t8 14t12 9.5t16.5 7.5t21.5 2q71 0 71 -84q0 -134 -6.5 -188.5t-36.5 -93.5q-53 -74 -180 -74q-80 0 -137.5 37t-71.5 110q-97 -155 -331 -155q-150 0 -244 59q-64 40 -100.5 104t-36.5 140zM240 260q0 -86 61.5 -129 t151.5 -43q175 0 258 109q31 43 41 89t10 109q0 45 4 131q-14 -14 -31 -25t-31 -18.5t-37 -14t-35 -10t-40 -7.5t-36.5 -5t-40 -4t-36.5 -4q-38 -3 -67.5 -8.5t-63.5 -18t-56 -30.5t-37 -49t-15 -72z" />
<glyph unicode="b" horiz-adv-x="1187" d="M-41 1343q0 30 23 53t57 23q29 0 67 -11t64 -11q25 0 64 11t67 11q25 0 32 -12t7 -45v-442h4q62 78 135.5 114.5t171.5 36.5q115 0 205.5 -41.5t147 -114.5t85.5 -169t29 -209q0 -117 -29.5 -220.5t-87 -186.5t-152.5 -132t-216 -49q-230 0 -314 162l-4 -5q11 -50 11 -63 q0 -34 -20 -53t-54 -19q-21 0 -35 6t-21 13t-10 24.5t-3.5 27t-0.5 34.5v1036q0 4 0.5 24.5t0 32t-1.5 32.5t-5 33.5t-10.5 26.5t-17.5 20.5t-25 6.5q-18 0 -49 -6t-45 -6q-31 0 -50.5 19t-19.5 48zM340 545q0 -199 43 -303q30 -73 97.5 -113.5t148.5 -40.5q69 0 124.5 25 t91 66t59.5 97t34 115.5t10 124.5q0 64 -9 121t-31 112t-56 94.5t-89 64t-124 24.5t-132.5 -34t-103.5 -91q-63 -91 -63 -262z" />
<glyph unicode="c" horiz-adv-x="1024" d="M78 489q0 121 31.5 225t92 184.5t158 126.5t222.5 46q141 0 247 -74q60 -41 99 -108t39 -137q0 -78 -39.5 -132.5t-114.5 -54.5q-49 0 -85 32t-36 81q0 42 31.5 67t75.5 27q-3 73 -75 116.5t-151 43.5q-83 0 -147.5 -37t-102 -99t-56.5 -134.5t-19 -151.5 q0 -63 9.5 -120.5t32.5 -113.5t58 -97t90.5 -66t124.5 -25q94 0 162.5 53.5t93.5 145.5q1 5 5.5 24t7 26t7.5 22.5t11 22.5t15 16t21 12.5t27 3.5q32 0 56 -24t24 -56q0 -57 -35 -131.5t-77 -120.5q-121 -133 -328 -133q-113 0 -205 44t-150 119t-89 171.5t-31 205.5z" />
<glyph unicode="d" horiz-adv-x="1228" d="M78 516q0 88 17.5 168.5t55 151.5t91.5 123t131 82t170 30q220 0 317 -153h4v198q0 74 -7 112t-18.5 49t-33.5 11q-18 0 -49 -6t-45 -6q-31 0 -50.5 19t-19.5 48q0 33 23.5 54.5t54.5 21.5q29 0 73 -11t72 -11t66 11t57 11q18 0 26.5 -18.5t8.5 -69.5v-1050 q0 -103 13 -137.5t46 -34.5q18 0 49.5 6t45.5 6q30 0 49.5 -19.5t19.5 -48.5q0 -34 -20 -55t-47 -21q-17 0 -56.5 11.5t-64.5 11.5q-22 0 -54 -11.5t-57 -11.5q-41 0 -56.5 21t-15.5 78v20h-4q-45 -74 -131 -110.5t-184 -36.5q-95 0 -174.5 30.5t-134.5 83.5t-93.5 125 t-56.5 154.5t-18 173.5zM248 506q0 -62 11 -120.5t35.5 -113t60.5 -95t90 -65t120 -24.5q82 0 150 36t102 105q47 94 47 289q0 207 -65 297q-84 117 -246 117q-68 0 -122 -25.5t-87.5 -67t-55.5 -98t-31 -114.5t-9 -121z" />
<glyph unicode="e" horiz-adv-x="1105" d="M78 492q0 243 121 399q68 87 166.5 133.5t209.5 46.5q206 0 335.5 -133t129.5 -340q0 -79 -13 -95t-85 -16h-694v-22q0 -94 31 -174q35 -89 113 -146t186 -57q106 0 179.5 52t102.5 151q6 20 8 27t9 22.5t13.5 22t19 12.5t28.5 6q35 0 58.5 -21.5t23.5 -56.5 q0 -59 -36 -124t-85 -111q-62 -59 -151.5 -89t-182.5 -30q-118 0 -211.5 42t-153 116t-91 172t-31.5 213zM266 635h604q-8 132 -82.5 214.5t-205.5 82.5t-218 -83.5t-98 -213.5z" />
<glyph unicode="f" horiz-adv-x="860" d="M37 53q0 29 19.5 48.5t49.5 19.5q14 0 45.5 -6t49.5 -6q59 0 59 116v580q0 37 -8.5 50t-34.5 13h-92q-86 0 -86 78q0 34 20 54t52 20h79q51 0 60.5 5.5t9.5 37.5q0 183 84.5 277t265.5 94q48 0 95.5 -10.5t92 -32t72 -61t27.5 -91.5q0 -49 -28.5 -77.5t-77.5 -28.5 q-38 0 -66.5 26.5t-28.5 63.5q0 25 21 53q-31 33 -107 33q-100 0 -146 -65.5t-46 -172.5q0 -34 5.5 -42.5t25.5 -8.5h137q94 0 94 -74q0 -78 -96 -78h-129q-20 0 -28.5 -7.5t-8.5 -26.5v-611q0 -114 59 -114q18 0 49 6t45 6q31 0 50.5 -19.5t19.5 -48.5q0 -34 -27 -55 t-61 -21q-25 0 -87 11.5t-124 11.5q-47 0 -115 -11.5t-102 -11.5t-61 23.5t-27 52.5z" />
<glyph unicode="g" horiz-adv-x="1146" d="M78 -84q0 88 53 151.5t139 90.5v4q-81 28 -126.5 73t-45.5 121q0 77 47.5 130.5t124.5 76.5q-57 65 -57 178q0 102 58 179t145.5 114t187.5 37q75 0 123 -14v10q0 88 67 143q71 58 169 58q91 0 161 -49.5t70 -137.5q0 -46 -32.5 -82t-78.5 -36q-33 0 -57.5 23t-24.5 56 q0 36 46 68q-28 41 -86 41t-87 -40q-26 -36 -26 -88v-11q74 -44 117 -122t43 -167q0 -106 -56.5 -186.5t-144 -120t-189.5 -39.5q-108 0 -235 55q-33 14 -55 14q-32 0 -54 -27.5t-22 -60.5q0 -35 21.5 -58t60 -32t67 -11.5t66.5 -2.5h76q219 0 342 -41q105 -35 172 -109 t67 -178q0 -75 -35.5 -134t-90.5 -94.5t-128 -58.5t-140 -31.5t-134 -8.5q-68 0 -132.5 7.5t-137 29t-125.5 55.5t-88 92t-35 133zM248 -82q0 -54 38.5 -94.5t94.5 -61.5q82 -30 217 -30q41 0 82.5 4t92.5 16.5t89.5 32.5t65 55.5t26.5 81.5q0 47 -25 82.5t-61.5 54.5 t-86.5 31t-91 15.5t-84 3.5q-166 0 -250 -41q-48 -24 -78 -62t-30 -88zM379 725q0 -98 65.5 -154.5t163.5 -56.5q99 0 169 56.5t73 156.5q-3 94 -73.5 152.5t-166.5 58.5t-163.5 -59.5t-67.5 -153.5z" />
<glyph unicode="h" d="M41 53q0 29 19.5 48.5t50.5 19.5q14 0 45 -6t49 -6q36 0 47.5 36t11.5 136v835q0 60 -4.5 97.5t-14.5 52t-18 18.5t-22 4q-18 0 -49 -6t-45 -6q-31 0 -50.5 19t-19.5 48q0 33 25 54.5t53 21.5q33 0 75 -11t60 -11q28 0 60.5 11t50.5 11q36 0 46.5 -23t10.5 -83v-375 q69 69 142 101t171 32q79 0 155.5 -26t133.5 -76q109 -94 109 -289v-399q0 -103 12.5 -137.5t46.5 -34.5q18 0 49 6t45 6q31 0 50.5 -19.5t19.5 -48.5q0 -35 -24.5 -55.5t-63.5 -20.5q-32 0 -96 11.5t-115 11.5q-50 0 -117 -11.5t-100 -11.5q-34 0 -61 21t-27 55 q0 29 19 48.5t50 19.5q14 0 45 -6t49 -6q36 0 48 36.5t12 135.5v204v43v52t-1 48.5t-3 54t-5.5 45.5t-9.5 44q-22 79 -85.5 119.5t-147.5 40.5q-73 0 -141.5 -27.5t-106.5 -81.5q-25 -36 -37.5 -87t-14 -85.5t-1.5 -95.5v-274q0 -103 12.5 -137.5t46.5 -34.5q18 0 49 6t45 6 q31 0 50.5 -19.5t19.5 -48.5q0 -35 -24.5 -55.5t-63.5 -20.5q-32 0 -96 11.5t-115 11.5q-50 0 -117 -11.5t-100 -11.5q-34 0 -61 21t-27 55z" />
<glyph unicode="i" horiz-adv-x="655" d="M47 53q0 29 19.5 48.5t50.5 19.5q14 0 45 -6t49 -6q35 0 47 37.5t12 134.5v458q0 105 -12 138.5t-47 33.5q-18 0 -49 -6t-45 -6q-31 0 -50.5 19.5t-19.5 48.5q0 34 21 54.5t51 20.5q28 0 69.5 -11t65.5 -11q27 0 63 11t54 11q57 0 57 -88v-761q0 -84 53 -84q9 0 37 6.5 t45 5.5q31 0 50.5 -19.5t19.5 -48.5q0 -34 -27 -55t-61 -21q-33 0 -99 11.5t-112 11.5q-45 0 -114 -11.5t-103 -11.5q-26 0 -48 23.5t-22 52.5zM197 1266q0 49 34 82.5t82 33.5q50 0 84.5 -33.5t34.5 -82.5q0 -50 -35 -84.5t-84 -34.5q-47 0 -81.5 35t-34.5 84z" />
<glyph unicode="j" horiz-adv-x="573" d="M-266 -201q0 46 30 80.5t74 34.5q39 0 69 -23t30 -61q0 -50 -33 -76q51 -43 116 -43q58 0 99 18.5t64 46.5t35.5 72.5t16 84t3.5 94.5v712q0 102 -14.5 137t-45.5 35q-18 0 -49 -6t-45 -6q-31 0 -50.5 19.5t-19.5 48.5q0 34 27 54.5t61 20.5q25 0 64.5 -11t66.5 -11 t66 11t59 11q29 0 40.5 -16.5t11.5 -52.5q0 -45 -7.5 -138t-7.5 -139v-655q0 -68 -2.5 -109t-16.5 -97t-42 -99q-49 -75 -130.5 -112.5t-176.5 -37.5q-51 0 -100.5 12.5t-94 36.5t-71.5 67t-27 97zM174 1266q0 49 34.5 83.5t84.5 34.5q49 0 83 -34t34 -84q0 -48 -34 -82.5 t-83 -34.5t-84 34.5t-35 82.5z" />
<glyph unicode="k" horiz-adv-x="1310" d="M41 53q0 29 19.5 48.5t50.5 19.5q14 0 45 -6t49 -6q36 0 47.5 36t11.5 136v835q0 60 -4.5 97.5t-14.5 52t-18 18.5t-22 4q-18 0 -49 -6t-45 -6q-31 0 -50.5 19t-19.5 48q0 33 25 54.5t53 21.5q33 0 75 -11t60 -11q28 0 60.5 11t50.5 11q36 0 46.5 -23t10.5 -83v-789 l346 322q39 36 39 53q0 16 -33 16q-14 0 -47.5 -8t-56.5 -8q-31 0 -49.5 20t-18.5 48q0 33 27 54t84 21q39 0 113 -11t124 -11q37 0 106 11t101 11q34 0 54 -20t20 -55q0 -29 -17 -48.5t-43 -19.5q-12 0 -38 6t-41 6q-32 0 -54.5 -12t-68.5 -53l-236 -217l283 -365 q68 -88 103 -121.5t59 -33.5q16 0 41.5 6t37.5 6q25 0 43.5 -19.5t18.5 -48.5q0 -34 -27 -55t-61 -21q-33 0 -93.5 11.5t-117.5 11.5q-52 0 -113 -11.5t-92 -11.5q-33 0 -57.5 20.5t-24.5 55.5q0 29 19.5 48.5t50.5 19.5q17 0 46 -6t40 -6q16 0 16 14q0 6 -3.5 13t-7 12.5 t-11 16t-11.5 15.5l-258 344l-192 -172q0 -131 13.5 -187t43.5 -56q15 0 42 6t42 6q31 0 49.5 -17t18.5 -47q0 -35 -24 -57.5t-58 -22.5q-33 0 -94 11.5t-109 11.5q-50 0 -117 -11.5t-100 -11.5q-34 0 -61 21t-27 55z" />
<glyph unicode="l" horiz-adv-x="655" d="M41 1343q0 34 28 55t66 21q34 0 76.5 -11t60.5 -11q28 0 60.5 11t50.5 11q36 0 46.5 -23t10.5 -83v-1032q0 -104 15 -138t45 -34q18 0 49 6t45 6q31 0 50.5 -19.5t19.5 -48.5q0 -34 -27.5 -55t-61.5 -21q-31 0 -93.5 11.5t-116.5 11.5q-50 0 -117.5 -11.5t-100.5 -11.5 q-34 0 -61 21t-27 55q0 29 19.5 48.5t50.5 19.5q14 0 45 -6t49 -6q35 0 47.5 39.5t12.5 132.5v835q0 48 -3.5 82t-8.5 51.5t-14.5 26.5t-16 10.5t-17.5 1.5q-16 0 -51.5 -6t-60.5 -6q-31 0 -50.5 19t-19.5 48z" />
<glyph unicode="m" horiz-adv-x="1966" d="M41 53q0 29 19.5 48.5t50.5 19.5q14 0 45 -6t49 -6q37 0 48 36.5t11 137.5v454q0 105 -12 139.5t-47 34.5q-18 0 -49 -6t-45 -6q-31 0 -50.5 19.5t-19.5 48.5q0 27 24.5 51t51.5 24q20 0 51 -11t59 -11q31 0 68 11t61 11q21 0 31 -16t12 -38t2 -68h5q59 78 132 114.5 t171 36.5q96 0 176.5 -37.5t124.5 -113.5q108 151 325 151q215 0 307 -115q29 -37 47 -75t25 -85.5t8.5 -79.5t1.5 -93v-340q0 -96 13 -135t47 -39q18 0 49 6t45 6q31 0 50.5 -19.5t19.5 -48.5q0 -35 -23.5 -55.5t-64.5 -20.5q-31 0 -95.5 11.5t-113.5 11.5 q-52 0 -118.5 -11.5t-100.5 -11.5q-41 0 -65 20.5t-24 55.5q0 29 19.5 48.5t50.5 19.5q14 0 45 -6t49 -6q37 0 48.5 36.5t11.5 137.5v252q-2 120 -6.5 175.5t-18.5 88.5q-28 65 -87 99t-132 34q-67 0 -126.5 -34t-86.5 -93q-19 -42 -28 -103.5t-9 -183.5v-235q0 -96 13 -135 t47 -39q18 0 49 6t45 6q31 0 50 -19.5t19 -48.5q0 -35 -23.5 -55.5t-64.5 -20.5q-31 0 -95.5 11.5t-113.5 11.5q-52 0 -118.5 -11.5t-100.5 -11.5q-41 0 -64.5 20.5t-23.5 55.5q0 29 19.5 48.5t50.5 19.5q14 0 45 -6t49 -6q37 0 48 36.5t11 137.5v309q0 164 -14 209 q-15 53 -73 92t-128 39q-72 0 -132.5 -31t-94.5 -90q-31 -55 -41 -107.5t-10 -179.5v-241q0 -97 12.5 -135.5t46.5 -38.5q18 0 49 6t45 6q31 0 50.5 -19.5t19.5 -48.5q0 -35 -23.5 -55.5t-64.5 -20.5q-31 0 -95.5 11.5t-113.5 11.5q-52 0 -118.5 -11.5t-100.5 -11.5 q-41 0 -64.5 20.5t-23.5 55.5z" />
<glyph unicode="n" d="M41 53q0 29 19.5 48.5t50.5 19.5q14 0 45 -6t49 -6q37 0 48 36.5t11 137.5v454q0 105 -12 139.5t-47 34.5q-18 0 -49 -6t-45 -6q-31 0 -50.5 19.5t-19.5 48.5q0 27 24.5 51t51.5 24q20 0 51 -11t59 -11q31 0 68 11t61 11q21 0 31 -16t12 -38t2 -68h5q56 76 148 113.5 t194 37.5q174 0 296 -110q61 -55 78 -124t17 -175v-381q0 -97 12.5 -136t46.5 -39q18 0 49 6.5t45 6.5q31 0 50.5 -19.5t19.5 -48.5q0 -35 -23.5 -54.5t-64.5 -19.5q-31 0 -95.5 11.5t-113.5 11.5q-52 0 -118.5 -11.5t-100.5 -11.5q-41 0 -64.5 19.5t-23.5 54.5 q0 29 19 48.5t50 19.5q14 0 45.5 -6.5t49.5 -6.5q37 0 48 36.5t11 138.5v303q0 108 -5 149.5t-28 85.5q-29 56 -91 84.5t-132 28.5q-74 0 -144 -31t-106 -88q-17 -26 -26 -47t-18 -84t-9 -158v-241q0 -97 12.5 -135.5t46.5 -38.5q18 0 49 6t45 6q31 0 50.5 -19.5t19.5 -48.5 q0 -35 -23.5 -55.5t-64.5 -20.5q-31 0 -95.5 11.5t-113.5 11.5q-52 0 -118.5 -11.5t-100.5 -11.5q-41 0 -64.5 20.5t-23.5 55.5z" />
<glyph unicode="o" horiz-adv-x="1146" d="M78 508q0 115 30.5 215.5t89 178.5t153 123.5t214.5 45.5q250 0 375 -156q65 -80 97 -185.5t32 -215.5q0 -118 -33 -220t-95 -179t-159.5 -121.5t-218.5 -44.5q-119 0 -213 45t-152.5 122.5t-89 177.5t-30.5 214zM248 514q0 -64 9.5 -122.5t33 -115t59 -97.5t91 -66 t124.5 -25q73 0 131 24.5t95.5 65.5t62 98t35 117.5t10.5 128.5q0 177 -74 291q-76 119 -247 119q-179 0 -261 -139q-69 -117 -69 -279z" />
<glyph unicode="p" horiz-adv-x="1269" d="M41 -309q0 29 19.5 48t50.5 19q14 0 45 -6t49 -6q35 0 47 36t12 136v821q0 95 -12 133.5t-47 38.5q-18 0 -49 -6t-45 -6q-31 0 -50.5 19.5t-19.5 48.5q0 34 27 54.5t63 20.5q15 0 53 -11t60 -11q20 0 58 11t58 11q54 0 54 -63v-68h4q48 79 132 119.5t181 40.5 q118 0 209 -41.5t147 -115.5t84.5 -170.5t28.5 -211.5q0 -104 -26 -209t-78 -180q-63 -93 -165.5 -143.5t-219.5 -50.5q-89 0 -166 32t-119 95h-4v-162q0 -99 14 -133.5t45 -34.5q18 0 49 6t45 6q31 0 50.5 -19t19.5 -48q0 -34 -27 -55t-63 -21q-39 0 -110 11.5t-107 11.5 q-39 0 -108.5 -11.5t-98.5 -11.5q-36 0 -63 21t-27 55zM422 459q0 -59 2.5 -94t15 -82t37.5 -84q75 -111 225 -111q73 0 130.5 24t94 63.5t60.5 95.5t33.5 116t9.5 129q0 81 -14 150t-46 131.5t-93.5 98.5t-147.5 36q-92 0 -168 -44.5t-104 -125.5q-35 -104 -35 -303z" />
<glyph unicode="q" horiz-adv-x="1228" d="M78 518q0 106 26.5 207t79.5 174q124 172 371 172q209 0 322 -145l4 4q-2 17 -2 31q0 81 71 81q32 0 47 -20.5t15 -75.5v-1028q0 -102 14 -137t45 -35q18 0 49 6t45 6q31 0 50.5 -19t19.5 -48q0 -34 -27 -55t-61 -21q-29 0 -97.5 11.5t-105.5 11.5t-109 -11.5t-108 -11.5 q-40 0 -68 21t-28 55q0 29 19 48t50 19q14 0 45.5 -6t49.5 -6q36 0 47.5 36t11.5 130v156q-105 -119 -295 -119q-95 0 -175 30.5t-135.5 83t-94.5 125t-57.5 155.5t-18.5 175zM248 526q0 -81 16 -155t50.5 -139.5t97.5 -104.5t147 -39q73 0 138.5 32.5t105.5 92.5 q23 35 35 80t14 79t2 91q0 121 -8.5 192t-36.5 125q-38 72 -106 112t-150 40q-83 0 -144.5 -36t-95 -96.5t-49.5 -129t-16 -144.5z" />
<glyph unicode="r" horiz-adv-x="1064" d="M41 967q0 34 27.5 54.5t64.5 20.5q18 0 55.5 -11t63.5 -11q27 0 63 11t54 11q37 0 48 -28q9 -24 9 -76v-20h4q93 153 289 153q136 0 233 -77.5t97 -211.5q0 -88 -42.5 -149.5t-129.5 -61.5q-43 0 -77 28t-34 71q0 34 24.5 61t59.5 27q3 0 27 -6q12 24 12 47q0 65 -57 104 t-125 39q-126 0 -192 -88t-66 -299v-274q0 -71 9 -110.5t22 -50.5t34 -11q18 0 49 6t45 6q31 0 50.5 -19.5t19.5 -48.5q0 -34 -27 -55t-61 -21q-33 0 -100 11.5t-111 11.5q-43 0 -109 -11.5t-108 -11.5q-37 0 -64.5 21t-27.5 55q0 29 19 48.5t50 19.5q14 0 45 -6t49 -6 q34 0 46 33.5t12 138.5v458q0 101 -13.5 136.5t-48.5 35.5q-15 0 -52 -6t-66 -6q-31 0 -50.5 19.5t-19.5 48.5z" />
<glyph unicode="s" horiz-adv-x="1064" d="M100 16q0 30 8.5 87t8.5 85q0 26 -8.5 81t-8.5 83q0 34 19 54t53 20q61 0 64 -68q8 -99 15.5 -128t39.5 -56q47 -40 125 -63t147 -23q108 0 168 47q70 56 70 133q0 45 -19 77.5t-54.5 50t-69 26.5t-78.5 14t-68 8t-67.5 10.5t-69 14.5t-62.5 20t-59.5 27.5t-47.5 37 t-40 48.5t-23.5 61t-9.5 76q0 79 34 143.5t90.5 105t127 62t147.5 21.5q156 0 242 -72q-1 9 -1 17q1 27 13 45q16 24 54 24q32 0 50.5 -17.5t18.5 -49.5q0 -26 -6 -76t-6 -76t6 -76.5t6 -74.5q0 -33 -19.5 -54.5t-53.5 -21.5q-66 0 -66 98q0 58 -8 79t-37 42 q-101 74 -193 74q-89 0 -159 -47t-70 -133q0 -73 54 -106.5t190 -51.5q113 -15 185.5 -34t130 -53.5t83 -88.5t25.5 -133q0 -67 -24.5 -123.5t-65.5 -95t-95.5 -65.5t-115 -39.5t-123.5 -12.5q-184 0 -299 96q2 -14 2 -26q0 -37 -16 -59q-20 -30 -56 -30q-38 0 -58 24.5 t-20 61.5z" />
<glyph unicode="t" horiz-adv-x="819" d="M0 971q0 27 23.5 50t54.5 23h72q27 0 33.5 11t6.5 55v168q0 50 16 77t64 27q46 0 62 -27t16 -75v-203q0 -22 6 -27.5t29 -5.5h205q60 0 82 -18t22 -57q0 -34 -23.5 -54t-86.5 -20h-181q-35 0 -44 -6.5t-9 -34.5v-496q0 -137 33.5 -190t116.5 -53q145 0 145 202v66 q0 70 19 99.5t63 29.5q40 0 58 -28t18 -70q0 -80 -6 -138.5t-26.5 -119t-55 -99t-95.5 -62.5t-145 -24q-78 0 -143.5 30.5t-98.5 92.5q-24 46 -32.5 100.5t-8.5 176.5v452q0 46 -12 59t-59 13q-64 0 -91.5 16t-27.5 60z" />
<glyph unicode="u" horiz-adv-x="1310" d="M-16 967q0 34 28.5 54.5t71.5 20.5q19 0 58.5 -11t60.5 -11q19 0 58 11t58 11q40 0 54 -21.5t14 -62.5q0 -89 -6 -190.5t-6 -165.5v-92q0 -197 22 -274q22 -73 86.5 -110.5t145.5 -37.5q97 0 169 44.5t99 131.5q33 102 33 336v139q0 86 -20.5 129t-53.5 43q-18 0 -49 -6 t-45 -6q-31 0 -50.5 19.5t-19.5 48.5q0 34 28 54.5t68 20.5q24 0 65.5 -11t61.5 -11t59 11t58 11q62 0 62 -69q0 -50 -3.5 -151t-3.5 -156v-385q0 -101 14 -136.5t46 -35.5q18 0 49 6t45 6q31 0 50.5 -19.5t19.5 -48.5q0 -34 -27 -55t-61 -21q-19 0 -58 11.5t-59 11.5 q-21 0 -60.5 -11.5t-58.5 -11.5q-31 -1 -41 29q-8 25 -8 75v21h-4q-99 -153 -332 -153q-160 0 -272 84q-109 84 -113 268v438q0 172 -70 172q-18 0 -49 -6t-45 -6q-31 0 -50 19.5t-19 48.5z" />
<glyph unicode="v" horiz-adv-x="1310" d="M27 975q0 67 82 67q30 0 90 -11t98 -11q37 0 106 11t99 11q44 0 67 -18.5t23 -48.5q0 -32 -24.5 -54t-47.5 -22q-20 0 -43 10q-36 9 -47 9q-15 0 -24 -9t-9 -24q0 -9 17 -60l256 -686l227 635q31 83 31 100q0 21 -9 32.5t-22 11.5q-4 0 -31 -9q-20 -10 -49 -10 q-27 0 -47 21t-20 55q0 29 19 48t50 19q21 0 88 -11t107 -11q38 0 104.5 11t93.5 11q39 0 60.5 -18.5t21.5 -48.5q0 -33 -22.5 -54.5t-48.5 -21.5q-20 0 -43 10q-32 9 -39 9q-11 0 -20 -16t-28 -63q-11 -28 -18 -46l-278 -713q-24 -58 -54.5 -88.5t-85.5 -30.5 q-51 0 -80.5 31.5t-52.5 87.5l-284 735q-23 58 -40.5 80.5t-37.5 22.5q-12 0 -39 -9q-20 -10 -41 -10q-23 0 -39 21t-16 55z" />
<glyph unicode="w" horiz-adv-x="1720" d="M0 975q0 67 121 67q36 0 108 -11t109 -11q36 0 106 11t105 11q31 0 50 -19t19 -48q0 -33 -25 -54.5t-54 -21.5q-16 0 -47.5 7t-49.5 7q-55 0 -55 -63q0 -17 3.5 -36.5t11 -52t8.5 -36.5l145 -616h4l156 716q20 93 41.5 141t46.5 64.5t65 16.5q67 0 98.5 -44.5 t59.5 -177.5l152 -716h4l157 661q13 58 13 88q0 55 -49 55q-19 0 -52.5 -7t-50.5 -7q-31 0 -53.5 21t-22.5 55q0 67 113 67q36 0 108 -11t109 -11q36 0 106 11t105 11q31 0 50.5 -19t19.5 -48q0 -32 -24.5 -54t-47.5 -22q-14 0 -37.5 7t-34.5 7q-33 0 -58 -51.5t-67 -208.5 l-131 -493q-30 -119 -61 -161t-96 -42q-61 0 -94.5 42.5t-59.5 160.5l-152 725h-4l-157 -713q-27 -123 -59.5 -169t-102.5 -46q-51 0 -83 35.5t-54 118.5l-183 686q-21 82 -34 98q-14 18 -35 18q-15 0 -41.5 -7t-38.5 -7q-29 0 -54.5 21.5t-25.5 54.5z" />
<glyph unicode="x" d="M18 53q0 30 20 50t50 20q14 0 42 -4t42 -4q23 0 48.5 22t76.5 82l235 273q31 31 31 40q0 3 -1 6t-4 7t-6 7.5t-8 9.5t-9 11l-244 289q-28 33 -44.5 44.5t-39.5 11.5q-11 0 -43 -9q-23 -10 -53 -10q-28 0 -50 21t-22 55q0 29 19.5 48t50.5 19q37 0 108 -11t113 -11 q41 0 109 11t102 11q31 0 50 -19t19 -48q0 -28 -22 -52t-53 -24q-14 0 -27 10q-18 9 -23 9q-24 0 -24 -9q0 -2 0.5 -4t3 -5t4.5 -5t7 -8t9 -10l148 -177q30 -38 43 -38q15 0 45 38l141 162q27 30 27 45q0 11 -17 11q-2 0 -20 -9q-13 -10 -25 -10q-31 0 -53 23t-22 53 t19.5 48.5t51.5 18.5q36 0 108 -11t109 -11q36 0 106 11t105 11q31 0 50.5 -19t19.5 -48q0 -33 -25 -54.5t-51 -21.5q-22 0 -45 10q-36 9 -47 9q-32 0 -59.5 -20.5t-96.5 -98.5l-186 -215q-3 -3 -10 -10.5t-9 -10.5t-6 -7.5t-5 -8.5t-1 -8q0 -6 4 -13t8.5 -12.5t10.5 -12.5 t8 -9l272 -322q46 -55 84 -55q13 0 40.5 4t43.5 4q30 0 50 -20t20 -50q0 -34 -27 -55t-61 -21q-35 0 -105 11.5t-106 11.5q-39 0 -108 -11.5t-97 -11.5q-38 0 -61 20.5t-23 55.5q0 30 20 50t50 20q18 0 48 -4t40 -4q24 0 24 14q0 1 -10 16l-200 236q-22 33 -37 33 q-4 0 -10 -4.5t-10.5 -9t-10.5 -11t-8 -8.5l-183 -211q-30 -30 -30 -45q0 -10 18 -10q15 0 46 4t48 4q30 0 50 -20t20 -50q0 -34 -27 -55t-61 -21q-35 0 -105 11.5t-106 11.5q-39 0 -107.5 -11.5t-93.5 -11.5q-38 0 -59 20t-21 56z" />
<glyph unicode="y" horiz-adv-x="1310" d="M-41 -186q0 60 37.5 102.5t97.5 42.5q49 0 82 -27t33 -75q0 -30 -17.5 -54t-44.5 -28q25 -51 117 -51q120 0 199 79q38 38 66 90t28 99q0 26 -8 57.5t-17 54t-25.5 60t-23.5 53.5l-223 567q-31 80 -51.5 108t-42.5 28q-12 0 -46.5 -10.5t-60.5 -10.5q-22 0 -39.5 19.5 t-17.5 48.5q0 33 25.5 54t54.5 21q35 0 105 -11t112 -11q41 0 109 11t102 11t61 -20.5t27 -54.5q0 -28 -16.5 -48t-36.5 -20q-23 0 -53 10q-40 9 -52 9q-23 0 -23 -24q0 -10 5 -26l246 -735h4l248 678q18 52 18 72q0 35 -49 35q-9 0 -45 -9q-23 -10 -51 -10 q-25 0 -43.5 19.5t-18.5 48.5q0 33 25 54t53 21q34 0 103 -11t114 -11q44 0 111 11t100 11q31 0 50.5 -19t19.5 -48t-20 -52.5t-44 -23.5q-21 0 -41 10q-27 9 -35 9q-25 0 -41 -24.5t-47 -102.5l-260 -652q-27 -69 -46.5 -115t-52 -109.5t-62.5 -105t-73.5 -88t-90 -73 t-108 -44.5t-130.5 -18t-135 24.5t-114 78.5t-48 125z" />
<glyph unicode="z" horiz-adv-x="1105" d="M70 102q0 34 14 59.5t55 67.5l670 670h-483q-78 0 -78 -55q0 -21 7 -65.5t7 -67.5q0 -35 -17.5 -59.5t-49.5 -24.5q-39 0 -57.5 25.5t-18.5 64.5q0 26 6 75.5t6 73.5q0 21 -6 60.5t-6 58.5q0 34 19.5 45.5t84.5 11.5h674q71 0 99 -21.5t28 -72.5q0 -31 -16 -56t-78 -87 l-670 -672h524q57 0 81 18.5t24 73.5q0 25 -4 78t-4 80q0 37 20.5 61.5t56.5 24.5q34 0 49 -25t15 -61q0 -29 -5 -89t-5 -91q0 -22 5 -67.5t5 -67.5q0 -78 -102 -78h-705q-74 0 -109.5 30t-35.5 82z" />
<glyph unicode="{" horiz-adv-x="573" d="M74 555v33q0 13 15 23t54 26q23 8 42.5 45t19.5 104v359q0 139 58 199.5t206 60.5q14 0 28.5 -8t14.5 -19q0 -9 -9.5 -18t-18 -13.5t-25 -10.5t-17.5 -7q-22 -11 -41.5 -47t-19.5 -102v-340q0 -120 -33.5 -182.5t-138.5 -84.5v-4q105 -22 138.5 -84t33.5 -182v-340 q0 -67 20 -103.5t41 -45.5q3 -1 14 -5.5t19 -8t17.5 -9t14.5 -12.5t5 -15q0 -11 -14.5 -18.5t-28.5 -7.5q-149 0 -206.5 60t-57.5 200v358q0 67 -20 104.5t-42 45.5q-39 16 -54 26t-15 23z" />
<glyph unicode="|" horiz-adv-x="1269" d="M580 -512v2048h120v-2048h-120z" />
<glyph unicode="}" horiz-adv-x="573" d="M74 -236q0 8 5 15t14.5 12.5t17 9t19 8t13.5 5.5q22 9 42 45.5t20 103.5v340q0 120 33.5 182t138.5 84v4q-105 22 -138.5 84.5t-33.5 182.5v340q0 66 -20 102t-42 47q-3 1 -14 5.5t-18.5 8t-17 9t-14.5 12t-5 14.5q0 11 14.5 19t28.5 8q148 0 206 -60.5t58 -199.5v-359 q0 -67 19.5 -104t41.5 -45q40 -16 55 -26t15 -23v-33q0 -13 -15 -23t-55 -26q-22 -8 -41.5 -45.5t-19.5 -104.5v-358q0 -140 -57.5 -200t-206.5 -60q-14 0 -28.5 7.5t-14.5 18.5z" />
<glyph unicode="~" horiz-adv-x="1269" d="M104 467q28 51 53 87.5t61.5 75t81.5 59t97 20.5q84 0 240 -72q11 -5 39.5 -17t41 -17.5t35 -14.5t36 -12.5t30 -7t29.5 -3.5q62 0 114.5 50.5t88.5 119.5l86 -96q-125 -227 -291 -227q-22 0 -49 5.5t-63.5 18.5t-56 20.5t-62.5 26t-46 19.5q-42 18 -58 25t-51.5 16.5 t-62.5 9.5q-37 0 -68 -14.5t-56 -43t-41.5 -53.5t-37.5 -62q-4 -7 -6 -11z" />
<glyph unicode="&#xa1;" horiz-adv-x="696" d="M207 938q0 55 38.5 94t92.5 39q56 0 94.5 -38.5t38.5 -94.5q0 -54 -39 -92.5t-94 -38.5q-54 0 -92.5 38.5t-38.5 92.5zM246 -272l8 901q0 24 2 39.5t9.5 32t23.5 24.5t41 8q28 0 46 -8t25.5 -24.5t10 -32t2.5 -39.5l8 -901q0 -113 -88 -113t-88 113z" />
<glyph unicode="&#xa2;" d="M190 700q0 142 49 260t151 198t243 97v195q0 40 12 63t49 23q38 0 51 -23t13 -63v-190q72 -5 139 -27.5t123 -61.5t89.5 -101t33.5 -138q0 -69 -46 -124.5t-114 -55.5q-50 0 -86.5 29t-36.5 77q0 40 23 72.5t61 32.5h19q-3 63 -70.5 109t-134.5 46v-811q69 3 130 48 t81 110q28 101 39 121q19 32 69 32q33 0 57.5 -26t24.5 -60q0 -71 -47 -152t-108 -126q-81 -64 -246 -94v-213q0 -41 -11.5 -61.5t-50.5 -20.5q-40 0 -51.5 20t-11.5 62v213q-143 17 -244 93t-150 190t-49 257zM360 700q0 -53 8.5 -104.5t29 -102.5t51 -90t78 -65t106.5 -31 v811q-96 -20 -159.5 -87t-88.5 -150t-25 -181z" />
<glyph unicode="&#xa3;" d="M20 186q0 80 41.5 137.5t100.5 83t125 25.5q129 0 291 -106q6 37 6 71q0 40 -13 90t-22.5 75.5t-38.5 89t-33 71.5h-244q-38 0 -57.5 11t-19.5 50q0 36 20.5 48t54.5 12h185q-41 96 -41 196q0 182 109.5 288t271.5 106q125 0 215 -64q54 -40 88.5 -102.5t34.5 -130.5 q0 -66 -30 -114t-85 -48q-35 0 -59.5 30t-24.5 70q0 29 9.5 48.5t21 26t21 14t9.5 16.5q0 22 -49 65q-68 55 -159 55q-99 0 -166.5 -70.5t-67.5 -182.5q0 -14 1.5 -28t3 -23t6.5 -23.5t7 -19.5t9.5 -23.5t9.5 -22.5l27 -63h348h10h10t7.5 -0.5t8.5 -2.5t7 -5t8 -7 q18 -18 18 -43q0 -38 -17 -51.5t-50 -13.5h-291q78 -149 78 -295q0 -103 -23 -176q188 -154 324 -154q85 0 133.5 55t48.5 152q0 71 -38 120.5t-99 49.5q-45 0 -78 -27t-45 -77q-7 -36 -20.5 -53t-45.5 -17q-30 0 -45.5 22.5t-15.5 57.5q0 62 39 121q72 110 209 110 q120 0 197 -86.5t77 -224.5q0 -148 -92 -249t-221 -101q-127 0 -262 86l-121 82q-65 -80 -152 -124t-180 -44q-51 0 -99.5 13.5t-91 40t-68.5 74t-26 109.5zM160 195q0 -39 26 -65.5t58 -36t65 -9.5q62 0 120 28.5t89 82.5q-123 96 -242 96q-44 0 -80 -23.5t-36 -72.5z" />
<glyph unicode="&#xa4;" d="M102 147l109 109q-98 131 -98 295q0 186 100 303l-111 111l105 106l110 -113q129 105 310 105q171 0 295 -100l108 108l105 -106l-111 -107q106 -124 106 -303q0 -177 -102 -299l109 -109l-103 -104l-108 109q-128 -107 -301 -107q-179 0 -310 107l-108 -109zM279 551 q0 -144 101 -242t245 -98q141 0 240.5 101.5t99.5 242.5q0 139 -99.5 240.5t-238.5 101.5q-146 0 -247 -99.5t-101 -246.5z" />
<glyph unicode="&#xa5;" d="M10 1331q0 35 21.5 54.5t50.5 19.5q17 0 98 -11.5t129 -11.5q49 0 131 11.5t99 11.5q31 0 51 -19.5t20 -54.5q0 -30 -14.5 -49.5t-38.5 -19.5t-70.5 4t-66.5 4q-8 0 -13.5 -6t-5.5 -15q0 -3 3.5 -10t10 -19.5t11.5 -23.5l254 -526l262 526q21 35 21 55q0 19 -25 19 q-23 0 -70.5 -4t-72.5 -4t-40.5 19.5t-15.5 49.5q0 35 22 54.5t52 19.5q18 0 99 -11.5t130 -11.5q48 0 129.5 11.5t100.5 11.5q28 0 49.5 -19.5t21.5 -54.5q0 -29 -15 -49t-38 -20q-26 0 -58 4t-40 4q-31 0 -46.5 -11t-31.5 -42l-119 -238h205q21 0 34.5 -2.5t25.5 -16 t12 -38.5q0 -56 -70 -56h-272l-131 -258h401q22 0 34.5 -2t25 -15t12.5 -38q0 -57 -70 -57h-454v-50q0 -207 10 -258q14 -75 82 -75q13 0 41 4.5t41 3.5q24 0 39.5 -20t15.5 -50q0 -35 -21.5 -54.5t-52.5 -19.5q-25 0 -102.5 11.5t-124.5 11.5q-46 0 -122.5 -11.5 t-107.5 -11.5t-52 19.5t-21 54.5q0 29 16 49.5t39 20.5q13 1 40.5 -3.5t39.5 -4.5q70 0 84 75q8 49 8 258v50h-448q-21 0 -34 2.5t-24.5 15.5t-11.5 37q0 35 16.5 46t46.5 11h402l-131 258h-264q-20 0 -33.5 3t-25 16t-11.5 37q0 34 17 45.5t46 11.5h209l-100 192 q-37 72 -49 84q-15 15 -43 15q-13 0 -44 -4t-52 -4q-25 0 -40.5 19.5t-15.5 49.5z" />
<glyph unicode="&#xa6;" horiz-adv-x="1269" d="M580 -358v716h120v-716h-120zM580 666v716h120v-716h-120z" />
<glyph unicode="&#xa7;" d="M250 10q0 77 36 127.5t109 50.5q49 0 85 -36t36 -86q0 -31 -14.5 -53.5t-31.5 -32.5t-31.5 -20.5t-14.5 -18.5q0 -13 20 -30.5t37 -25.5q85 -43 181 -43q44 0 83.5 9.5t74 29t55 55t20.5 82.5q0 31 -12.5 58.5t-26.5 44.5t-45.5 37.5t-46.5 28l-53 26.5l-117 57 q-9 5 -28 14q-40 20 -61 31t-58.5 32.5t-58.5 38.5t-48 43t-41 51.5t-24.5 59t-10.5 70.5q0 78 53.5 155t128.5 134q-57 51 -83.5 99.5t-26.5 119.5q0 79 31.5 141t85.5 99.5t121 56.5t143 19q49 0 100 -9t102 -30t90.5 -51.5t64 -76.5t24.5 -102q0 -58 -34.5 -93.5 t-92.5 -35.5q-43 0 -74 29.5t-31 71.5q0 37 18 57t56 37q-23 34 -90.5 49.5t-124.5 15.5q-51 0 -96.5 -14.5t-79 -51t-33.5 -89.5q0 -81 82 -137q28 -19 61.5 -36.5t89.5 -43.5t66 -31q40 -19 59 -28t58 -30t60 -36.5t49.5 -41.5t43.5 -50t26 -57t11 -68q0 -81 -54 -162.5 t-128 -136.5q69 -58 101 -114.5t32 -139.5q0 -72 -33 -138t-90 -110q-101 -80 -268 -80q-166 0 -276 63q-69 40 -112.5 105t-43.5 141zM440 635q0 -53 49.5 -99t111 -73t134 -60t101.5 -57q42 34 77 91t35 104q0 52 -50 98t-111.5 73.5t-136 60.5t-103.5 54 q-11 -11 -31 -34.5t-48 -72.5t-28 -85z" />
<glyph unicode="&#xa8;" horiz-adv-x="901" d="M143 1276q0 50 34 84.5t83 34.5q50 0 84.5 -34.5t34.5 -84.5q0 -49 -34.5 -83t-84.5 -34q-48 0 -82.5 34t-34.5 83zM518 1276q0 50 35 84.5t84 34.5q48 0 82.5 -35t34.5 -84t-34.5 -83t-82.5 -34q-50 0 -84.5 34t-34.5 83z" />
<glyph unicode="&#xa9;" horiz-adv-x="1720" d="M115 688q0 202 99.5 373.5t271.5 272t374 100.5q154 0 294.5 -58.5t242 -158t161.5 -237.5t60 -290q0 -151 -60 -288.5t-161.5 -236.5t-241.5 -157.5t-293 -58.5q-152 0 -290 59t-238 158t-159.5 235.5t-59.5 286.5zM205 688q0 -174 88 -323.5t239.5 -237.5t329.5 -88 q134 0 257 52t212 139t142 207.5t53 252.5q0 179 -89.5 330.5t-242.5 238.5t-334 87q-178 0 -329 -89.5t-238.5 -241t-87.5 -327.5zM459 682q0 191 119 309.5t313 118.5q123 0 295 -53v-221h-56q-2 104 -60 162.5t-165 58.5q-98 0 -169 -51t-103.5 -130t-32.5 -174 q0 -54 12 -107t37.5 -101.5t61 -86t86 -59.5t108.5 -22q86 0 153.5 42t102.5 117l43 -18q-37 -94 -133 -148.5t-205 -54.5q-183 0 -295 118t-112 300z" />
<glyph unicode="&#xaa;" horiz-adv-x="901" d="M115 610v70h712v-70h-712zM115 956q0 45 24 84.5t64 63.5q10 6 21 11t19.5 8.5t22 7t20 5t22.5 4.5t20.5 3.5t24 3t22.5 2.5q7 1 26.5 2t28.5 2t27 4t27 6.5t22 10.5t19 16t11 22.5t5 30.5q0 98 -133 98q-25 0 -72 -14.5t-47 -34.5q0 -1 7.5 -6.5t15 -17.5t7.5 -31 q0 -29 -22 -46t-53 -17q-34 0 -59 24t-25 59q0 58 44.5 100.5t101 59.5t112.5 17q50 0 101 -17t85 -49q33 -34 42 -76.5t9 -105.5q0 -38 -2 -115t-2 -119q0 -58 9.5 -76t29.5 -18q10 0 17 3.5t11 10.5t7 13.5t3.5 18t1 18t0 18t-0.5 14.5v12.5v13t0.5 12t1.5 12t3.5 10 t6 9.5t8.5 6.5t11.5 5t15.5 1.5q12 0 20.5 -3t14 -10.5t9 -13t4.5 -18t1.5 -18t0 -20t-0.5 -17.5q0 -5 -0.5 -25.5t-1.5 -29t-3.5 -24t-9 -26.5t-15.5 -22q-36 -41 -113 -41q-44 0 -79.5 19.5t-49.5 58.5q-66 -82 -203 -82q-99 0 -167 48.5t-68 143.5zM233 956 q0 -48 35.5 -70t85.5 -22q109 0 156 66q9 12 14.5 24t8.5 29.5t4 24t1.5 30.5t0.5 27v29q-12 -8 -27 -15t-24 -10.5t-30.5 -7t-26 -4.5t-31.5 -3l-27 -3q-28 -3 -48 -7t-43.5 -14t-36 -28.5t-12.5 -45.5z" />
<glyph unicode="&#xab;" horiz-adv-x="696" d="M35 555q0 4 4 12t9.5 16.5t6.5 10.5l185 293q1 2 4.5 8t5.5 9.5t6 9t7.5 8.5t9 5.5t10.5 2.5q14 0 24 -9t10 -22q0 -9 -3 -17.5t-9 -20t-8 -17.5l-98 -289l104 -305q14 -49 14 -51q0 -13 -9 -21t-21 -8q-7 0 -13 2.5t-11 8t-7.5 9t-7.5 11.5t-6 10l-189 307q-1 2 -6 10 t-8.5 15.5t-3.5 11.5zM295 555q0 12 20 39l183 293q25 43 43 43q14 0 24 -9t10 -22q0 -12 -8.5 -31.5t-9.5 -23.5l-100 -289l104 -305q14 -37 14 -51q0 -29 -30 -29q-7 0 -13 2.5t-11 8t-7.5 9t-7.5 11.5t-6 10l-189 309q-16 32 -16 35z" />
<glyph unicode="&#xac;" horiz-adv-x="1269" d="M104 676v153h1033v-553h-154v400h-879z" />
<glyph unicode="&#xad;" horiz-adv-x="655" d="M70 553q0 44 30 59t78 15h299q109 0 109 -74q0 -76 -109 -76h-299q-31 0 -52 4.5t-38.5 22t-17.5 49.5z" />
<glyph unicode="&#xae;" horiz-adv-x="1720" d="M117 692q0 151 59.5 288.5t160.5 237t240.5 158t292.5 58.5t291.5 -58.5t239 -158t160 -237t59.5 -288.5q0 -152 -59.5 -289.5t-160 -237t-239 -158t-291.5 -58.5t-292.5 58.5t-240.5 158t-160.5 237t-59.5 289.5zM209 692q0 -177 88.5 -328t241 -239t331.5 -88 q134 0 256.5 52t211 140t140.5 209t52 254q0 132 -52 252.5t-140.5 207.5t-211 139t-256.5 52q-179 0 -331.5 -87.5t-241 -237.5t-88.5 -326zM518 1087v35h326q168 0 237 -43q84 -55 84 -159q0 -93 -66.5 -148t-162.5 -65v-5q15 -2 29 -7t27 -15.5t23.5 -20t22 -26t19 -27 t18 -31t15 -28.5t14.5 -29.5t12 -25.5q36 -91 68 -125q22 -25 80 -25v-33h-58h-17.5h-20t-18.5 0.5t-20 2.5t-17 4.5t-18.5 7t-15.5 10.5q-10 8 -20.5 21t-22 35t-17 33t-17 38t-11.5 28q-2 6 -11.5 29.5t-16 38.5t-17 36t-21 37.5t-20.5 26.5q-10 9 -21.5 14.5t-29 7.5 t-24.5 3t-31.5 0.5t-26.5 -0.5h-37v-276q0 -41 19 -51t84 -13v-33h-318v33q64 3 82.5 13t18.5 51v620q-1 40 -22.5 50.5t-80.5 10.5zM735 723h58q54 0 95.5 7.5t80 26.5t59.5 57.5t21 94.5q0 87 -52 130.5t-143 43.5h-59q-22 0 -35 -5.5t-18 -19t-6 -24t-1 -33.5v-6v-272z " />
<glyph unicode="&#xaf;" horiz-adv-x="942" d="M141 1237q0 48 29.5 64t79.5 16h450q107 0 107 -78q0 -80 -107 -80h-450q-51 0 -80 15.5t-29 62.5z" />
<glyph unicode="&#xb0;" horiz-adv-x="819" d="M102 1126q-2 126 89 217t219 91q126 0 216.5 -91t90.5 -217q0 -127 -90.5 -217t-216.5 -90q-128 0 -218 90t-90 217zM184 1126q0 -94 66 -159.5t160 -65.5q93 0 159 66t66 159q0 92 -66.5 159t-160.5 67q-92 0 -158.5 -67t-65.5 -159z" />
<glyph unicode="&#xb1;" horiz-adv-x="1269" d="M104 -10v155h1033v-155h-1033zM104 606v156h439v307h155v-307h439v-156h-439v-307h-155v307h-439z" />
<glyph unicode="&#xb2;" horiz-adv-x="811" d="M35 668q0 65 25.5 116t67 82t94.5 57.5t108 43t108 37.5t94.5 41.5t67 54.5t25.5 78q0 86 -63.5 128t-158.5 42q-93 0 -156 -37.5t-63 -79.5q0 -9 11 -13.5t25 -7t25 -15.5t11 -36q0 -32 -27 -55t-61 -23q-49 0 -77 31.5t-28 77.5q0 58 32.5 106t84 77t111 45t119.5 16 q61 0 117.5 -14.5t106 -43.5t79.5 -80t30 -116q0 -68 -30 -117t-78.5 -76t-108 -46.5t-122 -36.5t-116.5 -38t-95 -59t-54 -92l4 -4q55 61 148 61q48 0 86.5 -18t83.5 -52q1 -1 14 -10.5t15 -10.5t13.5 -9t15 -9.5t14 -7.5t15 -8t14 -5.5t16 -5t15.5 -2.5t17 -1 q38 0 61 25.5t23 62.5q0 10 -6 22q-17 -20 -45 -20q-27 0 -44 14.5t-17 40.5q0 31 24 49.5t58 18.5q57 0 84.5 -36t27.5 -91q0 -72 -51.5 -129.5t-128.5 -57.5q-34 0 -69.5 12.5t-54.5 24t-54 35.5q-46 35 -84.5 53.5t-87.5 18.5q-35 0 -63 -12t-33 -39h14q16 0 28.5 -9.5 t12.5 -25.5q0 -26 -19 -42t-47 -16q-55 0 -79.5 39.5t-24.5 96.5z" />
<glyph unicode="&#xb3;" horiz-adv-x="811" d="M37 776q0 56 35 97.5t94 41.5q35 0 57.5 -20.5t22.5 -52.5q0 -29 -20.5 -44.5t-51.5 -15.5q-24 0 -24 -16q0 -46 66.5 -97t182.5 -51q111 0 184.5 59t73.5 159q0 79 -52.5 120t-147.5 41q-27 0 -58 -3.5t-52 -7t-25 -3.5q-16 0 -24.5 10.5t-8.5 24.5q0 18 33 45l264 248 h-291h-18.5h-21.5t-19.5 -1t-19.5 -3t-16 -6.5t-14.5 -10.5t-8 -15.5t-3.5 -21.5t2 -35.5t2 -37.5q0 -20 -2.5 -32t-14 -22t-32.5 -10q-45 0 -45 53v183q0 31 13 44t48 13h527q82 0 82 -45q0 -32 -45 -72l-230 -213h23q121 0 196.5 -67t75.5 -178q0 -127 -101 -214.5 t-280 -87.5q-61 0 -122 14.5t-114.5 43t-86.5 77t-33 109.5z" />
<glyph unicode="&#xb4;" horiz-adv-x="696" d="M180 1182q0 6 2 12t4 9.5t7 9t7 8t8.5 8t8.5 6.5l217 186q46 43 88 43q38 0 65 -29.5t27 -68.5q0 -60 -77 -90l-285 -105q-4 -1 -13.5 -4.5t-17 -5.5t-14.5 -2q-10 0 -18.5 6.5t-8.5 16.5z" />
<glyph unicode="&#xb5;" horiz-adv-x="1310" d="M-16 967q0 34 28.5 54.5t71.5 20.5q19 0 58.5 -11t60.5 -11q19 0 58 11t58 11q40 0 54 -21.5t14 -62.5q0 -89 -6 -190.5t-6 -165.5v-92q0 -197 22 -274q22 -73 86.5 -110.5t145.5 -37.5q97 0 169 44.5t99 131.5q33 102 33 336v139q0 86 -20.5 129t-53.5 43q-18 0 -49 -6 t-45 -6q-31 0 -50.5 19.5t-19.5 48.5q0 34 28 54.5t68 20.5q24 0 65.5 -11t61.5 -11t59 11t58 11q62 0 62 -69q0 -50 -3.5 -151t-3.5 -156v-385q0 -101 14 -136.5t46 -35.5q18 0 49 6t45 6q31 0 50.5 -19.5t19.5 -48.5q0 -34 -27 -55t-61 -21q-19 0 -58 11.5t-59 11.5 q-21 0 -60.5 -11.5t-58.5 -11.5q-31 0 -41 29.5t-8 95.5h-4q-99 -153 -332 -153q-123 0 -219 51q0 -57 1 -161t1 -144q0 -109 -88 -109t-88 115q0 91 4 293.5t4 306.5v438q0 172 -70 172q-18 0 -49 -6t-45 -6q-31 0 -50 19.5t-19 48.5z" />
<glyph unicode="&#xb6;" d="M111 979q0 219 102 321q100 105 315 105q58 0 169 -10.5t155 -12.5q45 2 150.5 12.5t162.5 10.5q36 0 63 -21.5t27 -56.5q0 -29 -19 -48t-50 -19q-14 0 -38 6t-38 6q-15 0 -26.5 -8t-18 -27t-10.5 -34.5t-6 -47t-2 -47v-50.5v-20v-1314v-12q0 -25 -1 -37.5t-6.5 -29 t-19.5 -23.5t-37 -7q-14 0 -25 2.5t-18.5 5.5t-12.5 10.5t-7.5 12t-3.5 17t-1.5 17.5t0 21.5t0.5 22.5v1439q0 3 0.5 19.5t0 20.5t-2 17t-5 17t-9 11t-15 9.5t-22.5 2.5t-22.5 -2.5t-15 -9.5t-9 -11t-5 -17t-2 -17t0 -20.5t0.5 -19.5v-1480q0 -35 -15 -51.5t-49 -16.5 q-14 0 -24.5 3t-18 6t-12 11t-7.5 12.5t-4 17.5t-1 17.5v21v20.5v825q-3 5 -6.5 8.5t-7.5 5.5t-10 4t-9.5 2.5t-10.5 1t-10 0.5h-10h-8h-59q-219 0 -327.5 94t-108.5 314zM248 973q0 -151 76 -211t225 -60q28 0 48 2t34.5 6.5t23 11.5t14 17.5t7 24t2.5 31t0 39.5v26v258 v15.5v18.5t-1 16.5t-2.5 18.5t-4.5 15.5t-8 15.5t-11 11q-32 28 -139 28q-71 0 -123.5 -16.5t-85.5 -64.5q-55 -75 -55 -203z" />
<glyph unicode="&#xb7;" horiz-adv-x="696" d="M205 551q0 55 38.5 94t94.5 39q54 0 92.5 -39t38.5 -94q0 -54 -38.5 -92.5t-92.5 -38.5q-55 0 -94 38.5t-39 92.5z" />
<glyph unicode="&#xb8;" horiz-adv-x="696" d="M141 -279q0 18 13 32t30 14q20 0 43 -23q48 -51 111 -51q39 0 71.5 17.5t32.5 53.5q0 35 -25.5 52.5t-62.5 17.5q-27 0 -65 -14q-4 -1 -14 -5t-18.5 -6t-16.5 -2q-23 0 -23 21q0 7 19 55l45 107h94l-31 -80q9 0 26 2t25 2q64 0 116 -40t52 -103q0 -54 -35.5 -92.5 t-83.5 -54t-102 -15.5q-34 0 -78.5 11t-83.5 38t-39 63z" />
<glyph unicode="&#xb9;" horiz-adv-x="811" d="M170 596q0 19 12 31t31 12q12 0 32.5 -3t30.5 -3q36 0 50 14.5t18 50.5t4 131v301q0 134 -11 166.5t-61 32.5q-10 0 -30.5 -3t-32.5 -3q-19 0 -31 12t-12 29q0 21 14.5 33t26.5 12q17 0 53 -7t55 -7t54.5 7t52.5 7q41 0 41 -33q0 -6 -2 -24t-2 -27v-496q0 -91 7 -132.5 t20.5 -52.5t44.5 -11q11 0 32 3t33 3q19 0 30 -12t11 -31q0 -21 -16 -32t-39 -11q-16 0 -80.5 6t-102.5 6t-100.5 -6t-77.5 -6q-22 0 -38.5 11.5t-16.5 31.5z" />
<glyph unicode="&#xba;" horiz-adv-x="901" d="M113 612v70h673v-70h-673zM141 1098q0 147 81 241.5t227 94.5q142 0 219 -82q43 -46 66.5 -113t23.5 -133q0 -156 -83 -252t-237 -96q-95 0 -163.5 47t-101 123t-32.5 170zM260 1098q0 -46 9.5 -87t29.5 -77t56.5 -57t84.5 -21q102 0 150.5 66.5t48.5 173.5 q0 243 -193 243q-95 0 -140.5 -70t-45.5 -171z" />
<glyph unicode="&#xbb;" horiz-adv-x="696" d="M139 199q0 11 15 51l104 305l-100 289q-13 43 -13 55q0 14 8 22.5t21 8.5q18 0 43 -43l184 -293q1 -2 7 -10.5t10 -16.5t4 -12q0 -7 -7.5 -19t-11.5 -16l-188 -309q-1 -1 -8 -13t-10 -15t-11 -8t-18 -5q-12 0 -20.5 8.5t-8.5 20.5zM399 199q0 6 13 51l104 305l-98 289 q-15 38 -15 55q0 31 31 31q5 0 9.5 -2.5t8 -5.5t7.5 -8.5t6 -8.5t5.5 -10t4.5 -8l184 -293q21 -28 21 -39q0 -4 -3.5 -11.5t-8.5 -15.5t-6 -10l-189 -307q-1 -2 -6 -10t-7.5 -11.5t-7.5 -9t-11 -8t-13 -2.5q-12 0 -20.5 8t-8.5 21z" />
<glyph unicode="&#xbc;" horiz-adv-x="2027" d="M203 596q0 19 12 31t31 12q12 0 32.5 -3t30.5 -3q36 0 50 14.5t18 50.5t4 131v301q0 134 -11 166.5t-61 32.5q-10 0 -30.5 -3t-32.5 -3q-19 0 -31 12t-12 29q0 21 14.5 33t26.5 12q17 0 53 -7t55 -7t54.5 7t52.5 7q41 0 41 -33q0 -6 -2 -24t-2 -27v-496q0 -92 6.5 -132.5 t20 -52t44.5 -11.5q11 0 33 3t33 3q19 0 30 -12t11 -31q0 -21 -16.5 -32t-39.5 -11q-16 0 -80 6t-102 6t-100.5 -6t-77.5 -6q-22 0 -38.5 11.5t-16.5 31.5zM506 6q0 6 16 33l852 1325q21 32 28 36.5t44 4.5h16.5h15t11 -0.5t8.5 -2t4.5 -4t1 -7t-4.5 -11.5t-9 -16 l-856 -1337q-21 -30 -26.5 -33.5t-41.5 -3.5q-3 0 -11.5 -1t-15.5 -1t-15 1t-12.5 5t-4.5 12zM1034 301q0 19 29 53l321 396q88 116 160 116q26 0 42 -8.5t23 -25.5t9 -31.5t2 -38.5v-422h135q62 0 62 -43q0 -27 -16.5 -36t-47.5 -9h-133v-37q0 -66 7.5 -98.5t18.5 -39.5 t35 -7q9 0 37 2t51 2q18 0 30.5 -12.5t12.5 -30.5q0 -22 -16.5 -33.5t-38.5 -11.5q-13 0 -76.5 7t-101.5 7t-100.5 -7t-77.5 -7q-90 0 -90 45q0 18 11.5 30.5t31.5 12.5q22 0 51 -2t39 -2q14 0 25 5t17.5 17t11 20.5t6 27.5t2 26t0.5 28l-1 21v37h-387q-84 0 -84 49z M1169 340h336v412h-4z" />
<glyph unicode="&#xbd;" horiz-adv-x="2027" d="M170 596q0 19 12 31t31 12q12 0 32.5 -3t30.5 -3q36 0 50 14.5t18 50.5t4 131v301q0 134 -11 166.5t-61 32.5q-10 0 -30.5 -3t-32.5 -3q-19 0 -31 12t-12 29q0 21 14.5 33t26.5 12q17 0 53 -7t55 -7t54.5 7t52.5 7q41 0 41 -33q0 -6 -2 -24t-2 -27v-496q0 -91 7 -132.5 t20.5 -52.5t44.5 -11q11 0 32 3t33 3q19 0 30 -12t11 -31q0 -21 -16 -32t-39 -11q-16 0 -80.5 6t-102.5 6t-100.5 -6t-77.5 -6q-22 0 -38.5 11.5t-16.5 31.5zM424 6q0 6 16 33l852 1325q21 32 28 36.5t44 4.5h16.5h15t11 -0.5t8.5 -2t4.5 -4t1 -7t-4.5 -11.5t-9 -16 l-856 -1337q-21 -30 -26.5 -33.5t-41.5 -3.5q-3 0 -11.5 -1t-15.5 -1t-15 1t-12.5 5t-4.5 12zM1114 100q0 65 25.5 116t67 82t94.5 57.5t108 43t108 37.5t94.5 41.5t67 54.5t25.5 78q0 86 -63 128t-158 42q-93 0 -156 -37t-63 -79q0 -9 11 -13.5t24.5 -7t24.5 -15.5t11 -36 q0 -32 -27 -55t-61 -23q-49 0 -76.5 31t-27.5 78q0 77 55.5 134t132.5 83t158 26q48 0 94 -8.5t90 -28.5t77 -48.5t53 -72t20 -96.5q0 -68 -30 -117t-78.5 -76t-108 -46.5t-122 -36.5t-116.5 -38t-95 -59t-54 -92l4 -4q56 62 147 62q48 0 86.5 -18t83.5 -52 q36 -26 50.5 -35.5t43.5 -21.5t56 -12q38 0 61 25.5t23 62.5q0 8 -7 22q-17 -20 -45 -20q-27 0 -44 14.5t-17 40.5q0 31 24 49.5t58 18.5q57 0 84.5 -36t27.5 -91q0 -72 -51.5 -129.5t-128.5 -57.5q-34 0 -69.5 12.5t-54.5 24t-54 35.5q-46 35 -84.5 53.5t-87.5 18.5 q-34 0 -62.5 -12.5t-33.5 -39.5h14q16 0 28.5 -9t12.5 -25q0 -26 -18.5 -42t-46.5 -16q-55 0 -80 39t-25 96z" />
<glyph unicode="&#xbe;" horiz-adv-x="2027" d="M143 776q0 56 35 97.5t94 41.5q35 0 57.5 -20.5t22.5 -52.5q0 -29 -20 -44.5t-51 -15.5q-25 0 -25 -16q0 -46 67 -97t183 -51q111 0 184.5 59t73.5 159q0 78 -53 119.5t-148 41.5q-27 0 -58 -3.5t-52 -7t-25 -3.5q-16 0 -24.5 10.5t-8.5 24.5q0 18 33 45l264 248h-291 h-18.5h-21t-19.5 -1t-20 -3t-15.5 -6.5t-14 -10.5t-8 -15.5t-3.5 -21.5t2 -35.5t2 -37.5q0 -20 -2.5 -32t-14 -22t-32.5 -10q-23 0 -34.5 15.5t-11.5 37.5v183q0 31 13.5 44t48.5 13h526q82 0 82 -45q0 -32 -45 -72l-229 -213h22q121 0 197 -67t76 -178q0 -127 -101 -214.5 t-280 -87.5q-61 0 -122 14.5t-114.5 43t-87 77t-33.5 109.5zM616 6q0 5 2.5 10.5t8 13t6.5 9.5l852 1325q3 5 8.5 13.5t7.5 10.5t5 7t6 5.5t6 2.5t9.5 1.5t11.5 0t17 0.5h16.5h15t11 -0.5t8.5 -2t4.5 -4t1 -7t-4.5 -11.5t-9 -16l-856 -1337q-21 -31 -25 -33q-6 -4 -42 -4 q-3 0 -11.5 -1t-16 -1t-15.5 1t-12.5 5t-4.5 12zM1141 301q0 20 28 53l322 396q88 116 160 116q34 0 51.5 -17t20.5 -35.5t3 -51.5v-422h136q61 0 61 -43q0 -27 -16 -36t-47 -9h-134v-37q0 -66 8 -98.5t19 -39.5t35 -7q9 0 37 2t51 2q18 0 30.5 -12.5t12.5 -30.5 q0 -22 -16.5 -33.5t-38.5 -11.5q-13 0 -76.5 7t-101.5 7t-101 -7t-78 -7q-90 0 -90 45q0 18 11.5 30.5t31.5 12.5q22 0 51 -2t39 -2q11 0 20.5 3t15.5 10t11 14t7.5 19t4.5 20t2.5 22t0.5 20.5v20v16.5v37h-387q-84 0 -84 49zM1276 340h336v412h-4z" />
<glyph unicode="&#xbf;" horiz-adv-x="1228" d="M80 10q0 75 24 135.5t71.5 105.5t99 76t124.5 62q44 19 66 29t55.5 31t49.5 41.5t29 53t13 72.5q0 25 2 40.5t9 33t23 26.5t42 9q92 0 92 -102q0 -54 -15.5 -101t-39.5 -81t-63 -67t-75.5 -56t-88.5 -50q-5 -3 -35 -18.5t-36.5 -19t-32 -18.5t-33 -21.5t-27.5 -22 t-26.5 -26t-19.5 -28t-17.5 -34t-8.5 -37t-4 -43.5q0 -66 31 -116.5t82.5 -79t109.5 -42.5t121 -14q140 0 232 53q62 34 102.5 86t40.5 115q0 61 -53 88l2 -18q0 -32 -25 -51t-59 -19q-40 0 -64 27.5t-24 66.5q0 65 52.5 102.5t119.5 37.5q92 0 150.5 -64t58.5 -154 q0 -94 -45.5 -172.5t-126.5 -134.5q-71 -48 -168.5 -72t-194.5 -24q-91 0 -185.5 21t-160.5 63q-82 51 -128 133.5t-46 177.5zM543 938q0 55 38.5 94t92.5 39q56 0 94.5 -38.5t38.5 -94.5q0 -54 -39 -92.5t-94 -38.5q-54 0 -92.5 38.5t-38.5 92.5z" />
<glyph unicode="&#xc0;" horiz-adv-x="1597" d="M-18 51q0 30 18 50t47 20q23 0 52 -4t40 -4q42 0 64 43q15 23 55 129l375 1009q24 62 51.5 86.5t89.5 24.5q59 0 86 -25t49 -86l363 -997q30 -92 57 -133q21 -31 43 -42t60 -11q15 0 49.5 4t54.5 6q29 0 47.5 -20t18.5 -50q0 -35 -26.5 -54.5t-62.5 -19.5 q-21 0 -118.5 11.5t-155.5 11.5t-155.5 -11.5t-118.5 -11.5q-117 0 -117 74q0 30 18 50t47 20q35 -1 79 -5.5t61 -4.5q27 0 46 14.5t19 40.5q0 16 -24 80l-56 155q-24 59 -36 68.5t-62 9.5h-20h-318q-41 0 -56 -2.5t-30.5 -17.5t-28.5 -51l-61 -162q-16 -50 -16 -70 q0 -65 77 -65q18 0 59.5 5t71.5 5q29 0 47.5 -20t18.5 -50q0 -35 -26 -54.5t-62 -19.5q-21 0 -118.5 11.5t-155.5 11.5t-156 -11.5t-119 -11.5t-43 20.5t-22 53.5zM520 1729q0 39 26.5 68.5t65.5 29.5q40 0 86 -43l217 -187q2 -2 10 -8t11 -9.5t8.5 -9.5t7.5 -12.5t2 -13.5 q0 -10 -8.5 -16t-19.5 -6q-7 0 -14.5 2t-17 5.5t-13.5 4.5l-283 104q-78 29 -78 91zM576.5 624.5q6.5 -6.5 50.5 -6.5h276q1 0 9.5 -0.5t13.5 0t12 1.5t10.5 5t3.5 11q0 13 -8 37l-178 553h-4l-180 -553q-12 -41 -5.5 -47.5z" />
<glyph unicode="&#xc1;" horiz-adv-x="1597" d="M-18 51q0 30 18 50t47 20q23 0 52 -4t40 -4q42 0 64 43q15 23 55 129l375 1009q24 62 51.5 86.5t89.5 24.5q59 0 86 -25t49 -86l363 -997q30 -92 57 -133q21 -31 43 -42t60 -11q15 0 49.5 4t54.5 6q29 0 47.5 -20t18.5 -50q0 -35 -26.5 -54.5t-62.5 -19.5 q-21 0 -118.5 11.5t-155.5 11.5t-155.5 -11.5t-118.5 -11.5q-117 0 -117 74q0 30 18 50t47 20q35 -1 79 -5.5t61 -4.5q27 0 46 14.5t19 40.5q0 16 -24 80l-56 155q-24 59 -36 68.5t-62 9.5h-20h-318q-41 0 -56 -2.5t-30.5 -17.5t-28.5 -51l-61 -162q-16 -50 -16 -70 q0 -65 77 -65q18 0 59.5 5t71.5 5q29 0 47.5 -20t18.5 -50q0 -35 -26 -54.5t-62 -19.5q-21 0 -118.5 11.5t-155.5 11.5t-156 -11.5t-119 -11.5t-43 20.5t-22 53.5zM576.5 624.5q6.5 -6.5 50.5 -6.5h276q1 0 9.5 -0.5t13.5 0t12 1.5t10.5 5t3.5 11q0 13 -8 37l-178 553h-4 l-180 -553q-12 -41 -5.5 -47.5zM631 1544q0 6 2 12t4 9.5t7 9t7 8t8.5 8t8.5 6.5l217 187q46 43 88 43q38 0 65 -29.5t27 -68.5q0 -61 -78 -91l-285 -104q-4 -1 -13.5 -4.5t-17 -5.5t-14.5 -2q-10 0 -18 6t-8 16z" />
<glyph unicode="&#xc2;" horiz-adv-x="1597" d="M-18 51q0 30 18 50t47 20q23 0 52 -4t40 -4q42 0 64 43q15 23 55 129l375 1009q24 62 51.5 86.5t89.5 24.5q59 0 86 -25t49 -86l363 -997q30 -92 57 -133q21 -31 43 -42t60 -11q15 0 49.5 4t54.5 6q29 0 47.5 -20t18.5 -50q0 -35 -26.5 -54.5t-62.5 -19.5 q-21 0 -118.5 11.5t-155.5 11.5t-155.5 -11.5t-118.5 -11.5q-117 0 -117 74q0 30 18 50t47 20q35 -1 79 -5.5t61 -4.5q27 0 46 14.5t19 40.5q0 16 -24 80l-56 155q-24 59 -36 68.5t-62 9.5h-20h-318q-41 0 -56 -2.5t-30.5 -17.5t-28.5 -51l-61 -162q-16 -50 -16 -70 q0 -65 77 -65q18 0 59.5 5t71.5 5q29 0 47.5 -20t18.5 -50q0 -35 -26 -54.5t-62 -19.5q-21 0 -118.5 11.5t-155.5 11.5t-156 -11.5t-119 -11.5t-43 20.5t-22 53.5zM408 1526q0 6 5.5 12.5t11 11t14 10t10.5 7.5l282 200q33 25 43 25q4 0 12.5 -5t18.5 -13l10 -7l287 -200 q1 0 6 -4t6.5 -5t6 -4.5t6 -6t4 -6t3.5 -7.5t1 -8q0 -11 -8 -18t-19 -7q-16 0 -43 8t-68.5 23.5t-42.5 15.5q-18 7 -58 20.5t-71 25.5t-57 26q-59 -28 -179.5 -74.5t-150.5 -46.5t-30 27zM576.5 624.5q6.5 -6.5 50.5 -6.5h276q1 0 9.5 -0.5t13.5 0t12 1.5t10.5 5t3.5 11 q0 13 -8 37l-178 553h-4l-180 -553q-12 -41 -5.5 -47.5z" />
<glyph unicode="&#xc3;" horiz-adv-x="1597" d="M-18 51q0 30 18 50t47 20q23 0 52 -4t40 -4q42 0 64 43q15 23 55 129l375 1009q24 62 51.5 86.5t89.5 24.5q59 0 86 -25t49 -86l363 -997q30 -92 57 -133q21 -31 43 -42t60 -11q15 0 49.5 4t54.5 6q29 0 47.5 -20t18.5 -50q0 -35 -26.5 -54.5t-62.5 -19.5 q-21 0 -118.5 11.5t-155.5 11.5t-155.5 -11.5t-118.5 -11.5q-117 0 -117 74q0 30 18 50t47 20q35 -1 79 -5.5t61 -4.5q27 0 46 14.5t19 40.5q0 16 -24 80l-56 155q-24 59 -36 68.5t-62 9.5h-20h-318q-41 0 -56 -2.5t-30.5 -17.5t-28.5 -51l-61 -162q-16 -50 -16 -70 q0 -65 77 -65q18 0 59.5 5t71.5 5q29 0 47.5 -20t18.5 -50q0 -35 -26 -54.5t-62 -19.5q-21 0 -118.5 11.5t-155.5 11.5t-156 -11.5t-119 -11.5t-43 20.5t-22 53.5zM469 1544q0 48 39 111q53 78 164 78q15 0 33 -3t32 -6t36 -10l33 -10.5t34.5 -12t29.5 -10.5q4 -2 22.5 -8.5 t26 -9t22.5 -7t26.5 -6t23.5 -1.5q25 0 45 10.5t30 23t20.5 23t19.5 10.5q24 0 24 -28q0 -49 -30 -103q-56 -84 -164 -84q-50 0 -166 40t-164 40q-52 0 -82 -43q-2 -2 -5.5 -8.5t-5.5 -9.5t-6.5 -6t-10.5 -3q-27 0 -27 33zM576.5 624.5q6.5 -6.5 50.5 -6.5h276q1 0 9.5 -0.5 t13.5 0t12 1.5t10.5 5t3.5 11q0 13 -8 37l-178 553h-4l-180 -553q-12 -41 -5.5 -47.5z" />
<glyph unicode="&#xc4;" horiz-adv-x="1597" d="M-18 51q0 30 18 50t47 20q23 0 52 -4t40 -4q42 0 64 43q15 23 55 129l375 1009q24 62 51.5 86.5t89.5 24.5q59 0 86 -25t49 -86l363 -997q30 -92 57 -133q21 -31 43 -42t60 -11q15 0 49.5 4t54.5 6q29 0 47.5 -20t18.5 -50q0 -35 -26.5 -54.5t-62.5 -19.5 q-21 0 -118.5 11.5t-155.5 11.5t-155.5 -11.5t-118.5 -11.5q-117 0 -117 74q0 30 18 50t47 20q35 -1 79 -5.5t61 -4.5q27 0 46 14.5t19 40.5q0 16 -24 80l-56 155q-24 59 -36 68.5t-62 9.5h-20h-318q-41 0 -56 -2.5t-30.5 -17.5t-28.5 -51l-61 -162q-16 -50 -16 -70 q0 -65 77 -65q18 0 59.5 5t71.5 5q29 0 47.5 -20t18.5 -50q0 -35 -26 -54.5t-62 -19.5q-21 0 -118.5 11.5t-155.5 11.5t-156 -11.5t-119 -11.5t-43 20.5t-22 53.5zM471 1638q0 50 34 84.5t83 34.5q50 0 84.5 -34.5t34.5 -84.5q0 -49 -34.5 -82.5t-84.5 -33.5 q-48 0 -82.5 33.5t-34.5 82.5zM576.5 624.5q6.5 -6.5 50.5 -6.5h276q1 0 9.5 -0.5t13.5 0t12 1.5t10.5 5t3.5 11q0 13 -8 37l-178 553h-4l-180 -553q-12 -41 -5.5 -47.5zM846 1638q0 50 35 84.5t84 34.5q47 0 81.5 -35t34.5 -84t-34 -82.5t-82 -33.5q-50 0 -84.5 33.5 t-34.5 82.5z" />
<glyph unicode="&#xc5;" horiz-adv-x="1597" d="M-18 51q0 30 18 50t47 20q23 0 52 -4t40 -4q42 0 64 43q15 23 55 129l375 1009q24 62 51.5 86.5t89.5 24.5q59 0 86 -25t49 -86l363 -997q30 -92 57 -133q21 -31 43 -42t60 -11q15 0 49.5 4t54.5 6q29 0 47.5 -20t18.5 -50q0 -35 -26.5 -54.5t-62.5 -19.5 q-21 0 -118.5 11.5t-155.5 11.5t-155.5 -11.5t-118.5 -11.5q-117 0 -117 74q0 30 18 50t47 20q35 -1 79 -5.5t61 -4.5q27 0 46 14.5t19 40.5q0 16 -24 80l-56 155q-24 59 -36 68.5t-62 9.5h-20h-318q-41 0 -56 -2.5t-30.5 -17.5t-28.5 -51l-61 -162q-16 -50 -16 -70 q0 -65 77 -65q18 0 59.5 5t71.5 5q29 0 47.5 -20t18.5 -50q0 -35 -26 -54.5t-62 -19.5q-21 0 -118.5 11.5t-155.5 11.5t-156 -11.5t-119 -11.5t-43 20.5t-22 53.5zM576.5 624.5q6.5 -6.5 50.5 -6.5h276q1 0 9.5 -0.5t13.5 0t12 1.5t10.5 5t3.5 11q0 13 -8 37l-178 553h-4 l-180 -553q-12 -41 -5.5 -47.5zM612 1626q0 68 48 116t116 48t116 -48t48 -116q0 -69 -48 -117.5t-116 -48.5t-116 48.5t-48 117.5zM690 1626q0 -36 25 -61t61 -25t61 25t25 61q0 35 -25.5 59.5t-60.5 24.5t-60.5 -24.5t-25.5 -59.5z" />
<glyph unicode="&#xc6;" horiz-adv-x="2170" d="M-6 51q0 30 18 50t47 20q18 0 45.5 -6t40.5 -6q33 0 53.5 22t77.5 111l685 1083q20 30 30.5 43.5t31 25t46.5 11.5q64 0 171.5 -11.5t174.5 -11.5q87 0 276 11.5t287 11.5q44 0 70.5 -26t26.5 -66q0 -25 -6.5 -107t-6.5 -133q0 -31 6.5 -91t6.5 -91q0 -35 -23 -56.5 t-59 -21.5q-38 0 -56 25t-18 65q0 20 3 65.5t3 63.5q0 61 -10 101.5t-27.5 65t-52 36.5t-72 16t-100.5 4h-207q-56 0 -86.5 -5t-48.5 -22.5t-22.5 -42.5t-4.5 -73v-287q0 -32 7.5 -41.5t31.5 -9.5h174q58 0 85.5 27t27.5 69q0 22 -6 63.5t-6 61.5q0 90 73 90q34 0 53 -23.5 t19 -60.5q0 -51 -7 -156t-7 -159q0 -68 7 -156.5t7 -128.5q0 -34 -19.5 -55.5t-54.5 -21.5q-34 0 -53.5 22t-19.5 57q0 22 6 69t6 71q0 54 -31.5 74t-118.5 20h-116q-36 0 -47 -7.5t-11 -33.5v-326q0 -93 23 -121t102 -28h314q72 0 116.5 11t68.5 36.5t32 58t8 84.5 q0 22 -3 88.5t-3 96.5q0 82 73 82q43 0 59.5 -23t16.5 -68q0 -34 -4 -102t-4 -102t4 -101.5t4 -101.5q0 -44 -28 -73.5t-84 -29.5q-108 0 -325 11.5t-339 11.5q-75 0 -197.5 -11.5t-183.5 -11.5q-96 0 -96 74q0 30 18 50t47 20q17 0 50 -5t49 -5q27 0 44 4t29.5 19.5 t18.5 30.5t9.5 54t4 71t0.5 99v191q0 38 -13.5 48.5t-55.5 10.5h-299q-38 0 -56 -23q-22 -27 -63 -102l-158 -278q-7 -12 -17 -29.5t-14.5 -26t-10 -18.5t-7.5 -16t-2 -11q0 -24 39 -24q14 0 41.5 5t40.5 5q29 0 47 -20t18 -50q0 -74 -65 -74q-28 0 -110 11.5t-132 11.5 q-42 0 -121 -11.5t-121 -11.5q-65 0 -65 74zM793 776h272q14 0 22 0.5t14.5 3.5t9.5 4t4.5 9t1.5 12t0.5 18t0.5 23v414v36q-1 0 -5 -6.5t-9 -15t-6 -10.5z" />
<glyph unicode="&#xc7;" d="M76 672q0 139 35 275.5t108 238.5q84 119 211.5 183.5t274.5 64.5q251 0 380 -172l5 4q-1 11 -5 44t-4 50q0 30 18 50t48 20q35 0 53.5 -25.5t18.5 -63.5q0 -41 -7.5 -124.5t-7.5 -124.5q0 -46 7.5 -116t7.5 -99q0 -40 -21.5 -60t-56.5 -20q-52 0 -66 25t-14 102 q0 68 -9.5 118.5t-41.5 100.5q-45 72 -125.5 109.5t-171.5 37.5q-99 0 -177.5 -35t-128.5 -92.5t-83 -136t-46.5 -160.5t-13.5 -172q0 -89 13.5 -171t47 -162t84 -138.5t130 -94.5t178.5 -36q91 0 173 34.5t134 102.5q68 89 68 228q0 46 17.5 71t61.5 25q86 0 86 -94 q0 -148 -70 -263t-189.5 -177.5t-268.5 -67.5l-16 -41q9 0 26 2t25 2q64 0 116 -40t52 -103q0 -54 -35.5 -92.5t-83.5 -54t-102 -15.5q-34 0 -78.5 11t-83.5 38t-39 63q0 18 13 32t30 14q20 0 43 -23q48 -51 111 -51q39 0 71.5 17.5t32.5 53.5q0 35 -25.5 52.5t-62.5 17.5 q-28 0 -66 -14q-4 -1 -14 -5t-18.5 -6t-16.5 -2q-22 0 -22 21q0 10 18 55l29 70q-111 10 -203 54t-157 111.5t-110 156t-66 188.5t-21 209z" />
<glyph unicode="&#xc8;" horiz-adv-x="1392" d="M35 51q0 30 18 50t47 20q16 0 49 -5t50 -5q83 0 100 75q10 43 10 254v502q0 10 0.5 44.5t0 57.5t-1 54.5t-3 56t-6.5 41.5q-17 76 -100 76q-17 0 -50 -5t-49 -5q-29 0 -47 19.5t-18 49.5q0 35 26 54.5t62 19.5q43 0 155 -11.5t197 -11.5q129 0 357 11.5t335 11.5 q55 0 82 -22.5t27 -75.5q0 -38 -8 -113t-8 -113q0 -35 8 -101.5t8 -100.5t-22 -56t-56 -22q-45 0 -60.5 31.5t-15.5 119.5q0 132 -7 179.5t-38 80.5q-24 26 -83.5 34.5t-241.5 8.5q-116 0 -160.5 -5t-69.5 -23q-22 -15 -29.5 -44t-7.5 -102v-166q0 -36 0.5 -47.5t4.5 -23.5 t14 -19q4 -3 8 -5t9.5 -3.5t10 -2.5t12 -1.5t12 -1t15 -0.5h15.5h18h19q98 0 137 20t39 72q0 22 -6.5 66t-6.5 65q0 38 19 62t55 24q39 0 58.5 -26.5t19.5 -67.5q0 -11 -11 -115t-9 -188q-2 -80 9 -175t11 -118q0 -33 -21.5 -52.5t-54.5 -19.5q-76 0 -76 88q0 23 6.5 68.5 t6.5 67.5q0 53 -33 71.5t-131 18.5q-47 0 -62.5 -0.5t-35 -4t-31.5 -12.5q-12 -10 -16.5 -33.5t-4.5 -86.5v-152l7 -143q3 -79 33 -100t139 -21h241q71 0 113.5 6t76 24.5t47 54t13.5 93.5q0 31 -6 92t-6 92q0 41 19 69t59 28q79 0 79 -95q0 -35 -4 -103.5t-4 -103.5 q0 -34 4 -102t4 -102q0 -95 -133 -95q-107 0 -335 11.5t-357 11.5q-85 0 -197 -11.5t-155 -11.5q-41 0 -64.5 19t-23.5 55zM449 1729q0 39 26.5 68.5t65.5 29.5q40 0 86 -43l217 -187q2 -2 10 -8t11 -9.5t8.5 -9.5t7.5 -12.5t2 -13.5q0 -10 -9 -16t-20 -6q-7 0 -14.5 2 t-17 5.5t-13.5 4.5l-283 104q-77 29 -77 91z" />
<glyph unicode="&#xc9;" horiz-adv-x="1392" d="M35 51q0 30 18 50t47 20q16 0 49 -5t50 -5q83 0 100 75q10 43 10 254v502q0 10 0.5 44.5t0 57.5t-1 54.5t-3 56t-6.5 41.5q-17 76 -100 76q-17 0 -50 -5t-49 -5q-29 0 -47 19.5t-18 49.5q0 35 26 54.5t62 19.5q43 0 155 -11.5t197 -11.5q129 0 357 11.5t335 11.5 q55 0 82 -22.5t27 -75.5q0 -38 -8 -113t-8 -113q0 -35 8 -101.5t8 -100.5t-22 -56t-56 -22q-45 0 -60.5 31.5t-15.5 119.5q0 132 -7 179.5t-38 80.5q-24 26 -83.5 34.5t-241.5 8.5q-116 0 -160.5 -5t-69.5 -23q-22 -15 -29.5 -44t-7.5 -102v-166q0 -36 0.5 -47.5t4.5 -23.5 t14 -19q4 -3 8 -5t9.5 -3.5t10 -2.5t12 -1.5t12 -1t15 -0.5h15.5h18h19q98 0 137 20t39 72q0 22 -6.5 66t-6.5 65q0 38 19 62t55 24q39 0 58.5 -26.5t19.5 -67.5q0 -11 -11 -115t-9 -188q-2 -80 9 -175t11 -118q0 -33 -21.5 -52.5t-54.5 -19.5q-76 0 -76 88q0 23 6.5 68.5 t6.5 67.5q0 53 -33 71.5t-131 18.5q-47 0 -62.5 -0.5t-35 -4t-31.5 -12.5q-12 -10 -16.5 -33.5t-4.5 -86.5v-152l7 -143q3 -79 33 -100t139 -21h241q71 0 113.5 6t76 24.5t47 54t13.5 93.5q0 31 -6 92t-6 92q0 41 19 69t59 28q79 0 79 -95q0 -35 -4 -103.5t-4 -103.5 q0 -34 4 -102t4 -102q0 -95 -133 -95q-107 0 -335 11.5t-357 11.5q-85 0 -197 -11.5t-155 -11.5q-41 0 -64.5 19t-23.5 55zM528 1544q0 6 2 12t4 9.5t7 9t7 8t8.5 8t8.5 6.5l217 187q46 43 88 43q38 0 65.5 -29.5t27.5 -68.5q0 -61 -78 -91l-285 -104q-4 -1 -13.5 -4.5 t-17 -5.5t-14.5 -2q-10 0 -18.5 6t-8.5 16z" />
<glyph unicode="&#xca;" horiz-adv-x="1392" d="M35 51q0 30 18 50t47 20q16 0 49 -5t50 -5q83 0 100 75q10 43 10 254v502q0 10 0.5 44.5t0 57.5t-1 54.5t-3 56t-6.5 41.5q-17 76 -100 76q-17 0 -50 -5t-49 -5q-29 0 -47 19.5t-18 49.5q0 35 26 54.5t62 19.5q43 0 155 -11.5t197 -11.5q129 0 357 11.5t335 11.5 q55 0 82 -22.5t27 -75.5q0 -38 -8 -113t-8 -113q0 -35 8 -101.5t8 -100.5t-22 -56t-56 -22q-45 0 -60.5 31.5t-15.5 119.5q0 132 -7 179.5t-38 80.5q-24 26 -83.5 34.5t-241.5 8.5q-116 0 -160.5 -5t-69.5 -23q-22 -15 -29.5 -44t-7.5 -102v-166q0 -36 0.5 -47.5t4.5 -23.5 t14 -19q4 -3 8 -5t9.5 -3.5t10 -2.5t12 -1.5t12 -1t15 -0.5h15.5h18h19q98 0 137 20t39 72q0 22 -6.5 66t-6.5 65q0 38 19 62t55 24q39 0 58.5 -26.5t19.5 -67.5q0 -11 -11 -115t-9 -188q-2 -80 9 -175t11 -118q0 -33 -21.5 -52.5t-54.5 -19.5q-76 0 -76 88q0 23 6.5 68.5 t6.5 67.5q0 53 -33 71.5t-131 18.5q-47 0 -62.5 -0.5t-35 -4t-31.5 -12.5q-12 -10 -16.5 -33.5t-4.5 -86.5v-152l7 -143q3 -79 33 -100t139 -21h241q71 0 113.5 6t76 24.5t47 54t13.5 93.5q0 31 -6 92t-6 92q0 41 19 69t59 28q79 0 79 -95q0 -35 -4 -103.5t-4 -103.5 q0 -34 4 -102t4 -102q0 -95 -133 -95q-107 0 -335 11.5t-357 11.5q-85 0 -197 -11.5t-155 -11.5q-41 0 -64.5 19t-23.5 55zM326 1546q0 6 5.5 12.5t11 11t14 10t10.5 7.5l282 201q32 24 43 24q5 0 41 -24l287 -201q1 0 6 -4t6.5 -5t6 -4.5t6 -6t4 -6t3.5 -7.5t1 -8 q0 -24 -27 -24q-16 0 -43 8t-68.5 23.5t-42.5 15.5q-19 7 -58.5 20t-70.5 25t-57 26q-57 -27 -178.5 -73.5t-151.5 -46.5t-30 26z" />
<glyph unicode="&#xcb;" horiz-adv-x="1392" d="M35 51q0 30 18 50t47 20q16 0 49 -5t50 -5q83 0 100 75q10 43 10 254v502q0 10 0.5 44.5t0 57.5t-1 54.5t-3 56t-6.5 41.5q-17 76 -100 76q-17 0 -50 -5t-49 -5q-29 0 -47 19.5t-18 49.5q0 35 26 54.5t62 19.5q43 0 155 -11.5t197 -11.5q129 0 357 11.5t335 11.5 q55 0 82 -22.5t27 -75.5q0 -38 -8 -113t-8 -113q0 -35 8 -101.5t8 -100.5t-22 -56t-56 -22q-45 0 -60.5 31.5t-15.5 119.5q0 132 -7 179.5t-38 80.5q-24 26 -83.5 34.5t-241.5 8.5q-116 0 -160.5 -5t-69.5 -23q-22 -15 -29.5 -44t-7.5 -102v-166q0 -36 0.5 -47.5t4.5 -23.5 t14 -19q4 -3 8 -5t9.5 -3.5t10 -2.5t12 -1.5t12 -1t15 -0.5h15.5h18h19q98 0 137 20t39 72q0 22 -6.5 66t-6.5 65q0 38 19 62t55 24q39 0 58.5 -26.5t19.5 -67.5q0 -11 -11 -115t-9 -188q-2 -80 9 -175t11 -118q0 -33 -21.5 -52.5t-54.5 -19.5q-76 0 -76 88q0 23 6.5 68.5 t6.5 67.5q0 53 -33 71.5t-131 18.5q-47 0 -62.5 -0.5t-35 -4t-31.5 -12.5q-12 -10 -16.5 -33.5t-4.5 -86.5v-152l7 -143q3 -79 33 -100t139 -21h241q71 0 113.5 6t76 24.5t47 54t13.5 93.5q0 31 -6 92t-6 92q0 41 19 69t59 28q79 0 79 -95q0 -35 -4 -103.5t-4 -103.5 q0 -34 4 -102t4 -102q0 -95 -133 -95q-107 0 -335 11.5t-357 11.5q-85 0 -197 -11.5t-155 -11.5q-41 0 -64.5 19t-23.5 55zM389 1638q0 50 34 84.5t83 34.5q50 0 84.5 -34.5t34.5 -84.5q0 -49 -34.5 -82.5t-84.5 -33.5q-48 0 -82.5 33.5t-34.5 82.5zM764 1638q0 50 35 84.5 t84 34.5q47 0 81.5 -35t34.5 -84t-34 -82.5t-82 -33.5q-50 0 -84.5 33.5t-34.5 82.5z" />
<glyph unicode="&#xcc;" horiz-adv-x="778" d="M35 51q0 30 18 50t47 20q16 0 49 -5t50 -5q83 0 100 75q4 17 6.5 41.5t3 56t1 54.5t0 57.5t-0.5 44.5v502q0 10 0.5 44.5t0 57.5t-1 54.5t-3 56t-6.5 41.5q-17 76 -100 76q-17 0 -50 -5t-49 -5q-29 0 -47 19.5t-18 49.5q0 35 26 54.5t62 19.5q45 0 133 -11.5t141 -11.5 q55 0 145 11.5t130 11.5q36 0 62 -19.5t26 -54.5q0 -30 -18.5 -49.5t-47.5 -19.5q-16 0 -49 5t-49 5q-83 0 -100 -76q-11 -54 -11 -254v-502q0 -208 11 -254q20 -75 100 -75q16 0 49 5t49 5q29 0 47.5 -20t18.5 -50q0 -35 -26 -54.5t-62 -19.5q-48 0 -135 11.5t-140 11.5 t-139 -11.5t-135 -11.5q-36 0 -62 19.5t-26 54.5zM111 1729q0 39 26.5 68.5t65.5 29.5q40 0 86 -43l217 -187q2 -2 10 -8t11 -9.5t8.5 -9.5t7.5 -12.5t2 -13.5q0 -10 -9 -16t-20 -6q-7 0 -14.5 2t-17 5.5t-13.5 4.5l-283 104q-77 29 -77 91z" />
<glyph unicode="&#xcd;" horiz-adv-x="778" d="M35 51q0 30 18 50t47 20q16 0 49 -5t50 -5q83 0 100 75q4 17 6.5 41.5t3 56t1 54.5t0 57.5t-0.5 44.5v502q0 10 0.5 44.5t0 57.5t-1 54.5t-3 56t-6.5 41.5q-17 76 -100 76q-17 0 -50 -5t-49 -5q-29 0 -47 19.5t-18 49.5q0 35 26 54.5t62 19.5q45 0 133 -11.5t141 -11.5 q55 0 145 11.5t130 11.5q36 0 62 -19.5t26 -54.5q0 -30 -18.5 -49.5t-47.5 -19.5q-16 0 -49 5t-49 5q-83 0 -100 -76q-11 -54 -11 -254v-502q0 -208 11 -254q20 -75 100 -75q16 0 49 5t49 5q29 0 47.5 -20t18.5 -50q0 -35 -26 -54.5t-62 -19.5q-48 0 -135 11.5t-140 11.5 t-139 -11.5t-135 -11.5q-36 0 -62 19.5t-26 54.5zM242 1544q0 6 2 12t4 9.5t7 9t7 8t8.5 8t8.5 6.5l217 187q46 43 88 43q38 0 65 -29.5t27 -68.5q0 -61 -78 -91l-285 -104q-4 -1 -13.5 -4.5t-17 -5.5t-14.5 -2q-10 0 -18 6t-8 16z" />
<glyph unicode="&#xce;" horiz-adv-x="778" d="M29 1546q0 6 5.5 12.5t11 11t14 10t10.5 7.5l282 201q32 24 43 24q5 0 41 -24l287 -201q1 0 6 -4t6.5 -5t6 -4.5t6 -6t4 -6t3.5 -7.5t1 -8q0 -24 -27 -24q-16 0 -43 8t-68.5 23.5t-42.5 15.5q-19 7 -58.5 20t-70.5 25t-57 26q-57 -27 -178.5 -73.5t-151.5 -46.5t-30 26z M35 51q0 30 18 50t47 20q16 0 49 -5t50 -5q83 0 100 75q4 17 6.5 41.5t3 56t1 54.5t0 57.5t-0.5 44.5v502q0 10 0.5 44.5t0 57.5t-1 54.5t-3 56t-6.5 41.5q-17 76 -100 76q-17 0 -50 -5t-49 -5q-29 0 -47 19.5t-18 49.5q0 35 26 54.5t62 19.5q45 0 133 -11.5t141 -11.5 q55 0 145 11.5t130 11.5q36 0 62 -19.5t26 -54.5q0 -30 -18.5 -49.5t-47.5 -19.5q-16 0 -49 5t-49 5q-83 0 -100 -76q-11 -54 -11 -254v-502q0 -208 11 -254q20 -75 100 -75q16 0 49 5t49 5q29 0 47.5 -20t18.5 -50q0 -35 -26 -54.5t-62 -19.5q-48 0 -135 11.5t-140 11.5 t-139 -11.5t-135 -11.5q-36 0 -62 19.5t-26 54.5z" />
<glyph unicode="&#xcf;" horiz-adv-x="778" d="M35 51q0 30 18 50t47 20q16 0 49 -5t50 -5q83 0 100 75q4 17 6.5 41.5t3 56t1 54.5t0 57.5t-0.5 44.5v502q0 10 0.5 44.5t0 57.5t-1 54.5t-3 56t-6.5 41.5q-17 76 -100 76q-17 0 -50 -5t-49 -5q-29 0 -47 19.5t-18 49.5q0 35 26 54.5t62 19.5q45 0 133 -11.5t141 -11.5 q55 0 145 11.5t130 11.5q36 0 62 -19.5t26 -54.5q0 -30 -18.5 -49.5t-47.5 -19.5q-16 0 -49 5t-49 5q-83 0 -100 -76q-11 -54 -11 -254v-502q0 -208 11 -254q20 -75 100 -75q16 0 49 5t49 5q29 0 47.5 -20t18.5 -50q0 -35 -26 -54.5t-62 -19.5q-48 0 -135 11.5t-140 11.5 t-139 -11.5t-135 -11.5q-36 0 -62 19.5t-26 54.5zM102 1638q0 50 34 84.5t83 34.5t84 -34.5t35 -84.5q0 -49 -34.5 -82.5t-84.5 -33.5q-48 0 -82.5 33.5t-34.5 82.5zM477 1638q0 50 34.5 84.5t84.5 34.5q48 0 82.5 -35t34.5 -84t-34.5 -82.5t-82.5 -33.5q-50 0 -84.5 33.5 t-34.5 82.5z" />
<glyph unicode="&#xd0;" horiz-adv-x="1515" d="M35 51q0 30 18 50t47 20q16 0 49 -5t50 -5q83 0 100 75q4 17 6.5 41.5t3 56t1 54.5t0 57.5t-0.5 44.5v222h-209q-29 0 -47 19.5t-18 49.5q0 34 18 55t47 21h209v135q0 215 -10 254q-17 76 -100 76q-17 0 -50 -5t-49 -5q-29 0 -47 19.5t-18 49.5t24.5 52t63.5 22 q40 0 120 -11.5t146 -11.5q72 0 189.5 11.5t189.5 11.5q327 0 502 -193q88 -97 133 -236t45 -282q0 -145 -40 -279.5t-124 -236.5q-86 -105 -220.5 -153t-287.5 -48q-72 0 -187.5 11.5t-191.5 11.5q-61 0 -143 -11.5t-123 -11.5q-42 0 -69 19.5t-27 54.5zM485 279 q0 -79 6.5 -103t28.5 -35q51 -26 236 -26q140 0 232 34t163 134q109 151 109 397q0 280 -134 434q-70 82 -168.5 110.5t-228.5 28.5q-114 0 -158.5 -7t-64.5 -23q-12 -12 -16.5 -36t-4.5 -91v-289h387q29 0 47.5 -21t18.5 -55q0 -30 -18.5 -49.5t-47.5 -19.5h-387v-383z" />
<glyph unicode="&#xd1;" horiz-adv-x="1556" d="M35 51q0 30 18 50t47 20q16 0 49 -5t50 -5q83 0 100 75q4 17 6.5 41.5t3 56t1 54.5t0 57.5t-0.5 44.5v502q0 10 0.5 44.5t0 57.5t-1 54.5t-3 56t-6.5 41.5q-17 76 -100 76q-17 0 -50 -5t-49 -5q-29 0 -47 19.5t-18 49.5q0 36 28.5 55t77.5 19q26 0 86 -11.5t99 -11.5 t101 11.5t91 11.5q13 0 24 -3.5t19 -6.5t17 -13t13.5 -14.5t12.5 -19.5t10 -20t10.5 -24.5t10.5 -23.5l502 -1145h4v807q0 208 -11 254q-17 76 -100 76q-16 0 -49 -5t-49 -5q-29 0 -47.5 19.5t-18.5 49.5q0 36 29 55t78 19q43 0 131.5 -11.5t142.5 -11.5q55 0 148 11.5 t127 11.5q33 0 51 -21t18 -53q0 -30 -18 -49.5t-47 -19.5q-16 0 -49 5t-50 5q-80 0 -100 -76q-6 -21 -8.5 -57.5t-2.5 -64.5t0.5 -75t0.5 -57v-704q0 -31 -0.5 -51t-3.5 -53.5t-9 -55.5t-17.5 -49t-27.5 -42.5t-41 -26.5t-57 -11q-30 0 -55.5 11t-42.5 25.5t-34.5 42 t-27 46.5t-24.5 53l-488 1114h-4v-801q0 -208 11 -254q20 -75 100 -75q16 0 49 5t49 5q29 0 47.5 -20t18.5 -50q0 -36 -29 -55t-78 -19q-45 0 -127 11.5t-135 11.5q-49 0 -131.5 -11.5t-118.5 -11.5q-49 0 -77.5 19t-28.5 55zM449 1565q0 49 38 110q53 78 164 78 q54 0 199 -51q4 -1 28 -10t33.5 -12t27.5 -7t32 -4q32 0 54.5 17t36 34t23.5 17q25 0 25 -29q0 -46 -31 -102q-56 -84 -164 -84q-51 0 -166 40t-163 40q-52 0 -82 -43q-2 -2 -4.5 -7t-4.5 -8t-5 -6t-6.5 -4.5t-8.5 -1.5q-26 0 -26 33z" />
<glyph unicode="&#xd2;" horiz-adv-x="1392" d="M76 690q0 120 21.5 227.5t69 203t118 164.5t175 109t232.5 40q292 0 455 -209q71 -93 110 -233t39 -267q0 -131 -31.5 -271.5t-95.5 -240.5q-81 -128 -209 -196t-282 -68q-126 0 -228.5 42t-170.5 112.5t-115 166.5t-67.5 201t-20.5 219zM264 682q0 -244 88 -393 q56 -91 140.5 -144t185.5 -53q114 0 207 62.5t147 167.5q39 76 57.5 185.5t18.5 207.5q0 246 -88 387q-54 89 -138.5 137t-189.5 51q-100 -1 -177 -39t-123.5 -97t-76 -141t-40.5 -162t-11 -169zM428 1729q0 39 26.5 68.5t65.5 29.5q40 0 86 -43l217 -187q2 -2 10 -8 t11 -9.5t8.5 -9.5t7.5 -12.5t2 -13.5q0 -10 -8.5 -16t-19.5 -6q-4 0 -46 12l-282 104q-78 29 -78 91z" />
<glyph unicode="&#xd3;" horiz-adv-x="1392" d="M76 690q0 120 21.5 227.5t69 203t118 164.5t175 109t232.5 40q292 0 455 -209q71 -93 110 -233t39 -267q0 -131 -31.5 -271.5t-95.5 -240.5q-81 -128 -209 -196t-282 -68q-126 0 -228.5 42t-170.5 112.5t-115 166.5t-67.5 201t-20.5 219zM264 682q0 -244 88 -393 q56 -91 140.5 -144t185.5 -53q114 0 207 62.5t147 167.5q39 76 57.5 185.5t18.5 207.5q0 246 -88 387q-54 89 -138.5 137t-189.5 51q-100 -1 -177 -39t-123.5 -97t-76 -141t-40.5 -162t-11 -169zM549 1544q0 6 2 12t4 9.5t7 9t7 8t8.5 8t8.5 6.5l217 187q46 43 88 43 q38 0 65 -29.5t27 -68.5q0 -61 -78 -91l-284 -104q-42 -12 -46 -12q-10 0 -18 6t-8 16z" />
<glyph unicode="&#xd4;" horiz-adv-x="1392" d="M76 690q0 120 21.5 227.5t69 203t118 164.5t175 109t232.5 40q292 0 455 -209q71 -93 110 -233t39 -267q0 -131 -31.5 -271.5t-95.5 -240.5q-81 -128 -209 -196t-282 -68q-126 0 -228.5 42t-170.5 112.5t-115 166.5t-67.5 201t-20.5 219zM264 682q0 -244 88 -393 q56 -91 140.5 -144t185.5 -53q114 0 207 62.5t147 167.5q39 76 57.5 185.5t18.5 207.5q0 246 -88 387q-54 89 -138.5 137t-189.5 51q-100 -1 -177 -39t-123.5 -97t-76 -141t-40.5 -162t-11 -169zM326 1526q0 6 5.5 12.5t11 11t14 10t10.5 7.5l282 200q33 25 43 25 q4 0 12.5 -5t18.5 -13l10 -7l287 -200q1 0 6 -4t6.5 -5t6 -4.5t6 -6t4 -6t3.5 -7.5t1 -8q0 -11 -8 -18t-19 -7q-16 0 -43 8t-68.5 23.5t-42.5 15.5q-18 7 -58 20.5t-71 25.5t-57 26q-59 -28 -179.5 -74.5t-150.5 -46.5t-30 27z" />
<glyph unicode="&#xd5;" horiz-adv-x="1392" d="M76 690q0 120 21.5 227.5t69 203t118 164.5t175 109t232.5 40q292 0 455 -209q71 -93 110 -233t39 -267q0 -131 -31.5 -271.5t-95.5 -240.5q-81 -128 -209 -196t-282 -68q-126 0 -228.5 42t-170.5 112.5t-115 166.5t-67.5 201t-20.5 219zM264 682q0 -244 88 -393 q56 -91 140.5 -144t185.5 -53q114 0 207 62.5t147 167.5q39 76 57.5 185.5t18.5 207.5q0 246 -88 387q-54 89 -138.5 137t-189.5 51q-100 -1 -177 -39t-123.5 -97t-76 -141t-40.5 -162t-11 -169zM367 1565q0 47 39 110q53 78 163 78q54 0 199 -51q4 -1 28 -10t33.5 -12 t27.5 -7t32 -4q25 0 45 10.5t30 23.5t20.5 23.5t19.5 10.5q24 0 24 -29q0 -46 -31 -102q-56 -84 -163 -84q-50 0 -166 40t-164 40q-52 0 -82 -43q-2 -2 -4.5 -7t-4.5 -8t-5 -6t-6.5 -4.5t-8.5 -1.5q-26 0 -26 33z" />
<glyph unicode="&#xd6;" horiz-adv-x="1392" d="M76 690q0 120 21.5 227.5t69 203t118 164.5t175 109t232.5 40q292 0 455 -209q71 -93 110 -233t39 -267q0 -131 -31.5 -271.5t-95.5 -240.5q-81 -128 -209 -196t-282 -68q-126 0 -228.5 42t-170.5 112.5t-115 166.5t-67.5 201t-20.5 219zM264 682q0 -244 88 -393 q56 -91 140.5 -144t185.5 -53q114 0 207 62.5t147 167.5q39 76 57.5 185.5t18.5 207.5q0 246 -88 387q-54 89 -138.5 137t-189.5 51q-100 -1 -177 -39t-123.5 -97t-76 -141t-40.5 -162t-11 -169zM389 1638q0 50 34 84.5t83 34.5q50 0 84.5 -34.5t34.5 -84.5 q0 -49 -34.5 -82.5t-84.5 -33.5q-48 0 -82.5 33.5t-34.5 82.5zM764 1638q0 50 35 84.5t84 34.5q47 0 81.5 -35t34.5 -84t-34 -82.5t-82 -33.5q-50 0 -84.5 33.5t-34.5 82.5z" />
<glyph unicode="&#xd7;" horiz-adv-x="1269" d="M104 147l406 406l-406 405l111 111l406 -405l405 405l111 -111l-406 -405l406 -406l-111 -110l-405 405l-406 -405z" />
<glyph unicode="&#xd8;" d="M76 657q0 132 33.5 276t97.5 245q77 123 203 189.5t274 66.5q155 0 281 -66l59 115l9 16.5t8 12t6.5 9t7.5 5.5l7 3.5t9.5 1.5t11 1h15h18.5q8 0 21.5 0.5t19.5 0.5t15 -1t11.5 -4t4 -8.5t-1.5 -14.5t-10 -22l-99 -189q118 -124 167.5 -272t49.5 -332 q0 -127 -32.5 -260.5t-98.5 -232.5q-78 -119 -199 -183.5t-266 -64.5q-169 0 -301 63l-55 -106q-8 -16 -11 -22.5t-10 -14t-8 -9t-11 -4t-13.5 -2t-20.5 0.5h-28q-3 0 -12 -1t-17.5 -1t-17 1t-14 5t-5.5 12q0 6 7 19l7 14l103 188q-215 204 -215 565zM264 672 q0 -282 96 -434l539 1001q-79 51 -205 51q-72 0 -132 -20t-103.5 -54.5t-78 -83t-56 -102t-35.5 -116t-19.5 -121.5t-5.5 -121zM465 150q85 -58 201 -58q100 0 178 34t126.5 89.5t80 132.5t43.5 156t12 168q0 317 -107 463z" />
<glyph unicode="&#xd9;" horiz-adv-x="1474" d="M-35 1331q0 32 22.5 53t55.5 21q48 0 134.5 -11.5t139.5 -11.5q55 0 145.5 11.5t129.5 11.5q43 0 70.5 -19.5t27.5 -54.5q0 -30 -18 -49.5t-47 -19.5q-17 0 -50 5t-49 5q-86 0 -100 -76q-10 -61 -10 -256v-469q0 -47 1 -73.5t6 -69t17.5 -76t32.5 -59.5q41 -53 115 -77 t153 -24q176 0 265 94q23 25 38 59.5t20.5 78t7 72.5t1.5 75v469q0 195 -10 256q-11 76 -100 76q-17 0 -50 -5t-49 -5q-29 0 -47 19.5t-18 49.5q0 32 22.5 53t55.5 21q48 0 134.5 -11.5t139.5 -11.5q55 0 145 11.5t129 11.5q43 0 71 -19.5t28 -54.5q0 -30 -18.5 -49.5 t-47.5 -19.5q-16 0 -49 5t-49 5q-86 0 -100 -76q-11 -67 -11 -256v-420q0 -74 -2 -114t-10.5 -102t-30 -111t-57.5 -91q-129 -153 -406 -153q-101 0 -199 24.5t-167 75.5q-58 42 -90 106t-39.5 121t-7.5 140v524q0 189 -11 256q-11 76 -100 76q-17 0 -49 -5t-49 -5 q-29 0 -47.5 19.5t-18.5 49.5zM489 1729q0 39 27 68.5t66 29.5q40 0 86 -43l217 -187q2 -2 10 -8t11 -9.5t8.5 -9.5t7.5 -12.5t2 -13.5q0 -10 -9 -16t-20 -6q-7 0 -14.5 2t-17 5.5t-13.5 4.5l-283 104q-78 29 -78 91z" />
<glyph unicode="&#xda;" horiz-adv-x="1474" d="M-35 1331q0 32 22.5 53t55.5 21q48 0 134.5 -11.5t139.5 -11.5q55 0 145.5 11.5t129.5 11.5q43 0 70.5 -19.5t27.5 -54.5q0 -30 -18 -49.5t-47 -19.5q-17 0 -50 5t-49 5q-86 0 -100 -76q-10 -61 -10 -256v-469q0 -47 1 -73.5t6 -69t17.5 -76t32.5 -59.5q41 -53 115 -77 t153 -24q176 0 265 94q23 25 38 59.5t20.5 78t7 72.5t1.5 75v469q0 195 -10 256q-11 76 -100 76q-17 0 -50 -5t-49 -5q-29 0 -47 19.5t-18 49.5q0 32 22.5 53t55.5 21q48 0 134.5 -11.5t139.5 -11.5q55 0 145 11.5t129 11.5q43 0 71 -19.5t28 -54.5q0 -30 -18.5 -49.5 t-47.5 -19.5q-16 0 -49 5t-49 5q-86 0 -100 -76q-11 -67 -11 -256v-420q0 -74 -2 -114t-10.5 -102t-30 -111t-57.5 -91q-129 -153 -406 -153q-101 0 -199 24.5t-167 75.5q-58 42 -90 106t-39.5 121t-7.5 140v524q0 189 -11 256q-11 76 -100 76q-17 0 -49 -5t-49 -5 q-29 0 -47.5 19.5t-18.5 49.5zM569 1544q0 6 2 12t4 9.5t7 9t7 8t8.5 8t8.5 6.5l217 187q46 43 88 43q38 0 65.5 -29.5t27.5 -68.5q0 -61 -78 -91l-285 -104q-4 -1 -13.5 -4.5t-17 -5.5t-14.5 -2q-10 0 -18.5 6t-8.5 16z" />
<glyph unicode="&#xdb;" horiz-adv-x="1474" d="M-35 1331q0 32 22.5 53t55.5 21q48 0 134.5 -11.5t139.5 -11.5q55 0 145.5 11.5t129.5 11.5q43 0 70.5 -19.5t27.5 -54.5q0 -30 -18 -49.5t-47 -19.5q-17 0 -50 5t-49 5q-86 0 -100 -76q-10 -61 -10 -256v-469q0 -47 1 -73.5t6 -69t17.5 -76t32.5 -59.5q41 -53 115 -77 t153 -24q176 0 265 94q23 25 38 59.5t20.5 78t7 72.5t1.5 75v469q0 195 -10 256q-11 76 -100 76q-17 0 -50 -5t-49 -5q-29 0 -47 19.5t-18 49.5q0 32 22.5 53t55.5 21q48 0 134.5 -11.5t139.5 -11.5q55 0 145 11.5t129 11.5q43 0 71 -19.5t28 -54.5q0 -30 -18.5 -49.5 t-47.5 -19.5q-16 0 -49 5t-49 5q-86 0 -100 -76q-11 -67 -11 -256v-420q0 -74 -2 -114t-10.5 -102t-30 -111t-57.5 -91q-129 -153 -406 -153q-101 0 -199 24.5t-167 75.5q-58 42 -90 106t-39.5 121t-7.5 140v524q0 189 -11 256q-11 76 -100 76q-17 0 -49 -5t-49 -5 q-29 0 -47.5 19.5t-18.5 49.5zM367 1546q0 6 5.5 12.5t11 11t14 10t10.5 7.5l282 201q32 24 43 24q5 0 41 -24l287 -201q1 0 6 -4t6.5 -5t6 -4.5t6 -6t4 -6t3.5 -7.5t1 -8q0 -24 -27 -24q-16 0 -43 8t-68.5 23.5t-42.5 15.5q-19 7 -58.5 20t-70.5 25t-57 26 q-57 -27 -178.5 -73.5t-151.5 -46.5t-30 26z" />
<glyph unicode="&#xdc;" horiz-adv-x="1474" d="M-35 1331q0 32 22.5 53t55.5 21q48 0 134.5 -11.5t139.5 -11.5q55 0 145.5 11.5t129.5 11.5q43 0 70.5 -19.5t27.5 -54.5q0 -30 -18 -49.5t-47 -19.5q-17 0 -50 5t-49 5q-86 0 -100 -76q-10 -61 -10 -256v-469q0 -47 1 -73.5t6 -69t17.5 -76t32.5 -59.5q41 -53 115 -77 t153 -24q176 0 265 94q23 25 38 59.5t20.5 78t7 72.5t1.5 75v469q0 195 -10 256q-11 76 -100 76q-17 0 -50 -5t-49 -5q-29 0 -47 19.5t-18 49.5q0 32 22.5 53t55.5 21q48 0 134.5 -11.5t139.5 -11.5q55 0 145 11.5t129 11.5q43 0 71 -19.5t28 -54.5q0 -30 -18.5 -49.5 t-47.5 -19.5q-16 0 -49 5t-49 5q-86 0 -100 -76q-11 -67 -11 -256v-420q0 -74 -2 -114t-10.5 -102t-30 -111t-57.5 -91q-129 -153 -406 -153q-101 0 -199 24.5t-167 75.5q-58 42 -90 106t-39.5 121t-7.5 140v524q0 189 -11 256q-11 76 -100 76q-17 0 -49 -5t-49 -5 q-29 0 -47.5 19.5t-18.5 49.5zM440 1638q0 50 34 84.5t83 34.5t84 -34.5t35 -84.5q0 -49 -34.5 -82.5t-84.5 -33.5q-48 0 -82.5 33.5t-34.5 82.5zM815 1638q0 50 34.5 84.5t84.5 34.5q48 0 82.5 -35t34.5 -84t-34.5 -82.5t-82.5 -33.5q-50 0 -84.5 33.5t-34.5 82.5z" />
<glyph unicode="&#xdd;" horiz-adv-x="1556" d="M-20 1331q0 32 23.5 53t62.5 21q42 0 131 -11.5t143 -11.5t142.5 11.5t131.5 11.5q41 0 64.5 -20t23.5 -54q0 -30 -18 -49.5t-47 -19.5q-33 0 -77.5 6t-57.5 6q-43 0 -43 -21q0 -6 2.5 -11t11 -19.5t12.5 -22.5l312 -528l315 528q25 41 25 55q0 9 -6.5 13t-16 5t-27.5 1 q-25 0 -77 -6t-78 -6q-29 0 -47.5 19.5t-18.5 49.5q0 31 25.5 52.5t66.5 21.5q48 0 135 -11.5t140 -11.5q55 0 146 11.5t128 11.5q41 0 64.5 -19t23.5 -55q0 -30 -18 -49.5t-47 -19.5q-19 0 -59.5 7t-55.5 7q-27 0 -46.5 -10t-28 -21t-27.5 -39l-436 -686v-90 q0 -183 10 -244q14 -75 100 -75q17 0 49 5t49 5q36 0 62.5 -19.5t26.5 -54.5q0 -30 -18.5 -50t-47.5 -20q-42 0 -140 11.5t-180 11.5q-68 0 -152 -11.5t-132 -11.5q-101 0 -101 70q0 35 26.5 54.5t62.5 19.5q18 0 52 -5t52 -5q35 0 60.5 18t31.5 49q12 57 12 232v98 l-424 672q-31 50 -56 70t-58 20q-16 0 -54 -4t-63 -4q-29 0 -47 19.5t-18 49.5zM610 1544q0 6 2 12t4 9.5t7 9t7 8t8.5 8t8.5 6.5l217 187q46 43 88 43q38 0 65 -29.5t27 -68.5q0 -61 -77 -91l-285 -104q-4 -1 -13.5 -4.5t-17 -5.5t-14.5 -2q-10 0 -18.5 6t-8.5 16z" />
<glyph unicode="&#xde;" d="M35 51q0 30 18 50t47 20q16 0 49 -5t50 -5q83 0 100 75q4 17 6.5 41.5t3 56t1 54.5t0 57.5t-0.5 44.5v502q0 10 0.5 44.5t0 57.5t-1 54.5t-3 56t-6.5 41.5q-17 76 -100 76q-17 0 -50 -5t-49 -5q-29 0 -47 19.5t-18 49.5q0 35 27.5 54.5t70.5 19.5q41 0 128 -11.5 t134 -11.5q54 0 143 11.5t132 11.5q38 0 64 -19.5t26 -54.5q0 -30 -18.5 -49.5t-47.5 -19.5q-16 0 -49 5t-49 5q-57 0 -84 -28.5t-27 -88.5q0 -28 12 -36.5t42 -8.5h116q191 0 296 -13.5t175 -54.5q181 -107 181 -333q0 -114 -54.5 -207t-154.5 -142q-57 -28 -137.5 -41.5 t-133.5 -15.5t-148 -2h-8h-7.5h-8.5h-116q-30 0 -42 -8.5t-12 -36.5v-29q0 -60 27 -88t84 -28q16 0 49 5t49 5q29 0 47.5 -20t18.5 -50q0 -35 -26 -54.5t-64 -19.5q-44 0 -133 11.5t-142 11.5q-55 0 -145 -11.5t-129 -11.5q-35 0 -60.5 19.5t-25.5 54.5zM485 487 q0 -25 12 -34t38 -11h196q66 -2 117.5 2t104 20.5t87 46t56.5 81.5t22 123q0 79 -37.5 143.5t-107.5 89.5q-72 23 -242 23h-196q-26 -2 -38 -11t-12 -34v-439z" />
<glyph unicode="&#xdf;" horiz-adv-x="1310" d="M-16 51q0 30 18 50t47 20q17 0 49 -5t49 -5q84 0 101 75q4 16 6.5 40.5t3 58t1 58.5t0 68t-0.5 60q0 272 -9.5 342t-51.5 70q-10 0 -30 -3t-30 -3q-34 0 -57 17.5t-23 51.5q0 30 18 49t48 19q17 0 50 -7.5t50 -7.5q43 0 60 71l6 26q14 65 50.5 131.5t84.5 109.5 q107 97 291 97q87 0 167.5 -33t135.5 -100.5t55 -155.5q0 -79 -39 -134t-114 -108q-1 -1 -9.5 -6.5t-13.5 -9t-14.5 -11t-15.5 -13t-14 -13t-12.5 -14t-8 -14t-3.5 -13.5q0 -23 31.5 -49t78 -50.5t101.5 -62t101.5 -79t78 -105.5t31.5 -139q0 -149 -106.5 -253t-263.5 -104 q-121 0 -228 80q0 -42 -15 -65t-56 -23q-38 0 -53 29t-11 69q0 29 5 86t5 84q0 26 -5 77.5t-5 76.5q0 36 19.5 61t54.5 25q65 0 65 -88l-8 -66q0 -96 56 -149t155 -53q93 0 157 60t64 144q0 93 -80 158l-178 125l-80 51q-112 70 -112 150q0 39 28 75.5t68 66t80 60.5 t68 70.5t28 83.5q0 65 -64.5 100t-136.5 35q-89 0 -155.5 -44t-100.5 -124q-43 -105 -43 -331l11 -670q0 -144 -97 -144q-25 0 -62 11.5t-60 11.5t-60.5 -11.5t-62.5 -11.5q-36 0 -62 19.5t-26 54.5z" />
<glyph unicode="&#xe0;" horiz-adv-x="1228" d="M70 252q0 179 139 260q42 25 92.5 40.5t82 20.5t99.5 13q11 1 37.5 3.5t40 3.5t38 4.5t38.5 7t34.5 10t32 14.5t25.5 19.5t21.5 25.5t12.5 33t5 41q0 96 -65 140t-166 44q-83 0 -158 -45q-47 -29 -47 -53q0 -2 12 -8.5t24.5 -25t12.5 -50.5q0 -44 -33 -70.5t-78 -26.5 q-54 0 -90.5 37.5t-36.5 93.5q0 62 35 116.5t92 94.5q53 37 126.5 56.5t144.5 19.5q172 0 280 -82q69 -54 92 -129t21 -182l-8 -371q0 -6 -1 -24t-1 -29.5v-32t1.5 -34t5 -31t9.5 -29t14.5 -22t21 -16t28.5 -5.5q18 0 31.5 7t21.5 21t13 27.5t6.5 35.5t1.5 35t-0.5 35.5 t-0.5 28.5v19v20t0.5 18t2.5 18t5 15t8 14t12 9.5t16.5 7.5t21.5 2q71 0 71 -84q0 -134 -6.5 -188.5t-36.5 -93.5q-53 -74 -180 -74q-80 0 -137.5 37t-71.5 110q-97 -155 -331 -155q-150 0 -244 59q-64 40 -100.5 104t-36.5 140zM240 260q0 -86 61.5 -129t151.5 -43 q175 0 258 109q31 43 41 89t10 109q0 45 4 131q-14 -14 -31 -25t-31 -18.5t-37 -14t-35 -10t-40 -7.5t-36.5 -5t-40 -4t-36.5 -4q-38 -3 -67.5 -8.5t-63.5 -18t-56 -30.5t-37 -49t-15 -72zM367 1366q0 39 26.5 68.5t65.5 29.5q40 0 86 -43l217 -186q2 -2 10 -8t11 -9.5 t8.5 -9.5t7.5 -12.5t2 -13.5q0 -10 -9 -16.5t-20 -6.5q-7 0 -14.5 2t-17 5.5t-13.5 4.5l-283 105q-37 14 -57 34.5t-20 55.5z" />
<glyph unicode="&#xe1;" horiz-adv-x="1228" d="M70 252q0 179 139 260q42 25 92.5 40.5t82 20.5t99.5 13q11 1 37.5 3.5t40 3.5t38 4.5t38.5 7t34.5 10t32 14.5t25.5 19.5t21.5 25.5t12.5 33t5 41q0 96 -65 140t-166 44q-83 0 -158 -45q-47 -29 -47 -53q0 -2 12 -8.5t24.5 -25t12.5 -50.5q0 -44 -33 -70.5t-78 -26.5 q-54 0 -90.5 37.5t-36.5 93.5q0 62 35 116.5t92 94.5q53 37 126.5 56.5t144.5 19.5q172 0 280 -82q69 -54 92 -129t21 -182l-8 -371q0 -6 -1 -24t-1 -29.5v-32t1.5 -34t5 -31t9.5 -29t14.5 -22t21 -16t28.5 -5.5q18 0 31.5 7t21.5 21t13 27.5t6.5 35.5t1.5 35t-0.5 35.5 t-0.5 28.5v19v20t0.5 18t2.5 18t5 15t8 14t12 9.5t16.5 7.5t21.5 2q71 0 71 -84q0 -134 -6.5 -188.5t-36.5 -93.5q-53 -74 -180 -74q-80 0 -137.5 37t-71.5 110q-97 -155 -331 -155q-150 0 -244 59q-64 40 -100.5 104t-36.5 140zM240 260q0 -86 61.5 -129t151.5 -43 q175 0 258 109q31 43 41 89t10 109q0 45 4 131q-14 -14 -31 -25t-31 -18.5t-37 -14t-35 -10t-40 -7.5t-36.5 -5t-40 -4t-36.5 -4q-38 -3 -67.5 -8.5t-63.5 -18t-56 -30.5t-37 -49t-15 -72zM446 1182q0 6 2 12t4 9.5t7 9t7 8t8.5 8t8.5 6.5l217 186q46 43 88 43 q38 0 65.5 -29.5t27.5 -68.5q0 -60 -78 -90l-285 -105q-4 -1 -13.5 -4.5t-17 -5.5t-14.5 -2q-10 0 -18.5 6.5t-8.5 16.5z" />
<glyph unicode="&#xe2;" horiz-adv-x="1228" d="M70 252q0 179 139 260q42 25 92.5 40.5t82 20.5t99.5 13q11 1 37.5 3.5t40 3.5t38 4.5t38.5 7t34.5 10t32 14.5t25.5 19.5t21.5 25.5t12.5 33t5 41q0 96 -65 140t-166 44q-83 0 -158 -45q-47 -29 -47 -53q0 -2 12 -8.5t24.5 -25t12.5 -50.5q0 -44 -33 -70.5t-78 -26.5 q-54 0 -90.5 37.5t-36.5 93.5q0 62 35 116.5t92 94.5q53 37 126.5 56.5t144.5 19.5q172 0 280 -82q69 -54 92 -129t21 -182l-8 -371q0 -6 -1 -24t-1 -29.5v-32t1.5 -34t5 -31t9.5 -29t14.5 -22t21 -16t28.5 -5.5q18 0 31.5 7t21.5 21t13 27.5t6.5 35.5t1.5 35t-0.5 35.5 t-0.5 28.5v19v20t0.5 18t2.5 18t5 15t8 14t12 9.5t16.5 7.5t21.5 2q71 0 71 -84q0 -134 -6.5 -188.5t-36.5 -93.5q-53 -74 -180 -74q-80 0 -137.5 37t-71.5 110q-97 -155 -331 -155q-150 0 -244 59q-64 40 -100.5 104t-36.5 140zM223 1184q0 6 5.5 12.5t11 11t14 10 t10.5 7.5l283 200q33 25 43 25q4 0 12.5 -5t18.5 -13l10 -7l287 -200q12 -8 15.5 -11t10 -12t6.5 -18q0 -12 -7.5 -18.5t-18.5 -6.5q-16 0 -43 8t-68.5 23.5t-42.5 15.5q-18 7 -58 20.5t-71 25.5t-57 26q-59 -28 -179.5 -74.5t-150.5 -46.5q-31 0 -31 27zM240 260 q0 -86 61.5 -129t151.5 -43q175 0 258 109q31 43 41 89t10 109q0 45 4 131q-14 -14 -31 -25t-31 -18.5t-37 -14t-35 -10t-40 -7.5t-36.5 -5t-40 -4t-36.5 -4q-38 -3 -67.5 -8.5t-63.5 -18t-56 -30.5t-37 -49t-15 -72z" />
<glyph unicode="&#xe3;" horiz-adv-x="1228" d="M70 252q0 179 139 260q42 25 92.5 40.5t82 20.5t99.5 13q11 1 37.5 3.5t40 3.5t38 4.5t38.5 7t34.5 10t32 14.5t25.5 19.5t21.5 25.5t12.5 33t5 41q0 96 -65 140t-166 44q-83 0 -158 -45q-47 -29 -47 -53q0 -2 12 -8.5t24.5 -25t12.5 -50.5q0 -44 -33 -70.5t-78 -26.5 q-54 0 -90.5 37.5t-36.5 93.5q0 62 35 116.5t92 94.5q53 37 126.5 56.5t144.5 19.5q172 0 280 -82q69 -54 92 -129t21 -182l-8 -371q0 -6 -1 -24t-1 -29.5v-32t1.5 -34t5 -31t9.5 -29t14.5 -22t21 -16t28.5 -5.5q18 0 31.5 7t21.5 21t13 27.5t6.5 35.5t1.5 35t-0.5 35.5 t-0.5 28.5v19v20t0.5 18t2.5 18t5 15t8 14t12 9.5t16.5 7.5t21.5 2q71 0 71 -84q0 -134 -6.5 -188.5t-36.5 -93.5q-53 -74 -180 -74q-80 0 -137.5 37t-71.5 110q-97 -155 -331 -155q-150 0 -244 59q-64 40 -100.5 104t-36.5 140zM240 260q0 -86 61.5 -129t151.5 -43 q175 0 258 109q31 43 41 89t10 109q0 45 4 131q-14 -14 -31 -25t-31 -18.5t-37 -14t-35 -10t-40 -7.5t-36.5 -5t-40 -4t-36.5 -4q-38 -3 -67.5 -8.5t-63.5 -18t-56 -30.5t-37 -49t-15 -72zM264 1202q0 48 39 111q53 78 164 78q15 0 33 -3t32 -6t37 -10t32.5 -10t35 -12.5 t29.5 -10.5q6 -2 23 -8.5t25 -9t22 -7t26 -6t24 -1.5q25 0 45 10.5t30 23t20.5 23t19.5 10.5q25 0 25 -28q0 -47 -31 -103q-56 -84 -164 -84q-51 0 -167 40t-163 40q-52 0 -82 -43q-2 -2 -5.5 -8.5t-5.5 -9.5t-6.5 -6t-10.5 -3q-27 0 -27 33z" />
<glyph unicode="&#xe4;" horiz-adv-x="1228" d="M70 252q0 179 139 260q42 25 92.5 40.5t82 20.5t99.5 13q11 1 37.5 3.5t40 3.5t38 4.5t38.5 7t34.5 10t32 14.5t25.5 19.5t21.5 25.5t12.5 33t5 41q0 96 -65 140t-166 44q-83 0 -158 -45q-47 -29 -47 -53q0 -2 12 -8.5t24.5 -25t12.5 -50.5q0 -44 -33 -70.5t-78 -26.5 q-54 0 -90.5 37.5t-36.5 93.5q0 62 35 116.5t92 94.5q53 37 126.5 56.5t144.5 19.5q172 0 280 -82q69 -54 92 -129t21 -182l-8 -371q0 -6 -1 -24t-1 -29.5v-32t1.5 -34t5 -31t9.5 -29t14.5 -22t21 -16t28.5 -5.5q18 0 31.5 7t21.5 21t13 27.5t6.5 35.5t1.5 35t-0.5 35.5 t-0.5 28.5v19v20t0.5 18t2.5 18t5 15t8 14t12 9.5t16.5 7.5t21.5 2q71 0 71 -84q0 -134 -6.5 -188.5t-36.5 -93.5q-53 -74 -180 -74q-80 0 -137.5 37t-71.5 110q-97 -155 -331 -155q-150 0 -244 59q-64 40 -100.5 104t-36.5 140zM240 260q0 -86 61.5 -129t151.5 -43 q175 0 258 109q31 43 41 89t10 109q0 45 4 131q-14 -14 -31 -25t-31 -18.5t-37 -14t-35 -10t-40 -7.5t-36.5 -5t-40 -4t-36.5 -4q-38 -3 -67.5 -8.5t-63.5 -18t-56 -30.5t-37 -49t-15 -72zM266 1276q0 50 34 84.5t83 34.5t84 -34.5t35 -84.5q0 -49 -34.5 -83t-84.5 -34 q-48 0 -82.5 34t-34.5 83zM641 1276q0 50 34.5 84.5t84.5 34.5q48 0 82.5 -35t34.5 -84t-34.5 -83t-82.5 -34q-50 0 -84.5 34t-34.5 83z" />
<glyph unicode="&#xe5;" horiz-adv-x="1228" d="M70 252q0 179 139 260q42 25 92.5 40.5t82 20.5t99.5 13q11 1 37.5 3.5t40 3.5t38 4.5t38.5 7t34.5 10t32 14.5t25.5 19.5t21.5 25.5t12.5 33t5 41q0 96 -65 140t-166 44q-83 0 -158 -45q-47 -29 -47 -53q0 -2 12 -8.5t24.5 -25t12.5 -50.5q0 -44 -33 -70.5t-78 -26.5 q-54 0 -90.5 37.5t-36.5 93.5q0 62 35 116.5t92 94.5q53 37 126.5 56.5t144.5 19.5q172 0 280 -82q69 -54 92 -129t21 -182l-8 -371q0 -6 -1 -24t-1 -29.5v-32t1.5 -34t5 -31t9.5 -29t14.5 -22t21 -16t28.5 -5.5q18 0 31.5 7t21.5 21t13 27.5t6.5 35.5t1.5 35t-0.5 35.5 t-0.5 28.5v19v20t0.5 18t2.5 18t5 15t8 14t12 9.5t16.5 7.5t21.5 2q71 0 71 -84q0 -134 -6.5 -188.5t-36.5 -93.5q-53 -74 -180 -74q-80 0 -137.5 37t-71.5 110q-97 -155 -331 -155q-150 0 -244 59q-64 40 -100.5 104t-36.5 140zM240 260q0 -86 61.5 -129t151.5 -43 q175 0 258 109q31 43 41 89t10 109q0 45 4 131q-14 -14 -31 -25t-31 -18.5t-37 -14t-35 -10t-40 -7.5t-36.5 -5t-40 -4t-36.5 -4q-38 -3 -67.5 -8.5t-63.5 -18t-56 -30.5t-37 -49t-15 -72zM408 1305q0 67 48 115t115 48q68 0 116 -48t48 -115q0 -69 -48 -117.5t-116 -48.5 t-115.5 48.5t-47.5 117.5zM485 1305q0 -36 25 -61t61 -25t61 25t25 61q0 35 -25.5 59.5t-60.5 24.5t-60.5 -24.5t-25.5 -59.5z" />
<glyph unicode="&#xe6;" horiz-adv-x="1802" d="M70 274q0 99 55.5 179.5t142.5 119.5q77 34 162 44t203 10h151l4 45q0 119 -66.5 189.5t-186.5 70.5q-95 0 -164 -41q-12 -6 -25.5 -19t-13.5 -24q0 -2 9 -10t17.5 -26t8.5 -44q0 -49 -35.5 -76.5t-85.5 -27.5q-49 0 -83 34.5t-34 81.5q0 62 36 117.5t93 93.5 q116 80 277 80q80 0 148.5 -18.5t128 -66.5t85.5 -120q57 103 154.5 154t218.5 51q204 0 326 -137.5t122 -345.5q0 -51 -10 -76q-2 -5 -5 -9t-6 -7t-8 -4.5t-9 -2.5t-10 -1.5t-9 -0.5h-10h-9h-700q0 -76 18 -145t53.5 -127t97.5 -92.5t142 -34.5q104 0 177.5 52t107.5 147 q9 26 15.5 39t22.5 24.5t40 11.5q35 0 57.5 -22t22.5 -61q0 -50 -43.5 -118.5t-91.5 -107.5q-130 -104 -322 -104q-117 0 -216 54t-155 153q-54 -104 -157.5 -155.5t-229.5 -51.5q-81 0 -152 18t-130.5 55.5t-94 102t-34.5 149.5zM240 279q0 -92 71 -141.5t168 -49.5 q73 0 144.5 30t109.5 85q23 33 35 79.5t14 81t2 87.5v36h-192h-34.5h-35.5t-31 -1t-34.5 -3t-31 -5t-34.5 -8.5t-33 -12.5q-56 -25 -87 -71.5t-31 -106.5zM958 627h590q-3 134 -82 219.5t-211 85.5q-122 0 -205.5 -91t-91.5 -214z" />
<glyph unicode="&#xe7;" horiz-adv-x="1024" d="M78 489q0 121 31.5 225t92 184.5t158 126.5t222.5 46q141 0 247 -74q60 -41 99 -108t39 -137q0 -78 -39.5 -132.5t-114.5 -54.5q-49 0 -85 32t-36 81q0 42 31.5 67t75.5 27q-3 73 -75 116.5t-151 43.5q-83 0 -147.5 -37t-102 -99t-56.5 -134.5t-19 -151.5 q0 -63 9.5 -120.5t32.5 -113.5t58 -97t90.5 -66t124.5 -25q94 0 162.5 53.5t93.5 145.5q1 5 5.5 24t7 26t7.5 22.5t11 22.5t15 16t21 12.5t27 3.5q32 0 56 -24t24 -56q0 -57 -35 -131.5t-77 -120.5q-122 -131 -316 -131l-16 -41q9 0 26 2t25 2q64 0 116 -40t52 -103 q0 -54 -35.5 -92.5t-83.5 -54t-102 -15.5q-34 0 -78.5 11t-83.5 38t-39 63q0 18 13 32t30 14q20 0 43 -23q48 -51 111 -51q39 0 71.5 17.5t32.5 53.5q0 35 -25.5 52.5t-62.5 17.5q-27 0 -65 -14q-4 -1 -14.5 -5t-19 -6t-16.5 -2q-22 0 -22 21q0 10 18 55l31 74 q-125 19 -215.5 97t-134 190t-43.5 245z" />
<glyph unicode="&#xe8;" horiz-adv-x="1105" d="M78 492q0 243 121 399q68 87 166.5 133.5t209.5 46.5q206 0 335.5 -133t129.5 -340q0 -79 -13 -95t-85 -16h-694q-4 -107 31 -196t113 -146t186 -57q106 0 179.5 52t102.5 151q6 20 8 27t9 22.5t13.5 22t19 12.5t28.5 6q35 0 58.5 -21.5t23.5 -56.5q0 -59 -36 -124 t-85 -111q-62 -59 -151.5 -89t-182.5 -30q-118 0 -211.5 42t-153 116t-91 172t-31.5 213zM266 635h604q-8 132 -82.5 214.5t-205.5 82.5t-218 -83.5t-98 -213.5zM305 1366q0 39 26.5 68.5t65.5 29.5q40 0 86 -43l217 -186q2 -2 10 -8t11 -9.5t8.5 -9.5t7.5 -12.5t2 -13.5 q0 -10 -8.5 -16.5t-19.5 -6.5q-7 0 -14.5 2t-17 5.5t-13.5 4.5l-283 105q-78 29 -78 90z" />
<glyph unicode="&#xe9;" horiz-adv-x="1105" d="M78 492q0 243 121 399q68 87 166.5 133.5t209.5 46.5q206 0 335.5 -133t129.5 -340q0 -79 -13 -95t-85 -16h-694q-4 -107 31 -196t113 -146t186 -57q106 0 179.5 52t102.5 151q6 20 8 27t9 22.5t13.5 22t19 12.5t28.5 6q35 0 58.5 -21.5t23.5 -56.5q0 -59 -36 -124 t-85 -111q-62 -59 -151.5 -89t-182.5 -30q-118 0 -211.5 42t-153 116t-91 172t-31.5 213zM266 635h604q-8 132 -82.5 214.5t-205.5 82.5t-218 -83.5t-98 -213.5zM385 1182q0 6 2 12t4 9.5t7 9t7 8t8.5 8t8.5 6.5l217 186q46 43 88 43q38 0 65 -29.5t27 -68.5q0 -60 -78 -90 l-284 -105q-4 -1 -13.5 -4.5t-17 -5.5t-14.5 -2q-10 0 -18.5 6.5t-8.5 16.5z" />
<glyph unicode="&#xea;" horiz-adv-x="1105" d="M78 492q0 243 121 399q68 87 166.5 133.5t209.5 46.5q206 0 335.5 -133t129.5 -340q0 -79 -13 -95t-85 -16h-694q-4 -107 31 -196t113 -146t186 -57q106 0 179.5 52t102.5 151q6 20 8 27t9 22.5t13.5 22t19 12.5t28.5 6q35 0 58.5 -21.5t23.5 -56.5q0 -59 -36 -124 t-85 -111q-62 -59 -151.5 -89t-182.5 -30q-118 0 -211.5 42t-153 116t-91 172t-31.5 213zM223 1184q0 6 5.5 12.5t11 11t14 10t10.5 7.5l283 200q33 25 43 25q4 0 12.5 -5t18.5 -13l10 -7l287 -200q12 -8 15.5 -11t10 -12t6.5 -18q0 -12 -7.5 -18.5t-18.5 -6.5q-16 0 -43 8 t-68.5 23.5t-42.5 15.5q-18 7 -58 20.5t-71 25.5t-57 26q-59 -28 -179.5 -74.5t-150.5 -46.5q-31 0 -31 27zM266 635h604q-8 132 -82.5 214.5t-205.5 82.5t-218 -83.5t-98 -213.5z" />
<glyph unicode="&#xeb;" horiz-adv-x="1105" d="M78 492q0 243 121 399q68 87 166.5 133.5t209.5 46.5q206 0 335.5 -133t129.5 -340q0 -79 -13 -95t-85 -16h-694q-4 -107 31 -196t113 -146t186 -57q106 0 179.5 52t102.5 151q6 20 8 27t9 22.5t13.5 22t19 12.5t28.5 6q35 0 58.5 -21.5t23.5 -56.5q0 -59 -36 -124 t-85 -111q-62 -59 -151.5 -89t-182.5 -30q-118 0 -211.5 42t-153 116t-91 172t-31.5 213zM266 635h604q-8 132 -82.5 214.5t-205.5 82.5t-218 -83.5t-98 -213.5zM276 1276q0 50 34 84.5t83 34.5t84 -34.5t35 -84.5q0 -49 -34.5 -83t-84.5 -34q-48 0 -82.5 34t-34.5 83z M651 1276q0 50 34.5 84.5t84.5 34.5q48 0 82.5 -35t34.5 -84t-34.5 -83t-82.5 -34q-50 0 -84.5 34t-34.5 83z" />
<glyph unicode="&#xec;" horiz-adv-x="655" d="M39 1366q0 39 26.5 68.5t65.5 29.5q40 0 86 -43l217 -186q2 -2 10 -8t11 -9.5t8.5 -9.5t7.5 -12.5t2 -13.5q0 -10 -9 -16.5t-20 -6.5q-7 0 -14.5 2t-17 5.5t-13.5 4.5l-282 105q-78 29 -78 90zM47 53q0 29 19.5 48.5t50.5 19.5q14 0 45 -6t49 -6q35 0 47 37.5t12 134.5 v458q0 105 -12 138.5t-47 33.5q-18 0 -49 -6t-45 -6q-31 0 -50.5 19.5t-19.5 48.5q0 34 21 54.5t51 20.5q28 0 69.5 -11t65.5 -11q27 0 63 11t54 11q57 0 57 -88v-761q0 -84 53 -84q9 0 37 6.5t45 5.5q31 0 50.5 -19.5t19.5 -48.5q0 -34 -27 -55t-61 -21q-33 0 -99 11.5 t-112 11.5q-45 0 -114 -11.5t-103 -11.5q-26 0 -48 23.5t-22 52.5z" />
<glyph unicode="&#xed;" horiz-adv-x="655" d="M47 53q0 29 19.5 48.5t50.5 19.5q14 0 45 -6t49 -6q35 0 47 37.5t12 134.5v458q0 105 -12 138.5t-47 33.5q-18 0 -49 -6t-45 -6q-31 0 -50.5 19.5t-19.5 48.5q0 34 21 54.5t51 20.5q28 0 69.5 -11t65.5 -11q27 0 63 11t54 11q57 0 57 -88v-761q0 -84 53 -84q9 0 37 6.5 t45 5.5q31 0 50.5 -19.5t19.5 -48.5q0 -34 -27 -55t-61 -21q-33 0 -99 11.5t-112 11.5q-45 0 -114 -11.5t-103 -11.5q-26 0 -48 23.5t-22 52.5zM160 1182q0 6 2 12t4 9.5t7 9t7 8t8.5 8t8.5 6.5l217 186q46 43 88 43q38 0 65 -29.5t27 -68.5q0 -60 -78 -90l-285 -105 q-4 -1 -13.5 -4.5t-17 -5.5t-14.5 -2q-10 0 -18 6.5t-8 16.5z" />
<glyph unicode="&#xee;" horiz-adv-x="655" d="M-63 1184q0 6 5 12.5t10.5 11t14 10.5t10.5 7l283 200q33 25 43 25q4 0 12.5 -5t18.5 -13l10 -7l287 -200q1 0 6 -4t6.5 -5t6 -4.5t6 -6t4 -6t3.5 -7.5t1 -8q0 -11 -8 -18t-19 -7q-16 0 -43 8t-68.5 23.5t-42.5 15.5q-18 7 -58 20.5t-71 25.5t-57 26 q-59 -28 -179.5 -74.5t-150.5 -46.5t-30 27zM47 53q0 29 19.5 48.5t50.5 19.5q14 0 45 -6t49 -6q35 0 47 37.5t12 134.5v458q0 105 -12 138.5t-47 33.5q-18 0 -49 -6t-45 -6q-31 0 -50.5 19.5t-19.5 48.5q0 34 21 54.5t51 20.5q28 0 69.5 -11t65.5 -11q27 0 63 11t54 11 q57 0 57 -88v-761q0 -84 53 -84q9 0 37 6.5t45 5.5q31 0 50.5 -19.5t19.5 -48.5q0 -34 -27 -55t-61 -21q-33 0 -99 11.5t-112 11.5q-45 0 -114 -11.5t-103 -11.5q-26 0 -48 23.5t-22 52.5z" />
<glyph unicode="&#xef;" horiz-adv-x="655" d="M-20 1276q0 50 33.5 84.5t82.5 34.5q50 0 84.5 -34.5t34.5 -84.5q0 -49 -34.5 -83t-84.5 -34q-48 0 -82 34t-34 83zM47 53q0 29 19.5 48.5t50.5 19.5q14 0 45 -6t49 -6q35 0 47 37.5t12 134.5v458q0 105 -12 138.5t-47 33.5q-18 0 -49 -6t-45 -6q-31 0 -50.5 19.5 t-19.5 48.5q0 34 21 54.5t51 20.5q28 0 69.5 -11t65.5 -11q27 0 63 11t54 11q57 0 57 -88v-761q0 -84 53 -84q9 0 37 6.5t45 5.5q31 0 50.5 -19.5t19.5 -48.5q0 -34 -27 -55t-61 -21q-33 0 -99 11.5t-112 11.5q-45 0 -114 -11.5t-103 -11.5q-26 0 -48 23.5t-22 52.5z M354 1276q0 50 35 84.5t84 34.5q48 0 82.5 -35t34.5 -84t-34.5 -83t-82.5 -34q-50 0 -84.5 34t-34.5 83z" />
<glyph unicode="&#xf0;" horiz-adv-x="1146" d="M78 508q0 116 30.5 216.5t89 179t153 123.5t214.5 44q67 0 98.5 -5t81.5 -22l5 5q-45 69 -156 145l-262 -90q-56 -20 -87 9q-24 23 -6 49q10 15 35 24l213 74q-73 44 -161 77q-33 12 -46.5 31t-8 35t25 27.5t45.5 11.5t64 -15q5 -2 34.5 -14.5t46 -20t45 -21t55.5 -28.5 t54 -32l270 92q52 19 81 -10q24 -24 3 -50q-13 -17 -41 -26l-215 -74q330 -251 330 -729q0 -118 -33 -220t-95 -179t-159.5 -121.5t-218.5 -44.5q-119 0 -213 45t-152.5 122.5t-89 177.5t-30.5 214zM248 512q0 -63 9.5 -121.5t33 -114.5t59 -97t91 -66t124.5 -25 q73 0 131 24.5t95.5 65.5t62 97.5t35 117t10.5 127.5q0 179 -74 293q-76 119 -247 119q-179 0 -261 -139q-69 -117 -69 -281z" />
<glyph unicode="&#xf1;" d="M41 53q0 29 19.5 48.5t50.5 19.5q14 0 45 -6t49 -6q37 0 48 36.5t11 137.5v454q0 105 -12 139.5t-47 34.5q-18 0 -49 -6t-45 -6q-31 0 -50.5 19.5t-19.5 48.5q0 27 24.5 51t51.5 24q20 0 51 -11t59 -11q31 0 68 11t61 11q21 0 31 -16t12 -38t2 -68h5q56 76 148 113.5 t194 37.5q174 0 296 -110q61 -55 78 -124t17 -175v-381q0 -97 12.5 -136t46.5 -39q18 0 49 6.5t45 6.5q31 0 50.5 -19.5t19.5 -48.5q0 -35 -23.5 -54.5t-64.5 -19.5q-31 0 -95.5 11.5t-113.5 11.5q-52 0 -118.5 -11.5t-100.5 -11.5q-41 0 -64.5 19.5t-23.5 54.5 q0 29 19 48.5t50 19.5q14 0 45.5 -6.5t49.5 -6.5q37 0 48 36.5t11 138.5v303q0 108 -5 149.5t-28 85.5q-29 56 -91 84.5t-132 28.5q-74 0 -144 -31t-106 -88q-17 -26 -26 -47t-18 -84t-9 -158v-241q0 -97 12.5 -135.5t46.5 -38.5q18 0 49 6t45 6q31 0 50.5 -19.5t19.5 -48.5 q0 -35 -23.5 -55.5t-64.5 -20.5q-31 0 -95.5 11.5t-113.5 11.5q-52 0 -118.5 -11.5t-100.5 -11.5q-41 0 -64.5 20.5t-23.5 55.5zM346 1202q0 48 39 111q53 78 164 78q15 0 33 -3t32 -6t37 -10t32.5 -10t35 -12.5t29.5 -10.5q6 -2 23 -8.5t25 -9t22 -7t26 -6t24 -1.5 q25 0 45 10.5t30 23t20.5 23t19.5 10.5q25 0 25 -28q0 -47 -31 -103q-56 -84 -164 -84q-51 0 -167 40t-163 40q-52 0 -82 -43q-2 -2 -5.5 -8.5t-5.5 -9.5t-6.5 -6t-10.5 -3q-27 0 -27 33z" />
<glyph unicode="&#xf2;" horiz-adv-x="1146" d="M78 508q0 115 30.5 215.5t89 178.5t153 123.5t214.5 45.5q250 0 375 -156q65 -80 97 -185.5t32 -215.5q0 -118 -33 -220t-95 -179t-159.5 -121.5t-218.5 -44.5q-119 0 -213 45t-152.5 122.5t-89 177.5t-30.5 214zM248 514q0 -64 9.5 -122.5t33 -115t59 -97.5t91 -66 t124.5 -25q73 0 131 24.5t95.5 65.5t62 98t35 117.5t10.5 128.5q0 177 -74 291q-76 119 -247 119q-179 0 -261 -139q-69 -117 -69 -279zM326 1366q0 39 26.5 68.5t65.5 29.5q40 0 86 -43l217 -186q2 -2 10 -8t11 -9.5t8.5 -9.5t7.5 -12.5t2 -13.5q0 -10 -9 -16.5t-20 -6.5 q-7 0 -14.5 2t-17 5.5t-13.5 4.5l-283 105q-37 14 -57 34.5t-20 55.5z" />
<glyph unicode="&#xf3;" horiz-adv-x="1146" d="M78 508q0 115 30.5 215.5t89 178.5t153 123.5t214.5 45.5q250 0 375 -156q65 -80 97 -185.5t32 -215.5q0 -118 -33 -220t-95 -179t-159.5 -121.5t-218.5 -44.5q-119 0 -213 45t-152.5 122.5t-89 177.5t-30.5 214zM248 514q0 -64 9.5 -122.5t33 -115t59 -97.5t91 -66 t124.5 -25q73 0 131 24.5t95.5 65.5t62 98t35 117.5t10.5 128.5q0 177 -74 291q-76 119 -247 119q-179 0 -261 -139q-69 -117 -69 -279zM406 1182q0 5 1 10t3.5 9.5t4.5 7.5t6.5 7.5t6.5 6t7.5 6.5t6.5 6l217 186q46 43 89 43q38 0 65 -29.5t27 -68.5q0 -60 -78 -90 l-285 -105q-4 -1 -13.5 -4.5t-17 -5.5t-14.5 -2q-10 0 -18 6.5t-8 16.5z" />
<glyph unicode="&#xf4;" horiz-adv-x="1146" d="M78 508q0 115 30.5 215.5t89 178.5t153 123.5t214.5 45.5q250 0 375 -156q65 -80 97 -185.5t32 -215.5q0 -118 -33 -220t-95 -179t-159.5 -121.5t-218.5 -44.5q-119 0 -213 45t-152.5 122.5t-89 177.5t-30.5 214zM223 1184q0 6 5.5 12.5t11 11t14 10t10.5 7.5l283 200 q33 25 43 25q4 0 12.5 -5t18.5 -13l10 -7l287 -200q12 -8 15.5 -11t10 -12t6.5 -18q0 -12 -7.5 -18.5t-18.5 -6.5q-16 0 -43 8t-68.5 23.5t-42.5 15.5q-18 7 -58 20.5t-71 25.5t-57 26q-59 -28 -179.5 -74.5t-150.5 -46.5q-31 0 -31 27zM248 514q0 -64 9.5 -122.5t33 -115 t59 -97.5t91 -66t124.5 -25q73 0 131 24.5t95.5 65.5t62 98t35 117.5t10.5 128.5q0 177 -74 291q-76 119 -247 119q-179 0 -261 -139q-69 -117 -69 -279z" />
<glyph unicode="&#xf5;" horiz-adv-x="1146" d="M78 508q0 115 30.5 215.5t89 178.5t153 123.5t214.5 45.5q250 0 375 -156q65 -80 97 -185.5t32 -215.5q0 -118 -33 -220t-95 -179t-159.5 -121.5t-218.5 -44.5q-119 0 -213 45t-152.5 122.5t-89 177.5t-30.5 214zM244 1202q0 48 39 111q53 78 163 78q15 0 33 -3t32 -6 t37 -10t32.5 -10t35 -12.5t29.5 -10.5q4 -2 22.5 -8.5t26 -9t22.5 -7t26.5 -6t23.5 -1.5q25 0 45 10.5t30 23t20.5 23t19.5 10.5q24 0 24 -28q0 -47 -31 -103q-56 -84 -163 -84q-51 0 -167 40t-163 40q-52 0 -82 -43q-2 -2 -4.5 -7t-4.5 -8t-5 -6t-6.5 -4.5t-8.5 -1.5 q-26 0 -26 33zM248 514q0 -64 9.5 -122.5t33 -115t59 -97.5t91 -66t124.5 -25q73 0 131 24.5t95.5 65.5t62 98t35 117.5t10.5 128.5q0 177 -74 291q-76 119 -247 119q-179 0 -261 -139q-69 -117 -69 -279z" />
<glyph unicode="&#xf6;" horiz-adv-x="1146" d="M78 508q0 115 30.5 215.5t89 178.5t153 123.5t214.5 45.5q250 0 375 -156q65 -80 97 -185.5t32 -215.5q0 -118 -33 -220t-95 -179t-159.5 -121.5t-218.5 -44.5q-119 0 -213 45t-152.5 122.5t-89 177.5t-30.5 214zM248 514q0 -64 9.5 -122.5t33 -115t59 -97.5t91 -66 t124.5 -25q73 0 131 24.5t95.5 65.5t62 98t35 117.5t10.5 128.5q0 177 -74 291q-76 119 -247 119q-179 0 -261 -139q-69 -117 -69 -279zM276 1276q0 50 34 84.5t83 34.5t84 -34.5t35 -84.5q0 -49 -34.5 -83t-84.5 -34q-48 0 -82.5 34t-34.5 83zM651 1276q0 50 34.5 84.5 t84.5 34.5q48 0 82.5 -35t34.5 -84t-34.5 -83t-82.5 -34q-50 0 -84.5 34t-34.5 83z" />
<glyph unicode="&#xf7;" horiz-adv-x="1269" d="M104 477v156h1033v-156h-1033zM485 176q0 56 38.5 94.5t94.5 38.5t95 -39t39 -94t-39 -94t-95 -39t-94.5 38.5t-38.5 94.5zM485 934q0 56 38.5 94.5t94.5 38.5t95 -39t39 -94t-39 -94t-95 -39t-94.5 38.5t-38.5 94.5z" />
<glyph unicode="&#xf8;" horiz-adv-x="1146" d="M78 469q0 92 19.5 179t60.5 164t99 134.5t141 91t180 33.5q156 0 237 -53l35 55q38 67 49 82q3 4 10.5 6t13 2.5t15.5 0t12 -0.5q1 0 10 0.5t16 0.5t15 -1.5t12.5 -6.5t4.5 -13q0 -10 -19 -35l-90 -143q85 -78 125.5 -191t40.5 -237q0 -121 -31.5 -226t-92 -186.5 t-158.5 -128.5t-222 -47q-114 0 -242 59l-88 -141l-8 -10q-4 -4 -8.5 -6.5t-11 -3.5t-9.5 -1h-11.5h-10.5t-14 -1.5t-20 -1t-15.5 5t-7.5 14.5q0 8 16 35l105 172q-158 168 -158 399zM248 494q0 -212 69 -289l428 684q-73 43 -153 43q-73 0 -131.5 -24t-97.5 -65 t-65.5 -97.5t-38 -119t-11.5 -132.5zM393 137q30 -24 81 -36.5t99 -12.5q71 0 127.5 27.5t92.5 72.5t59.5 105.5t33 122t9.5 127.5q0 44 -2 76t-8.5 74.5t-22.5 77t-41 60.5z" />
<glyph unicode="&#xf9;" horiz-adv-x="1310" d="M-16 967q0 34 28.5 54.5t71.5 20.5q19 0 58.5 -11t60.5 -11q19 0 58 11t58 11q40 0 54 -21.5t14 -62.5q0 -89 -6 -190.5t-6 -165.5v-92q0 -197 22 -274q22 -73 86.5 -110.5t145.5 -37.5q97 0 169 44.5t99 131.5q33 102 33 336v139q0 86 -20.5 129t-53.5 43q-18 0 -49 -6 t-45 -6q-31 0 -50.5 19.5t-19.5 48.5q0 34 28 54.5t68 20.5q24 0 65.5 -11t61.5 -11t59 11t58 11q62 0 62 -69q0 -50 -3.5 -151t-3.5 -156v-385q0 -101 14 -136.5t46 -35.5q18 0 49 6t45 6q31 0 50.5 -19.5t19.5 -48.5q0 -34 -27 -55t-61 -21q-19 0 -58 11.5t-59 11.5 q-21 0 -60.5 -11.5t-58.5 -11.5q-31 0 -41 29.5t-8 95.5h-4q-99 -153 -332 -153q-160 0 -272 84q-109 84 -113 268v438q0 172 -70 172q-18 0 -49 -6t-45 -6q-31 0 -50 19.5t-19 48.5zM367 1366q0 39 26.5 68.5t65.5 29.5q40 0 86 -43l217 -186q2 -2 10 -8t11 -9.5t8.5 -9.5 t7.5 -12.5t2 -13.5q0 -10 -9 -16.5t-20 -6.5q-7 0 -14.5 2t-17 5.5t-13.5 4.5l-283 105q-37 14 -57 34.5t-20 55.5z" />
<glyph unicode="&#xfa;" horiz-adv-x="1310" d="M-16 967q0 34 28.5 54.5t71.5 20.5q19 0 58.5 -11t60.5 -11q19 0 58 11t58 11q40 0 54 -21.5t14 -62.5q0 -89 -6 -190.5t-6 -165.5v-92q0 -197 22 -274q22 -73 86.5 -110.5t145.5 -37.5q97 0 169 44.5t99 131.5q33 102 33 336v139q0 86 -20.5 129t-53.5 43q-18 0 -49 -6 t-45 -6q-31 0 -50.5 19.5t-19.5 48.5q0 34 28 54.5t68 20.5q24 0 65.5 -11t61.5 -11t59 11t58 11q62 0 62 -69q0 -50 -3.5 -151t-3.5 -156v-385q0 -101 14 -136.5t46 -35.5q18 0 49 6t45 6q31 0 50.5 -19.5t19.5 -48.5q0 -34 -27 -55t-61 -21q-19 0 -58 11.5t-59 11.5 q-21 0 -60.5 -11.5t-58.5 -11.5q-31 0 -41 29.5t-8 95.5h-4q-99 -153 -332 -153q-160 0 -272 84q-109 84 -113 268v438q0 172 -70 172q-18 0 -49 -6t-45 -6q-31 0 -50 19.5t-19 48.5zM487 1182q0 6 2 12t4 9.5t7 9t7 8t8.5 8t8.5 6.5l217 186q46 43 88 43q38 0 65.5 -29.5 t27.5 -68.5q0 -60 -78 -90l-285 -105q-4 -1 -13.5 -4.5t-17 -5.5t-14.5 -2q-10 0 -18.5 6.5t-8.5 16.5z" />
<glyph unicode="&#xfb;" horiz-adv-x="1310" d="M-16 967q0 34 28.5 54.5t71.5 20.5q19 0 58.5 -11t60.5 -11q19 0 58 11t58 11q40 0 54 -21.5t14 -62.5q0 -89 -6 -190.5t-6 -165.5v-92q0 -197 22 -274q22 -73 86.5 -110.5t145.5 -37.5q97 0 169 44.5t99 131.5q33 102 33 336v139q0 86 -20.5 129t-53.5 43q-18 0 -49 -6 t-45 -6q-31 0 -50.5 19.5t-19.5 48.5q0 34 28 54.5t68 20.5q24 0 65.5 -11t61.5 -11t59 11t58 11q62 0 62 -69q0 -50 -3.5 -151t-3.5 -156v-385q0 -101 14 -136.5t46 -35.5q18 0 49 6t45 6q31 0 50.5 -19.5t19.5 -48.5q0 -34 -27 -55t-61 -21q-19 0 -58 11.5t-59 11.5 q-21 0 -60.5 -11.5t-58.5 -11.5q-31 0 -41 29.5t-8 95.5h-4q-99 -153 -332 -153q-160 0 -272 84q-109 84 -113 268v438q0 172 -70 172q-18 0 -49 -6t-45 -6q-31 0 -50 19.5t-19 48.5zM264 1184q0 6 5.5 12.5t11 11t14 10t10.5 7.5l283 200q33 25 43 25q4 0 12.5 -5t18.5 -13 l10 -7l286 -200q1 0 6 -4t6.5 -5t6 -4.5t6 -6t4 -6t3.5 -7.5t1 -8q0 -12 -7.5 -18.5t-18.5 -6.5q-16 0 -43 8t-68.5 23.5t-42.5 15.5q-18 7 -58 20.5t-71 25.5t-57 26q-59 -28 -179.5 -74.5t-150.5 -46.5q-31 0 -31 27z" />
<glyph unicode="&#xfc;" horiz-adv-x="1310" d="M-16 967q0 34 28.5 54.5t71.5 20.5q19 0 58.5 -11t60.5 -11q19 0 58 11t58 11q40 0 54 -21.5t14 -62.5q0 -89 -6 -190.5t-6 -165.5v-92q0 -197 22 -274q22 -73 86.5 -110.5t145.5 -37.5q97 0 169 44.5t99 131.5q33 102 33 336v139q0 86 -20.5 129t-53.5 43q-18 0 -49 -6 t-45 -6q-31 0 -50.5 19.5t-19.5 48.5q0 34 28 54.5t68 20.5q24 0 65.5 -11t61.5 -11t59 11t58 11q62 0 62 -69q0 -50 -3.5 -151t-3.5 -156v-385q0 -101 14 -136.5t46 -35.5q18 0 49 6t45 6q31 0 50.5 -19.5t19.5 -48.5q0 -34 -27 -55t-61 -21q-19 0 -58 11.5t-59 11.5 q-21 0 -60.5 -11.5t-58.5 -11.5q-31 0 -41 29.5t-8 95.5h-4q-99 -153 -332 -153q-160 0 -272 84q-109 84 -113 268v438q0 172 -70 172q-18 0 -49 -6t-45 -6q-31 0 -50 19.5t-19 48.5zM328 1276q0 50 33.5 84.5t82.5 34.5q50 0 84.5 -34.5t34.5 -84.5q0 -49 -34.5 -83 t-84.5 -34q-48 0 -82 34t-34 83zM702 1276q0 50 35 84.5t84 34.5q48 0 82.5 -35t34.5 -84t-34.5 -83t-82.5 -34q-50 0 -84.5 34t-34.5 83z" />
<glyph unicode="&#xfd;" horiz-adv-x="1310" d="M-41 -186q0 60 37.5 102.5t97.5 42.5q49 0 82 -27t33 -75q0 -30 -17.5 -54t-44.5 -28q25 -51 117 -51q120 0 199 79q38 38 66 90t28 99q0 26 -8 57.5t-17 54t-25.5 60t-23.5 53.5l-223 567q-31 80 -51.5 108t-42.5 28q-12 0 -46.5 -10.5t-60.5 -10.5q-22 0 -39.5 19.5 t-17.5 48.5q0 33 25.5 54t54.5 21q35 0 105 -11t112 -11q41 0 109 11t102 11t61 -20.5t27 -54.5q0 -28 -16.5 -48t-36.5 -20q-23 0 -53 10q-40 9 -52 9q-33 0 -18 -50l246 -735h4l248 678q18 52 18 72q0 35 -49 35q-9 0 -45 -9q-23 -10 -51 -10q-25 0 -43.5 19.5t-18.5 48.5 q0 33 25 54t53 21q34 0 103 -11t114 -11q44 0 111 11t100 11q31 0 50.5 -19t19.5 -48t-20 -52.5t-44 -23.5q-21 0 -41 10q-27 9 -35 9q-25 0 -41 -24.5t-47 -102.5l-260 -652q-27 -69 -46.5 -115t-52 -109.5t-62.5 -105t-73.5 -88t-90 -73t-108 -44.5t-130.5 -18t-135 24.5 t-114 78.5t-48 125zM487 1182q0 6 2 12t4 9.5t7 9t7 8t8.5 8t8.5 6.5l217 186q46 43 88 43q38 0 65.5 -29.5t27.5 -68.5q0 -60 -78 -90l-285 -105q-4 -1 -13.5 -4.5t-17 -5.5t-14.5 -2q-10 0 -18.5 6.5t-8.5 16.5z" />
<glyph unicode="&#xfe;" horiz-adv-x="1269" d="M41 -309q0 29 19.5 48t50.5 19q14 0 45 -6t49 -6q35 0 47 36t12 136v1198q0 58 -4 94.5t-13.5 52.5t-18 20.5t-23.5 4.5q-18 0 -49 -6t-45 -6q-31 0 -50.5 19t-19.5 48q0 33 25 54.5t53 21.5q17 0 58.5 -11t74.5 -11q31 0 76.5 11t50.5 11q29 0 36 -10t7 -47v-442h4 q62 78 135 114.5t170 36.5q118 0 209 -41.5t147 -115.5t84.5 -170.5t28.5 -211.5q0 -104 -26 -209t-78 -180q-63 -93 -165.5 -143.5t-219.5 -50.5q-89 0 -166 32t-119 95h-4v-162q0 -99 14 -133.5t45 -34.5q18 0 49 6t45 6q31 0 50.5 -19t19.5 -48q0 -34 -27 -55t-63 -21 q-39 0 -110 11.5t-107 11.5q-39 0 -108.5 -11.5t-98.5 -11.5q-36 0 -63 21t-27 55zM422 459q0 -62 2 -95t14.5 -81t38.5 -84q75 -111 225 -111q73 0 130.5 24t94 63.5t60.5 95.5t33.5 116t9.5 129q0 81 -14 150t-46 131.5t-93.5 98.5t-147.5 36q-91 0 -165 -44.5 t-107 -125.5q-35 -84 -35 -303z" />
<glyph unicode="&#xff;" horiz-adv-x="1310" d="M-41 -186q0 60 37.5 102.5t97.5 42.5q49 0 82 -27t33 -75q0 -30 -17.5 -54t-44.5 -28q25 -51 117 -51q120 0 199 79q38 38 66 90t28 99q0 26 -8 57.5t-17 54t-25.5 60t-23.5 53.5l-223 567q-31 80 -51.5 108t-42.5 28q-12 0 -46.5 -10.5t-60.5 -10.5q-22 0 -39.5 19.5 t-17.5 48.5q0 33 25.5 54t54.5 21q35 0 105 -11t112 -11q41 0 109 11t102 11t61 -20.5t27 -54.5q0 -28 -16.5 -48t-36.5 -20q-23 0 -53 10q-40 9 -52 9q-33 0 -18 -50l246 -735h4l248 678q18 52 18 72q0 35 -49 35q-9 0 -45 -9q-23 -10 -51 -10q-25 0 -43.5 19.5t-18.5 48.5 q0 33 25 54t53 21q34 0 103 -11t114 -11q44 0 111 11t100 11q31 0 50.5 -19t19.5 -48t-20 -52.5t-44 -23.5q-21 0 -41 10q-27 9 -35 9q-25 0 -41 -24.5t-47 -102.5l-260 -652q-27 -69 -46.5 -115t-52 -109.5t-62.5 -105t-73.5 -88t-90 -73t-108 -44.5t-130.5 -18t-135 24.5 t-114 78.5t-48 125zM348 1276q0 50 34 84.5t83 34.5t84 -34.5t35 -84.5q0 -49 -34.5 -83t-84.5 -34q-48 0 -82.5 34t-34.5 83zM723 1276q0 50 34.5 84.5t84.5 34.5q47 0 81.5 -35t34.5 -84t-34 -83t-82 -34q-50 0 -84.5 34t-34.5 83z" />
<glyph unicode="&#x152;" horiz-adv-x="2129" d="M76 678q0 135 33 274.5t98 237.5q75 116 200 180t267 64q268 0 424 -193l4 6q-1 4 -12 41.5t-11 57.5q0 27 19.5 43t58.5 16q48 0 149.5 -11.5t168.5 -11.5q71 0 226.5 11.5t237.5 11.5q101 0 101 -94q0 -36 -6 -106.5t-6 -106.5q0 -34 6 -100t6 -99q0 -92 -76 -92 q-35 0 -56.5 26t-21.5 66q0 43 2 99t2 77q0 48 -6.5 77.5t-21.5 51t-45 32t-71 15t-106 4.5h-196q-120 0 -155.5 -23.5t-35.5 -133.5v-197q0 -53 15 -68.5t63 -15.5h135q49 0 75 24t26 68q0 23 -6.5 67t-6.5 66q0 37 19.5 59.5t56.5 22.5q35 0 53.5 -23t18.5 -59 q0 -37 -9.5 -126t-9.5 -158q0 -86 9.5 -182.5t9.5 -135.5q0 -35 -21.5 -56.5t-56.5 -21.5q-37 0 -53.5 25.5t-16.5 63.5q0 23 5.5 67.5t5.5 65.5q0 94 -115 94h-113q-53 0 -68.5 -20.5t-15.5 -90.5v-331q0 -68 27.5 -91.5t108.5 -23.5h337q111 0 152 45.5t41 132.5 q0 29 -3 88t-3 88q0 59 17 83t55 24q79 0 79 -88q0 -35 -4 -103.5t-4 -103.5q0 -34 4 -102.5t4 -102.5q0 -60 -32 -82.5t-121 -22.5q-85 0 -227.5 11.5t-198.5 11.5q-74 0 -177.5 -11.5t-152.5 -11.5q-42 0 -63 18t-21 48q0 32 19 115l-5 4q-142 -205 -405 -205 q-294 0 -453 207q-76 100 -113.5 238t-37.5 276zM262 705q0 -88 12 -168.5t42.5 -160t77 -137.5t122.5 -94t172 -36q93 0 165.5 38t116 98t71.5 142t38.5 160t10.5 162q0 69 -8 134.5t-25 133t-48.5 123.5t-74.5 100.5t-106 69t-140 24.5q-80 0 -146 -24t-111.5 -67.5 t-79 -99t-52.5 -123.5t-28 -135.5t-9 -139.5z" />
<glyph unicode="&#x153;" horiz-adv-x="1925" d="M78 496q0 117 32.5 220t93 182.5t156.5 126t215 46.5q135 0 237 -55.5t157 -171.5q53 111 162.5 169t240.5 58q220 0 339.5 -139.5t119.5 -364.5q0 -49 -13 -62t-63 -13h-708v-60q0 -137 91 -240.5t226 -103.5q103 0 183 53.5t104 149.5q8 31 13 44.5t22 27.5t45 14 q37 0 58 -24t21 -62q0 -55 -37.5 -118t-84.5 -105q-133 -119 -336 -119q-136 0 -232.5 55.5t-167.5 171.5q-47 -117 -149.5 -172t-237.5 -55q-119 0 -213 42.5t-153 117t-90 173t-31 214.5zM248 508q0 -81 17 -152t53 -132.5t100.5 -98t150.5 -37.5q73 1 130 26t92 66 t57.5 98t31.5 115.5t9 124.5q0 63 -10 121t-33.5 112t-58.5 94t-89 63.5t-120 23.5q-181 0 -263 -144q-67 -122 -67 -280zM1065 635h594v22q0 96 -68 185q-68 90 -215 90q-131 0 -215.5 -83t-95.5 -214z" />
<glyph unicode="&#x178;" horiz-adv-x="1556" d="M-20 1331q0 32 23.5 53t62.5 21q42 0 131 -11.5t143 -11.5t142.5 11.5t131.5 11.5q41 0 64.5 -20t23.5 -54q0 -30 -18 -49.5t-47 -19.5q-33 0 -77.5 6t-57.5 6q-43 0 -43 -21q0 -6 2.5 -11t11 -19.5t12.5 -22.5l312 -528l315 528q25 41 25 55q0 9 -6.5 13t-16 5t-27.5 1 q-25 0 -77 -6t-78 -6q-29 0 -47.5 19.5t-18.5 49.5q0 31 25.5 52.5t66.5 21.5q48 0 135 -11.5t140 -11.5q55 0 146 11.5t128 11.5q41 0 64.5 -19t23.5 -55q0 -30 -18 -49.5t-47 -19.5q-19 0 -59.5 7t-55.5 7q-27 0 -46.5 -10t-28 -21t-27.5 -39l-436 -686v-90 q0 -183 10 -244q14 -75 100 -75q17 0 49 5t49 5q36 0 62.5 -19.5t26.5 -54.5q0 -30 -18.5 -50t-47.5 -20q-42 0 -140 11.5t-180 11.5q-68 0 -152 -11.5t-132 -11.5q-101 0 -101 70q0 35 26.5 54.5t62.5 19.5q18 0 52 -5t52 -5q35 0 60.5 18t31.5 49q12 57 12 232v98 l-424 672q-31 50 -56 70t-58 20q-16 0 -54 -4t-63 -4q-29 0 -47 19.5t-18 49.5zM481 1638q0 50 34 84.5t83 34.5q50 0 84.5 -34.5t34.5 -84.5q0 -49 -34.5 -82.5t-84.5 -33.5q-48 0 -82.5 33.5t-34.5 82.5zM856 1638q0 50 35 84.5t84 34.5q48 0 82.5 -35t34.5 -84 t-34.5 -82.5t-82.5 -33.5q-50 0 -84.5 33.5t-34.5 82.5z" />
<glyph unicode="&#x2c6;" horiz-adv-x="1024" d="M141 1184q0 6 5.5 12.5t11 11t14 10t10.5 7.5l283 200q33 25 43 25q4 0 12.5 -5t18.5 -13l10 -7l287 -200q12 -8 15.5 -11t10 -12t6.5 -18q0 -12 -7.5 -18.5t-18.5 -6.5q-16 0 -43 8t-68.5 23.5t-42.5 15.5q-18 7 -58 20.5t-71 25.5t-57 26q-59 -28 -179.5 -74.5 t-150.5 -46.5q-31 0 -31 27z" />
<glyph unicode="&#x2dc;" horiz-adv-x="942" d="M141 1202q0 48 39 111q53 78 164 78q15 0 33 -3t32 -6t37 -10t32.5 -10t35 -12.5t29.5 -10.5q4 -2 22.5 -8.5t26 -9t22.5 -7t26.5 -6t23.5 -1.5q25 0 45 10.5t30 23t20 23t19 10.5q25 0 25 -28q0 -47 -31 -103q-56 -84 -164 -84q-50 0 -166 40t-163 40q-52 0 -82 -43 q-2 -2 -4.5 -7t-4.5 -8t-5 -6t-6.5 -4.5t-8.5 -1.5q-27 0 -27 33z" />
<glyph unicode="&#x2000;" horiz-adv-x="913" />
<glyph unicode="&#x2001;" horiz-adv-x="1827" />
<glyph unicode="&#x2002;" horiz-adv-x="913" />
<glyph unicode="&#x2003;" horiz-adv-x="1827" />
<glyph unicode="&#x2004;" horiz-adv-x="609" />
<glyph unicode="&#x2005;" horiz-adv-x="456" />
<glyph unicode="&#x2006;" horiz-adv-x="304" />
<glyph unicode="&#x2007;" horiz-adv-x="304" />
<glyph unicode="&#x2008;" horiz-adv-x="228" />
<glyph unicode="&#x2009;" horiz-adv-x="365" />
<glyph unicode="&#x200a;" horiz-adv-x="101" />
<glyph unicode="&#x2010;" horiz-adv-x="655" d="M70 553q0 44 30 59t78 15h299q109 0 109 -74q0 -76 -109 -76h-299q-31 0 -52 4.5t-38.5 22t-17.5 49.5z" />
<glyph unicode="&#x2011;" horiz-adv-x="655" d="M70 553q0 44 30 59t78 15h299q109 0 109 -74q0 -76 -109 -76h-299q-31 0 -52 4.5t-38.5 22t-17.5 49.5z" />
<glyph unicode="&#x2012;" horiz-adv-x="655" d="M70 553q0 44 30 59t78 15h299q109 0 109 -74q0 -76 -109 -76h-299q-31 0 -52 4.5t-38.5 22t-17.5 49.5z" />
<glyph unicode="&#x2013;" horiz-adv-x="1024" d="M-82 553q0 76 109 76h970q109 0 109 -76t-109 -76h-970q-109 0 -109 76z" />
<glyph unicode="&#x2014;" horiz-adv-x="2048" d="M-82 553q0 76 109 76h1994q109 0 109 -76t-109 -76h-1994q-109 0 -109 76z" />
<glyph unicode="&#x2018;" horiz-adv-x="655" d="M180 1026q0 146 99 295q2 2 11.5 17.5t14.5 22t15.5 20t18 21t18 16t21 12.5t21.5 4q14 0 25.5 -13t11.5 -28q0 -14 -22 -47q-33 -43 -71 -115.5t-38 -110.5q0 -7 1 -12t4 -9t4.5 -7t7 -4.5t8 -2.5t9.5 -1.5t9 -0.5h10.5h10.5q57 -2 91 -36t34 -91q0 -63 -43 -102 t-107 -39q-53 0 -92 33t-55.5 79.5t-16.5 98.5z" />
<glyph unicode="&#x2019;" horiz-adv-x="655" d="M180 1294q0 63 43 101.5t107 38.5q79 0 121.5 -63.5t42.5 -145.5q0 -146 -99 -295q-1 -2 -7.5 -12t-10 -15t-11 -16t-13 -18t-13.5 -16.5t-15 -15t-15 -11.5t-15.5 -8.5t-15.5 -2.5q-17 0 -29 13t-12 30q0 14 22 47q33 43 71 115t38 110q0 12 -3 19.5t-11.5 11t-12.5 4.5 t-19.5 1.5t-17.5 0.5q-57 2 -91 36t-34 91z" />
<glyph unicode="&#x201a;" horiz-adv-x="696" d="M180 82q0 63 42.5 101t107.5 38q79 0 121.5 -63.5t42.5 -145.5q0 -146 -99 -295q-52 -80 -84 -101q-17 -11 -32 -11q-17 0 -29 12t-12 29q0 14 22 47q33 43 71 115t38 110q0 7 -1 12t-4 9t-4.5 7t-7 4.5t-8 2.5t-9.5 1.5t-9 0.5h-10.5h-10.5q-57 2 -91 36t-34 91z" />
<glyph unicode="&#x201c;" horiz-adv-x="1064" d="M180 1026q0 146 99 295q2 3 16.5 24.5t22.5 31.5t23 26t29.5 23.5t28.5 7.5t25.5 -13.5t11.5 -27.5q0 -20 -22 -47q-33 -43 -71 -115.5t-38 -110.5q0 -7 1 -12t4 -9t4.5 -7t7 -4.5t8 -2.5t9.5 -1.5t9 -0.5h10.5h10.5q58 -3 91.5 -37t33.5 -92q0 -63 -42.5 -101 t-105.5 -38q-80 0 -123 63.5t-43 147.5zM567 1024q0 143 97 295q1 2 13.5 20.5t18 26.5t18.5 24t22.5 23.5t22.5 14t25 6.5q15 0 27 -14t12 -29q0 -19 -24 -48q-33 -43 -71 -115t-38 -110q0 -10 3 -17t7 -10.5t12 -5.5t13 -2.5t16 -1t15 -0.5q56 -2 90.5 -36.5t34.5 -90.5 q0 -63 -43.5 -101t-106.5 -38q-79 0 -121.5 63.5t-42.5 145.5z" />
<glyph unicode="&#x201d;" horiz-adv-x="1064" d="M180 1294q0 63 43.5 101.5t106.5 38.5q53 0 92 -33t55.5 -79.5t16.5 -98.5q0 -146 -99 -295q-1 -1 -7.5 -11.5t-9 -14l-10 -14t-11.5 -15.5t-11.5 -14.5t-13 -14t-13.5 -11.5t-14.5 -10t-14 -5.5t-14.5 -2.5q-14 0 -26 13.5t-12 27.5q0 23 24 47q33 43 71 115t38 110 q0 7 -1 12t-4 9t-5 7t-7.5 4.5t-8 2.5t-10 1.5t-9.5 0.5h-11h-10q-57 3 -91 37t-34 92zM565 1294q0 63 43.5 101.5t106.5 38.5q53 0 92 -33t55.5 -79.5t16.5 -98.5q0 -146 -99 -295q-1 -2 -8 -13t-10.5 -15.5t-11 -16t-13 -17.5t-13.5 -15t-15 -14.5t-15 -11t-16 -8 t-16 -2.5q-15 0 -27 13.5t-12 27.5q0 23 24 47q33 43 71 115t38 110q0 7 -1 12t-4 9t-5 7t-7.5 4.5t-8 2.5t-10 1.5t-9.5 0.5h-11h-10q-57 3 -91 37t-34 92z" />
<glyph unicode="&#x201e;" horiz-adv-x="1064" d="M180 82q0 63 42.5 101t107.5 38q79 0 121.5 -63.5t42.5 -145.5q0 -146 -99 -295q-52 -80 -84 -101q-17 -11 -32 -11q-17 0 -29 12t-12 29q0 14 22 47q33 43 71 115t38 110q0 7 -1 12t-4 9t-4.5 7t-7 4.5t-8 2.5t-9.5 1.5t-9 0.5h-10.5h-10.5q-57 2 -91 36t-34 91zM565 84 q0 63 43.5 101t106.5 38q79 0 121.5 -63.5t42.5 -147.5q0 -146 -99 -295l-8 -13q-8 -12 -10.5 -15.5t-11 -15.5t-13 -17.5t-13 -15t-15 -14.5t-15 -10.5t-16.5 -8t-16 -2.5q-15 0 -27 13.5t-12 27.5q0 20 24 49q33 40 71 112t38 111q0 9 -1.5 15t-6 10t-8 6.5t-11.5 4t-12 2 t-14 1t-13 0.5q-56 2 -90.5 35.5t-34.5 91.5z" />
<glyph unicode="&#x2022;" horiz-adv-x="1228" d="M266 694q0 149 104 253t253 104q146 0 249 -104t103 -253q0 -146 -103 -249t-249 -103q-149 0 -253 103t-104 249z" />
<glyph unicode="&#x2026;" horiz-adv-x="2048" d="M209 109q0 54 39 92.5t94 38.5q54 0 92.5 -38.5t38.5 -92.5q0 -55 -38.5 -94.5t-92.5 -39.5q-55 0 -94 39t-39 95zM891 109q0 54 38.5 92.5t92.5 38.5q55 0 94 -38.5t39 -92.5q0 -56 -39 -95t-94 -39q-54 0 -92.5 39.5t-38.5 94.5zM1573 109q0 54 39 92.5t94 38.5 q54 0 92.5 -38.5t38.5 -92.5q0 -55 -38.5 -94.5t-92.5 -39.5q-55 0 -94 39t-39 95z" />
<glyph unicode="&#x202f;" horiz-adv-x="365" />
<glyph unicode="&#x2039;" horiz-adv-x="450" d="M35 555q0 4 4 12t9.5 16.5t6.5 10.5l185 293q1 2 4.5 8t5.5 9.5t6 9t7.5 8.5t9 5.5t10.5 2.5q14 0 24 -9t10 -22q0 -9 -3 -17.5t-9 -20t-8 -17.5l-98 -289l104 -305l7.5 -22.5t6.5 -28.5q0 -13 -9 -21t-21 -8q-7 0 -13 2.5t-11 8t-7.5 9t-7.5 11.5t-6 10l-189 307 q-18 27 -18 37z" />
<glyph unicode="&#x203a;" horiz-adv-x="450" d="M139 199q0 11 15 51l104 305l-100 289q-2 5 -10.5 24t-8.5 31q0 13 10.5 22t24.5 9q18 0 43 -43l184 -293q1 -2 7 -10.5t10 -16.5t4 -12q0 -9 -19 -37l-188 -307q-1 -2 -5.5 -9.5l-6 -10t-6 -8t-8 -7.5t-9 -4t-12.5 -2q-12 0 -20.5 8.5t-8.5 20.5z" />
<glyph unicode="&#x205f;" horiz-adv-x="456" />
<glyph unicode="&#x20ac;" d="M53 553q0 63 62 63h98q-2 20 -2 60q0 67 2 100h-94q-66 0 -66 60q0 63 62 63h112q18 116 56.5 209t101 168t158.5 116.5t219 41.5q100 0 189.5 -41.5t146.5 -120.5q-1 16 -4.5 44.5t-3.5 41.5q0 72 65 72q70 0 70 -89q0 -37 -8.5 -109.5t-8.5 -109.5q0 -38 6.5 -99 t6.5 -77q0 -92 -74 -92q-39 0 -57.5 29t-18.5 71q0 153 -81.5 246.5t-227.5 93.5q-302 0 -356 -395h421q72 0 72 -59q0 -36 -18.5 -50t-55.5 -14h-430q-2 -29 -2 -82q0 -51 2 -78h432q72 0 72 -59q0 -36 -18.5 -49.5t-55.5 -13.5h-422q8 -68 23 -124t43.5 -110.5t68.5 -91.5 t100.5 -59.5t137.5 -22.5q135 0 223 78t101 235q5 49 23 73t55 24q84 0 84 -97q0 -87 -32 -166.5t-92.5 -143.5t-160 -102t-223.5 -38q-101 0 -185.5 30t-143.5 81t-103 121.5t-68 148.5t-33 164h-102q-66 0 -66 59z" />
<glyph unicode="&#x2122;" horiz-adv-x="1884" d="M70 1208v62v135h692v-135v-62h-47q0 89 -33.5 118.5t-124.5 29.5h-84v-647v-11v-13t0.5 -12.5t2 -13t4 -11t6.5 -10.5t10 -7q27 -13 106 -13v-40h-373v40q80 0 107 13q6 3 10.5 9t7 11.5t3.5 15t1 14v15v13.5v647h-84q-91 0 -124 -29.5t-33 -118.5h-47zM901 578v40 q62 2 76 10q25 12 22 58v606v19v16t-0.5 12t-1.5 10l-3.5 7t-6.5 6t-10 3t-13 2.5t-18 0.5h-28v37h223l264 -631l270 631h230v-37h-43q-56 0 -56 -41v-612q0 -62 16.5 -77t82.5 -20v-40h-318v40h23q54 3 68 21.5t14 73.5v610h-4l-308 -745h-16l-309 745h-4v-635 q0 -4 -0.5 -13t0 -11.5t2 -8.5t5.5 -9.5t11 -8.5q6 -4 12 -7.5t10 -5t12 -3t10.5 -1.5t13 -1t12.5 -1h14v-40h-252z" />
<glyph unicode="&#xe000;" horiz-adv-x="1044" d="M0 0v1044h1044v-1044h-1044z" />
</font>
</defs>
</svg>
